<?xml version="1.0" standalone="no"?>
<!DOCTYPE svg PUBLIC "-//W3C//DTD SVG 1.1//EN" "http://www.w3.org/Graphics/SVG/1.1/DTD/svg11.dtd" >
<svg xmlns="http://www.w3.org/2000/svg" xmlns:xlink="http://www.w3.org/1999/xlink" version="1.1">
<metadata></metadata>
<defs>
<font id="Roboto-Black" horiz-adv-x="1433" >
<font-face units-per-em="2048" ascent="1638" descent="-410" />
<missing-glyph horiz-adv-x="450" />
<glyph unicode="&#xfb01;" horiz-adv-x="1486" d="M27 870v338h159q12 205 142 297t434 92h534v-268h-374q-125 0 -171 -24t-53 -97h707v-1208h-512v870h-197v-870h-512v870h-157z" />
<glyph unicode="&#xfb02;" horiz-adv-x="1536" d="M27 891v338h161q15 192 146 282q130 86 428 86h692v-1597h-512v1329h-20q-117 0 -163.5 -20.5t-58.5 -79.5h107v-338h-111v-891h-512v891h-157z" />
<glyph horiz-adv-x="0" />
<glyph horiz-adv-x="682" />
<glyph unicode="&#xd;" horiz-adv-x="681" />
<glyph unicode=" "  horiz-adv-x="450" />
<glyph unicode="&#x09;" horiz-adv-x="450" />
<glyph unicode="&#xa0;" horiz-adv-x="450" />
<glyph unicode="!" horiz-adv-x="708" d="M76 199q0 104 55 161.5t154 57.5h133q99 0 154 -57.5t55 -161.5q0 -103 -55.5 -161t-153.5 -58h-133q-98 0 -153.5 58t-55.5 161zM100 485v1051h512v-1051h-512z" />
<glyph unicode="&#x22;" horiz-adv-x="1243" d="M23 1536h555l-105 -625h-334zM664 1536h555l-105 -625h-334z" />
<glyph unicode="#" horiz-adv-x="1712" d="M29 387v297h313l68 193h-236v297h340l139 399h400l-140 -399h166l142 399h401l-139 -399h200v-297h-305l-67 -193h227v-297h-332l-135 -387h-403l135 387h-166l-135 -387h-400l136 387h-209zM741 684h166l68 193h-166z" />
<glyph unicode="$" horiz-adv-x="1423" d="M47 420v82h492v-43q0 -82 32.5 -115t122.5 -33q93 0 129.5 25t36.5 86v18q0 25 -8.5 45t-30 35t-40.5 24.5t-58.5 19t-64.5 14.5t-76 14q-5 1 -15.5 2t-13.5 2q-85 14 -141 30.5t-129 49.5q-75 35 -117 80q-47 52 -77 131.5t-30 177.5v12q0 191 118 311.5t349 155.5v271 h379v-271q228 -32 343.5 -142.5t115.5 -285.5v-74h-492v35q0 76 -35 111t-114 35t-114.5 -26.5t-35.5 -82.5v-10q0 -73 91 -107q63 -24 202 -47q4 -1 14 -2t13 -2q89 -15 145 -31t121 -49q67 -33 113 -82q46 -50 74 -129.5t28 -177.5v-18q0 -193 -117 -312.5t-352 -154.5 v-301h-379v297q-241 30 -360 140.5t-119 291.5z" />
<glyph unicode="%" horiz-adv-x="2494" d="M45 895v344q0 150 109 233.5t321 83.5t322 -83.5t110 -233.5v-344q0 -150 -110 -233.5t-322 -83.5t-321 83.5t-109 233.5zM393 969q0 -88 82 -88q84 0 84 88v198q0 88 -84 88q-82 0 -82 -88v-198zM549 0l979 1577h409l-979 -1577h-409zM1587 297v344q0 150 109 233.5 t321 83.5t322 -83.5t110 -233.5v-344q0 -150 -110 -233.5t-322 -83.5t-321 83.5t-109 233.5zM1935 371q0 -88 82 -88q84 0 84 88v198q0 88 -84 88q-82 0 -82 -88v-198z" />
<glyph unicode="&#x26;" horiz-adv-x="1460" d="M51 420v14q0 283 199 359q-187 73 -187 317v6q0 208 157 324t460 116q308 0 468.5 -116t160.5 -324v-61h-502v35q0 52 -29 76t-94 24q-119 0 -119 -121q0 -108 135 -111h732v-362h-113v-209q0 -194 -161 -300.5t-474 -106.5q-310 0 -471.5 116t-161.5 324zM555 461 q0 -58 31 -86q29 -29 98 -29q68 0 100 29q31 28 31 86v135h-119q-141 0 -141 -104v-31z" />
<glyph unicode="'" horiz-adv-x="600" d="M23 1536h555l-105 -625h-334z" />
<glyph unicode="(" horiz-adv-x="864" d="M78 330v690q0 266 176 422q174 155 491 155h76v-430h-76q-174 0 -174 -209v-567q0 -209 174 -209h76v-430h-76q-315 0 -491 156q-176 159 -176 422z" />
<glyph unicode=")" horiz-adv-x="864" d="M43 182h76q174 0 174 209v567q0 209 -174 209h-76v430h76q319 0 493 -155t174 -422v-690q0 -264 -174 -422q-176 -156 -493 -156h-76v430z" />
<glyph unicode="*" horiz-adv-x="962" d="M16 1112l109 332l94 -31l152 -115l-64 179v100h348v-100l-63 -179l151 115l95 31l108 -332l-96 -31l-199 4l160 -110l57 -80l-280 -207l-60 82l-47 158l-47 -158l-59 -82l-281 207l58 80l159 110l-198 -4z" />
<glyph unicode="+" d="M174 545v409h307v303h471v-303h308v-409h-308v-281h-471v281h-307z" />
<glyph unicode="," horiz-adv-x="614" d="M-37 -238l162 652h475l-242 -652h-395z" />
<glyph unicode="-" horiz-adv-x="989" d="M35 467v389h919v-389h-919z" />
<glyph unicode="." horiz-adv-x="722" d="M86 199q0 104 55 161.5t154 57.5h133q99 0 154 -57.5t55 -161.5q0 -103 -55.5 -161t-153.5 -58h-133q-98 0 -153.5 58t-55.5 161z" />
<glyph unicode="/" horiz-adv-x="1142" d="M10 0l672 1577h451l-672 -1577h-451z" />
<glyph unicode="0" horiz-adv-x="1419" d="M68 481v574q0 237 163.5 369t479.5 132q314 0 477.5 -132t163.5 -369v-574q0 -237 -163.5 -369t-477.5 -132q-316 0 -479.5 132t-163.5 369zM580 545q0 -70 30 -102.5t101 -32.5q68 0 98.5 32.5t30.5 102.5v446q0 70 -30.5 102.5t-98.5 32.5q-71 0 -101 -32.5t-30 -102.5 v-446z" />
<glyph unicode="1" horiz-adv-x="915" d="M31 1106v430h782v-1536h-514v1106h-268z" />
<glyph unicode="2" horiz-adv-x="1333" d="M49 961v114q0 228 150.5 354.5t451.5 126.5q305 0 464 -110t159 -309v-50q0 -133 -41 -217q-40 -82 -148 -176l-299 -264h476v-430h-1196v362l550 474q103 90 121 116q23 38 23 78v19q0 77 -105 77q-57 0 -79.5 -25t-22.5 -85v-55h-504z" />
<glyph unicode="3" horiz-adv-x="1341" d="M39 420v57h502v-12q0 -96 116 -96q63 0 91 24t28 78v21q0 112 -155 112h-70v354h67q146 6 146 111q0 98 -105 98q-59 0 -83.5 -23.5t-24.5 -78.5v-23h-502v74q0 208 156.5 324t458.5 116t458 -116t156 -324v-47q0 -188 -223 -276q235 -88 235 -297v-76 q0 -208 -161.5 -324t-471.5 -116q-304 0 -461 116t-157 324z" />
<glyph unicode="4" horiz-adv-x="1513" d="M33 246v350l694 940h512v-901h242v-389h-242v-246h-455v246h-751zM532 635h252v373z" />
<glyph unicode="5" horiz-adv-x="1327" d="M66 481v29h520v-6q0 -94 92 -94q90 0 90 108v33q0 57 -51 82.5t-168 25.5h-459v877h1124v-410h-612v-125h217q228 0 345.5 -127t117.5 -354v-22q0 -246 -154 -382t-456 -136q-297 0 -451.5 132t-154.5 369z" />
<glyph unicode="6" horiz-adv-x="1384" d="M68 481v574q0 237 158 369t462 132h8q301 0 458 -129t157 -360h-496q0 43 -26 61.5t-87 18.5q-66 0 -93 -18.5t-27 -61.5v-154q107 43 272 43q233 0 362.5 -122.5t129.5 -335.5v-4q-2 -244 -164 -379t-475 -135q-314 0 -476.5 131.5t-162.5 369.5zM582 436q0 -56 29 -82 t96 -26t95.5 26t28.5 82v84q0 57 -29 83t-95 26q-67 0 -96 -26.5t-29 -82.5v-84z" />
<glyph unicode="7" horiz-adv-x="1200" d="M29 1147v389h1136v-375l-409 -1161h-510l411 1147h-628z" />
<glyph unicode="8" horiz-adv-x="1382" d="M53 358v117q0 219 240 313q-221 89 -221 281v109q0 180 157 279t461 99q305 0 463 -99t158 -279v-109q0 -192 -221 -281q239 -94 239 -313v-117q0 -180 -162 -279t-477 -99q-313 0 -475 99t-162 279zM555 471q0 -60 31.5 -86.5t103.5 -26.5q73 0 105 26.5t32 86.5v23 q0 103 -135 112q-73 -4 -105 -30t-32 -82v-23zM575 1071q0 -54 27 -79t90 -31q62 6 88.5 31t26.5 79q0 56 -27.5 81.5t-89.5 25.5q-61 0 -88 -25.5t-27 -81.5z" />
<glyph unicode="9" horiz-adv-x="1386" d="M41 1038v2q0 246 162 381t477 135q314 0 476.5 -131.5t162.5 -369.5v-572q0 -237 -158.5 -369t-462.5 -132h-8q-301 0 -457.5 129t-156.5 360h495q0 -43 26 -61.5t87 -18.5q66 0 93.5 18.5t27.5 61.5v152q-107 -43 -273 -43q-233 0 -362 122.5t-129 335.5zM555 1016 q0 -56 29 -82.5t96 -26.5t96 26.5t29 82.5v84q0 56 -29 82t-96 26t-96 -26t-29 -82v-84z" />
<glyph unicode=":" horiz-adv-x="722" d="M86 199q0 104 55 161.5t154 57.5h133q99 0 154 -57.5t55 -161.5q0 -103 -55.5 -161t-153.5 -58h-133q-98 0 -153.5 58t-55.5 161zM86 1081q0 104 55 161.5t154 57.5h133q99 0 154 -57.5t55 -161.5q0 -103 -55.5 -161t-153.5 -58h-133q-98 0 -153.5 58t-55.5 161z" />
<glyph unicode=";" horiz-adv-x="722" d="M-37 -238l162 650h475l-242 -650h-395zM86 1081q0 104 55 161.5t154 57.5h133q99 0 154 -57.5t55 -161.5q0 -103 -55.5 -161t-153.5 -58h-133q-98 0 -153.5 58t-55.5 161z" />
<glyph unicode="&#x3c;" d="M170 612v295l1092 441v-451l-545 -143l545 -144v-450z" />
<glyph unicode="=" d="M174 274v410h1086v-410h-1086zM174 840v409h1086v-409h-1086z" />
<glyph unicode="&#x3e;" d="M170 162v450l545 144l-545 143v451l1092 -453v-295z" />
<glyph unicode="?" horiz-adv-x="1259" d="M27 961v53q0 256 131 399t452 143q304 0 462.5 -116t158.5 -324v-12q1 -63 -16 -119t-39 -93.5t-62 -76.5t-65 -58.5t-68 -49.5q-137 -99 -137 -203v-19h-506v11q0 75 21 136.5t54.5 102t74.5 74t81.5 58.5t74 48t54.5 50t21 57v14q0 90 -96 90q-55 0 -79 -26t-24 -84 v-55h-493zM319 199q0 104 55 161.5t154 57.5h134q98 0 153 -57.5t55 -161.5q0 -103 -55 -161t-153 -58h-134q-98 0 -153.5 58t-55.5 161z" />
<glyph unicode="@" horiz-adv-x="2131" d="M57 469v217q0 391 252 631q251 239 721 239h78q260 0 451 -66t305 -190q215 -243 215 -645v-202q0 -216 -98 -328.5t-273 -112.5q-203 0 -338 105q-176 -105 -358 -105q-199 0 -330 113q-133 115 -133 293v295q0 194 132 300.5t388 106.5q253 0 385.5 -103.5 t132.5 -289.5v-307q0 -70 22.5 -100.5t76.5 -30.5q53 0 74.5 30.5t21.5 100.5v213q0 358 -158 510q-159 147 -524 147h-64q-682 0 -682 -651v-123q0 -651 557 -651h944v-266h-944q-395 0 -624 241q-230 245 -230 629zM948 457q0 -52 28 -75.5t93 -23.5q63 0 91 24t28 75v215 q0 54 -28 77t-91 23q-66 0 -93.5 -23t-27.5 -77v-215z" />
<glyph unicode="A" horiz-adv-x="1507" d="M86 0v1034q0 248 170.5 385t497.5 137q328 0 497.5 -136.5t169.5 -385.5v-1034h-514v367h-307v-367h-514zM600 797h307v178q0 79 -36 115t-117 36t-117.5 -36t-36.5 -115v-178z" />
<glyph unicode="B" horiz-adv-x="1480" d="M102 0v1536h695q294 0 445 -108t151 -304v-45q0 -186 -146 -276q191 -95 191 -299v-86q0 -199 -150.5 -308.5t-441.5 -109.5h-744zM596 389h188q75 0 108.5 21.5t33.5 68.5v29q0 47 -33.5 68.5t-108.5 21.5h-188v-209zM596 954h152q72 0 102.5 19t30.5 63v33 q0 42 -30.5 60t-102.5 18h-152v-193z" />
<glyph unicode="C" horiz-adv-x="1425" d="M68 502v532q0 249 166.5 385.5t488.5 136.5q316 0 479.5 -136.5t163.5 -385.5v-155h-504v120q0 107 -139 107q-75 0 -108 -33t-33 -106v-398q0 -73 33 -106t108 -33q73 0 106 26.5t33 82.5v120h504v-157q0 -249 -164 -385.5t-483 -136.5q-321 0 -486 136.5t-165 385.5z " />
<glyph unicode="D" horiz-adv-x="1497" d="M102 0v1536h664q327 0 497.5 -137t170.5 -385v-492q0 -248 -170.5 -385t-497.5 -137h-664zM616 451h150q82 0 118 32.5t36 104.5v360q0 72 -36 104.5t-118 32.5h-150v-634z" />
<glyph unicode="E" horiz-adv-x="1271" d="M102 0v1536h1074v-420h-570v-158h475v-368h-475v-170h617v-420h-1121z" />
<glyph unicode="F" horiz-adv-x="1191" d="M102 0v1536h1053v-451h-539v-176h445v-450h-445v-459h-514z" />
<glyph unicode="G" horiz-adv-x="1464" d="M68 502v532q0 246 168 383q168 139 497 139t500 -139q168 -137 168 -383v-33h-514v19q0 56 -36.5 81t-117.5 25t-116 -33t-35 -106v-448q0 -73 35 -106.5t116 -33.5t117.5 29t36.5 92v33h-156v332h670v-383q0 -248 -171.5 -385t-498.5 -137q-326 0 -494.5 136.5 t-168.5 385.5z" />
<glyph unicode="H" horiz-adv-x="1544" d="M102 0v1536h514v-532h314v532h512v-1536h-512v553h-314v-553h-514z" />
<glyph unicode="I" horiz-adv-x="718" d="M102 0v1536h514v-1536h-514z" />
<glyph unicode="J" horiz-adv-x="925" d="M33 -10v450h123q91 0 130.5 37.5t39.5 120.5v938h514v-1085q0 -219 -141.5 -340t-413.5 -121h-252z" />
<glyph unicode="K" horiz-adv-x="1525" d="M102 0v1536h514v-522h78l236 522h559l-352 -715l376 -821h-561l-237 563h-99v-563h-514z" />
<glyph unicode="L" horiz-adv-x="1177" d="M102 0v1536h514v-1085h529v-451h-1043z" />
<glyph unicode="M" horiz-adv-x="2062" d="M102 0v1536h625l303 -905l309 905h621v-1536h-512v174q0 360 51 713l-276 -785h-387l-271 781q49 -343 49 -709v-174h-512z" />
<glyph unicode="N" horiz-adv-x="1560" d="M102 0v1536h523l385 -807q-40 286 -43 637l-2 170h493v-1536h-522l-397 858q46 -324 55 -727l2 -131h-494z" />
<glyph unicode="O" horiz-adv-x="1484" d="M66 502v532q0 248 171.5 385t503.5 137q333 0 505.5 -137t172.5 -385v-532q0 -248 -172.5 -385t-505.5 -137q-332 0 -503.5 137t-171.5 385zM580 565q0 -70 37.5 -102.5t123.5 -32.5q87 0 125.5 32.5t38.5 102.5v406q0 70 -38.5 102.5t-125.5 32.5q-86 0 -123.5 -32.5 t-37.5 -102.5v-406z" />
<glyph unicode="P" horiz-adv-x="1478" d="M102 0v1536h656q331 0 502.5 -119t171.5 -334v-297q0 -213 -148 -331.5t-436 -118.5h-232v-336h-514zM616 786h150q80 0 116 24.5t36 76.5v119q0 52 -35.5 76t-116.5 24h-150v-320z" />
<glyph unicode="Q" horiz-adv-x="1484" d="M66 502v532q0 248 171.5 385t503.5 137q333 0 505.5 -137t172.5 -385v-532q0 -195 -110 -324t-324 -176v-311h-491v313q-211 47 -319.5 175.5t-108.5 322.5zM580 565q0 -70 37.5 -102.5t123.5 -32.5q87 0 125.5 32.5t38.5 102.5v406q0 70 -38.5 102.5t-125.5 32.5 q-86 0 -123.5 -32.5t-37.5 -102.5v-406z" />
<glyph unicode="R" horiz-adv-x="1492" d="M102 0v1536h691q319 0 482 -123t163 -348v-127q0 -131 -54 -225.5t-174 -167.5l246 -545h-534l-164 453h-142v-453h-514zM616 834h156q81 0 116.5 30t35.5 94v23q0 64 -36 94.5t-116 30.5h-156v-272z" />
<glyph unicode="S" horiz-adv-x="1423" d="M47 420v82h492v-43q0 -53 33 -75t122 -22q92 0 129 20.5t37 68.5v18q0 35 -27.5 56t-80.5 36q-33 10 -90 19l-32 4t-44.5 6t-32.5 6q-85 14 -141 30.5t-129 49.5q-75 35 -117 80q-47 52 -77 131.5t-30 177.5v12q0 229 164.5 354t485.5 125q324 0 489.5 -116t165.5 -324 v-74h-492v35q0 94 -149 94q-150 0 -150 -86v-10q0 -36 29.5 -56.5t87.5 -35.5q20 -7 94 -18q84 -13 109 -19q89 -15 145 -31t121 -49q67 -33 113 -82q46 -50 74 -129.5t28 -177.5v-18q0 -232 -167.5 -357t-501.5 -125q-328 0 -493 115t-165 328z" />
<glyph unicode="T" horiz-adv-x="1351" d="M33 1098v438h1286v-438h-387v-1098h-514v1098h-385z" />
<glyph unicode="U" horiz-adv-x="1515" d="M84 502v1034h514v-948q0 -83 37.5 -120.5t122.5 -37.5t122.5 37.5t37.5 120.5v948h514v-1034q0 -249 -171 -385.5t-503 -136.5t-503 136.5t-171 385.5z" />
<glyph unicode="V" horiz-adv-x="1538" d="M16 1536h541l148 -809q30 -165 57 -383h8q18 154 64 383l155 809h533l-338 -1536h-832z" />
<glyph unicode="W" horiz-adv-x="2418" d="M23 1536h542l133 -905q15 -91 33 -291h4q5 61 35 291l125 905h639l113 -905q8 -65 32 -285h4q17 168 35 285l146 905h532l-297 -1536h-735l-78 563q-3 25 -12 98.5t-24.5 208t-32.5 271.5h-5q-3 -27 -14.5 -125t-19.5 -170q-9 -80 -35 -283l-78 -563h-748z" />
<glyph unicode="X" horiz-adv-x="1511" d="M12 0l475 772l-473 764h561l78 -135q70 -121 115 -234h4q33 90 107 224l79 145h535l-473 -764l479 -772h-567l-94 162q-74 130 -99 205h-4q-26 -74 -100 -207l-88 -160h-535z" />
<glyph unicode="Y" horiz-adv-x="1505" d="M8 1536h535l147 -381q46 -115 66 -233h4q19 112 67 235l148 379h524l-489 -1079v-457h-512v457z" />
<glyph unicode="Z" horiz-adv-x="1335" d="M59 0v426l347 432q78 95 194 219l-2 8h-516v451h1194v-385l-399 -496q-27 -32 -166 -196v-8h553v-451h-1205z" />
<glyph unicode="[" horiz-adv-x="937" d="M102 -238v1815h791v-430h-299v-954h299v-431h-791z" />
<glyph unicode="\" horiz-adv-x="1142" d="M10 1577h451l672 -1577h-451z" />
<glyph unicode="]" horiz-adv-x="937" d="M45 193h299v954h-299v430h791v-1815h-791v431z" />
<glyph unicode="^" d="M53 473l512 1073h301l512 -1073h-512l-149 424l-152 -424h-512z" />
<glyph unicode="_" horiz-adv-x="1513" d="M41 -115h1432v-286h-1432v286z" />
<glyph unicode="`" horiz-adv-x="942" d="M-49 1702h553l291 -311h-492z" />
<glyph unicode="a" horiz-adv-x="1277" d="M29 408v2q0 327 463 327q133 0 221 -18v96q0 96 -84 96q-49 0 -68.5 -17t-19.5 -56h-471q0 248 129 356q127 106 436 106h51q265 0 402 -108.5t137 -306.5v-475q0 -214 -151.5 -322t-436.5 -108h-51q-256 0 -406.5 113.5t-150.5 314.5zM541 379q0 -113 86 -113 q47 0 66.5 26t19.5 87v29q0 58 -19.5 84t-66.5 26q-86 0 -86 -110v-29z" />
<glyph unicode="b" horiz-adv-x="1320" d="M68 387v1190h512v-326q128 49 241 49q223 0 334 -106t111 -305v-502q0 -194 -151 -299.5t-447 -105.5t-448 105.5t-152 299.5zM580 506q0 -51 20.5 -73.5t67.5 -22.5q49 0 69.5 22.5t20.5 73.5v291q0 50 -20.5 72t-69.5 22q-47 0 -67.5 -22t-20.5 -72v-291z" />
<glyph unicode="c" horiz-adv-x="1249" d="M53 406v471q0 201 149 313.5t433 112.5q278 0 423.5 -112.5t145.5 -313.5v-148h-489v66q0 42 -18 59.5t-62 17.5q-43 0 -61.5 -18t-18.5 -61v-299q0 -43 18 -62.5t60 -19.5q82 0 82 84v55h489v-145q0 -201 -145.5 -312.5t-425.5 -111.5q-284 0 -432 111.5t-148 312.5z " />
<glyph unicode="d" horiz-adv-x="1320" d="M55 408v475q0 201 109 309t328 108q118 0 249 -49v326h512v-1169q0 -202 -151.5 -314t-446.5 -112t-447.5 112t-152.5 314zM567 506q0 -51 20.5 -73.5t69.5 -22.5q47 0 67.5 22.5t20.5 73.5v291q0 50 -20.5 72t-67.5 22q-49 0 -69.5 -22t-20.5 -72v-291z" />
<glyph unicode="e" horiz-adv-x="1306" d="M53 406v468q0 201 153.5 313.5t448.5 112.5q292 0 446 -112.5t154 -313.5v-335h-710v-99q0 -45 24.5 -64.5t83.5 -19.5q60 0 85.5 18.5t25.5 59.5v4h491v-55q0 -189 -156 -296t-448 -107q-294 0 -446 112t-152 314zM545 793h219v49q0 92 -109 92q-60 0 -85 -21t-25 -71 v-49z" />
<glyph unicode="f" horiz-adv-x="956" d="M29 860v369h161q15 192 146 282q130 86 428 86h164v-268h-15q-110 0 -154.5 -20.5t-56.5 -79.5h226v-369h-230v-860h-512v860h-157z" />
<glyph unicode="g" horiz-adv-x="1316" d="M49 567v307q0 202 152.5 314t447.5 112t447.5 -112t152.5 -314v-858q0 -220 -150.5 -329t-436.5 -109h-39q-257 0 -407 115t-150 323v33h471q0 -84 94 -84q110 0 110 74v162q-134 -49 -286 -49q-199 0 -302.5 108.5t-103.5 306.5zM561 594q0 -90 88 -90t88 90v188 q0 88 -88 88t-88 -88v-188z" />
<glyph unicode="h" horiz-adv-x="1351" d="M82 0v1577h512v-322q128 45 280 45q199 0 303.5 -110.5t104.5 -308.5v-881h-512v782q0 47 -20.5 67.5t-67.5 20.5q-49 0 -68.5 -20t-19.5 -68v-782h-512z" />
<glyph unicode="i" horiz-adv-x="675" d="M45 1536q0 69 39.5 108t108.5 39h296q69 0 108.5 -39t39.5 -108t-39.5 -108t-108.5 -39h-296q-69 0 -108.5 39t-39.5 108zM82 0v1280h512v-1280h-512z" />
<glyph unicode="j" horiz-adv-x="677" d="M-170 -145h47q110 0 158.5 44.5t48.5 143.5v1237h512v-1233q0 -211 -133 -336t-365 -125h-268v269zM45 1536q0 69 39.5 108t108.5 39h296q69 0 108.5 -39t39.5 -108t-39.5 -108t-108.5 -39h-296q-69 0 -108.5 39t-39.5 108z" />
<glyph unicode="k" horiz-adv-x="1361" d="M82 0v1577h512v-713h47l158 416h532l-250 -631l269 -649h-551l-168 465h-37v-465h-512z" />
<glyph unicode="l" horiz-adv-x="675" d="M82 0v1577h512v-1577h-512z" />
<glyph unicode="m" horiz-adv-x="2011" d="M70 0v874q0 202 131 314t385 112q291 0 420 -141q132 141 417 141q258 0 388.5 -110.5t130.5 -315.5v-874h-512v782q0 88 -84 88q-44 0 -64 -20.5t-20 -67.5v-782h-512v782q0 88 -86 88q-44 0 -63 -20.5t-19 -67.5v-782h-512z" />
<glyph unicode="n" horiz-adv-x="1333" d="M68 0v874q0 202 151.5 314t446.5 112q298 0 449 -111t151 -315v-874h-512v782q0 47 -20.5 67.5t-67.5 20.5t-66.5 -20t-19.5 -68v-782h-512z" />
<glyph unicode="o" horiz-adv-x="1304" d="M51 406v468q0 176 156 302q154 124 446 124q291 0 445 -124q155 -125 155 -302v-468q0 -178 -155 -300q-154 -124 -445 -124q-292 0 -446 124q-156 123 -156 300zM563 506q0 -51 20.5 -72.5t69.5 -21.5q47 0 67.5 22t20.5 72v268q0 51 -20.5 73.5t-67.5 22.5 q-49 0 -69.5 -22.5t-20.5 -73.5v-268z" />
<glyph unicode="p" horiz-adv-x="1323" d="M68 -401v1275q0 202 151.5 314t446.5 112q297 0 449.5 -112t152.5 -314v-477q0 -420 -447 -420q-141 0 -241 35v-413h-512zM580 483q0 -51 20.5 -73.5t67.5 -22.5q88 0 88 96v291q0 96 -88 96q-47 0 -67.5 -22.5t-20.5 -73.5v-291z" />
<glyph unicode="q" horiz-adv-x="1323" d="M55 397v477q0 202 151.5 314t446.5 112q297 0 449.5 -112t152.5 -314v-1275h-512v419q-84 -41 -227 -41q-461 0 -461 420zM567 483q0 -96 88 -96t88 96v291q0 96 -88 96t-88 -96v-291z" />
<glyph unicode="r" horiz-adv-x="839" d="M63 0v694q0 327 162 467q160 139 543 139h43v-430h-90q-78 0 -112 -33.5t-34 -107.5v-729h-512z" />
<glyph unicode="s" horiz-adv-x="1265" d="M35 334v72h491v-19q0 -52 22.5 -76t72.5 -24q96 0 96 82q0 32 -23 50.5t-69 29.5q-21 6 -76.5 14t-75.5 12q-78 13 -123.5 25.5t-105.5 40.5q-64 27 -101 67q-41 41 -67.5 107.5t-26.5 146.5v21q0 199 148.5 308t433.5 109q286 0 437 -96.5t151 -269.5v-76h-492v45 q0 74 -84 74q-82 0 -82 -74q0 -41 29 -59q37 -26 74 -33q46 -9 102 -16q27 -4 57 -9q160 -23 273 -88q133 -79 133 -264v-24q0 -204 -156 -316t-444 -112q-289 0 -441.5 92.5t-152.5 259.5z" />
<glyph unicode="t" horiz-adv-x="1026" d="M27 911v369h178v256h512v-256h254v-369h-254v-346q0 -74 41 -108.5t133 -34.5h80v-430h-330q-212 0 -324 123t-112 342v454h-178z" />
<glyph unicode="u" horiz-adv-x="1320" d="M68 406v874h512v-791q0 -81 79 -81q82 0 82 81v791h512v-874q0 -202 -150 -314t-441 -112q-296 0 -445 110.5t-149 315.5z" />
<glyph unicode="v" horiz-adv-x="1308" d="M12 1280h512l97 -662q23 -144 34 -272h4q9 88 33 272l92 662h512l-280 -1280h-713z" />
<glyph unicode="w" horiz-adv-x="1923" d="M14 1280h512l64 -657q12 -113 24 -265h9q3 36 12 134q1 12 10 131l60 657h512l63 -657q16 -161 25 -265h8q4 50 12 134q2 29 10 131l60 657h512l-240 -1280h-623l-59 541q-1 8 -14 190h-8q-3 -106 -13 -190l-57 -541h-629z" />
<glyph unicode="x" horiz-adv-x="1355" d="M10 0l338 633l-338 647h551l66 -172q39 -107 63 -188h4q19 59 66 190l63 170h520l-333 -637l336 -643h-551l-58 172q-60 183 -69 207h-9q-49 -139 -71 -209l-58 -170h-520z" />
<glyph unicode="y" horiz-adv-x="1347" d="M66 518v762h512v-623q0 -92 88 -92t88 92v623h512v-1272q0 -214 -151.5 -322t-436.5 -108h-43q-257 0 -407 113t-150 317v39h471q0 -84 94 -84q111 0 111 74v160q-115 -41 -236 -41q-225 0 -338.5 94t-113.5 268z" />
<glyph unicode="z" horiz-adv-x="1140" d="M49 0v348l266 361q109 146 142 182h-394v389h1016v-303l-272 -389q-82 -119 -143 -199h430v-389h-1045z" />
<glyph unicode="{" horiz-adv-x="1001" d="M33 477v389q103 1 149.5 42.5t46.5 127.5v78q0 224 173 353.5t485 129.5h76v-389h-54q-90 0 -142 -62t-52 -188v-24q0 -201 -189 -260q189 -59 189 -260v-15q0 -126 52 -187.5t142 -61.5h54v-390h-76q-312 0 -485 129t-173 353v65q0 86 -46.5 127.5t-149.5 42.5z" />
<glyph unicode="|" horiz-adv-x="716" d="M102 -401v1978h512v-1978h-512z" />
<glyph unicode="}" horiz-adv-x="1001" d="M39 150h53q90 0 142.5 61.5t52.5 187.5v15q0 201 188 260q-188 59 -188 260v24q0 126 -52.5 188t-142.5 62h-53v389h76q312 0 484.5 -128.5t172.5 -352.5v-76q0 -86 47 -127.5t150 -42.5v-389q-103 -1 -150 -42.5t-47 -127.5v-67q0 -224 -173 -354t-484 -130h-76v390z " />
<glyph unicode="~" d="M16 827q171 207 416 207q91 0 277 -61q183 -64 276 -64q67 0 119 21.5t139 83.5l172 -287q-169 -227 -418 -227q-103 0 -280 63q-183 62 -273 62q-66 0 -119 -18t-137 -66z" />
<glyph unicode="&#xa1;" horiz-adv-x="684" d="M63 1081q0 103 55.5 161t153.5 58h134q98 0 153 -58t55 -161q0 -104 -55 -161.5t-153 -57.5h-134q-99 0 -154 57.5t-55 161.5zM88 -256v1051h512v-1051h-512z" />
<glyph unicode="&#xa2;" horiz-adv-x="1261" d="M57 406v471q0 166 102 272.5t298 138.5v264h379v-268q184 -36 278 -140.5t94 -266.5v-168h-489v116q0 47 -18.5 67.5t-61.5 20.5t-61.5 -21.5t-18.5 -68.5v-360q0 -50 17.5 -71t60.5 -21q82 0 82 94v106h489v-165q0 -160 -94.5 -265t-277.5 -141v-309h-379v305 q-198 32 -299 137.5t-101 272.5z" />
<glyph unicode="&#xa3;" horiz-adv-x="1398" d="M55 532v287h125v262q0 207 150 342q148 133 434 133q266 0 416.5 -112.5t150.5 -306.5v-136h-493v21q0 104 -70 104q-74 0 -74 -104v-203h469v-287h-469v-143h656v-389h-1293v389h123v143h-125z" />
<glyph unicode="&#xa4;" horiz-adv-x="1366" d="M16 459l154 129q-35 90 -35 190v127q0 125 45 211l-164 137l222 234l190 -172q110 35 254 35q151 0 258 -37l190 174l220 -234l-166 -137q45 -86 45 -211v-127q0 -100 -35 -190l154 -129l-218 -236l-169 154q-113 -43 -279 -43t-279 43l-170 -154zM504 809q0 -88 42 -128 t136 -40t136 40t42 128v65q0 90 -42 129t-136 39t-136 -39t-42 -129v-65z" />
<glyph unicode="&#xa5;" horiz-adv-x="1509" d="M10 1536h535l145 -381q41 -107 68 -258h4q22 125 72 260l143 379h524l-250 -553h156v-287h-287l-98 -215h311v-286h-321v-195h-512v195h-322v286h311l-98 215h-287v287h156z" />
<glyph unicode="&#xa6;" horiz-adv-x="694" d="M90 -401v847h514v-847h-514zM90 731v846h514v-846h-514z" />
<glyph unicode="&#xa7;" horiz-adv-x="1431" d="M47 555v23q0 157 107 270q-58 73 -58 186v78q0 213 155 328.5t458 115.5q302 0 457 -99t155 -279v-113h-451v41q0 64 -37 93.5t-122 29.5q-164 0 -164 -113q0 -44 41 -67q51 -28 96 -37q85 -17 139 -23q48 -9 74 -12q159 -23 277 -76q68 -35 112 -76q46 -46 74.5 -115 t28.5 -151v-35q0 -137 -97 -248q47 -74 47 -170v-83q0 -212 -161.5 -328.5t-475.5 -116.5q-311 0 -472.5 100t-161.5 281v115h452v-41q0 -67 42 -97t138 -30q189 0 189 125q0 46 -32.5 70.5t-94.5 39.5q-56 13 -105 17q-13 1 -58 6t-58 6q-97 12 -153.5 23.5t-121.5 37.5 q-73 28 -114 66q-47 41 -76 107.5t-29 150.5zM449 635q0 -128 163 -146q88 -11 244 -26q15 -2 113 -19q8 13 8 41q0 77 -48 113.5t-155 48.5q-206 20 -311 41q-14 -20 -14 -53z" />
<glyph unicode="&#xa8;" horiz-adv-x="942" d="M45 1530q0 66 33.5 101.5t93.5 35.5h137q59 0 94 -35q33 -36 33 -102q0 -67 -33 -100q-34 -37 -94 -37h-137q-60 0 -93.5 35.5t-33.5 101.5zM510 1530q0 66 33.5 101.5t93.5 35.5h137q59 0 94 -35q33 -36 33 -102q0 -67 -33 -100q-34 -37 -94 -37h-137q-60 0 -93.5 35.5 t-33.5 101.5z" />
<glyph unicode="&#xa9;" horiz-adv-x="2078" d="M55 553v139q0 435 246 684q246 246 735 246q496 0 742 -246q245 -248 245 -684v-139q0 -436 -245 -684t-742 -248q-490 0 -735 248q-246 252 -246 684zM360 571q0 -348 160.5 -509.5t515.5 -161.5q360 0 521 161t161 510v103q0 352 -157 512q-160 160 -525 160 q-359 0 -517.5 -159t-158.5 -513v-103zM573 479v305q0 163 119 253.5t348 90.5q222 0 338.5 -91t116.5 -253v-92h-375v41q0 68 -80 68q-84 0 -84 -68v-201q0 -69 82 -69t82 72v36h375v-92q0 -164 -116.5 -254t-340.5 -90q-228 0 -346.5 90t-118.5 254z" />
<glyph unicode="&#xaa;" horiz-adv-x="831" d="M31 1020v2q0 197 274 197q59 0 156 -23v70q0 57 -49 57q-54 0 -54 -45h-303q0 150 77.5 214t262.5 64h72q158 0 239.5 -65t81.5 -184v-287q0 -258 -372 -258h-31q-163 0 -258.5 68t-95.5 190zM358 1001q0 -67 52 -67q51 0 51 67v19q0 67 -51 67q-52 0 -52 -67v-19z" />
<glyph unicode="&#xab;" horiz-adv-x="1738" d="M29 492v294l563 490l295 -266l-449 -371l449 -371l-295 -266zM866 492v294l564 490l294 -266l-448 -371l448 -371l-294 -266z" />
<glyph unicode="&#xac;" d="M174 555v410h1086v-611h-515v201h-571z" />
<glyph unicode="&#xad;" horiz-adv-x="0" />
<glyph unicode="&#xae;" horiz-adv-x="1785" d="M49 1053v110q0 380 214 588.5t630 208.5q417 0 630.5 -208.5t213.5 -588.5v-110q0 -380 -213.5 -588.5t-630.5 -208.5q-416 0 -630 208.5t-214 588.5zM319 1077q0 -297 135 -434t439 -137q305 0 440 137t135 434v62q0 301 -134 436t-441 135q-306 0 -440 -135t-134 -436 v-62zM524 690v846h410q181 0 273.5 -66.5t92.5 -187.5v-86q0 -75 -28.5 -122.5t-95.5 -82.5l135 -301h-316l-90 250h-78v-250h-303zM827 1149l86 -2q84 -3 84 70v2q0 69 -84 69h-86v-139z" />
<glyph unicode="&#xaf;" horiz-adv-x="942" d="M2 1405v287h936v-287h-936z" />
<glyph unicode="&#xb0;" horiz-adv-x="1036" d="M39 1022v164q0 176 121.5 273t357.5 97t357.5 -97t121.5 -273v-164q0 -176 -122 -273.5t-357 -97.5t-357 97.5t-122 273.5zM387 1055q0 -62 31 -89.5t100 -27.5t100 27.5t31 89.5v98q0 62 -31 89.5t-100 27.5t-100 -27.5t-31 -89.5v-98z" />
<glyph unicode="&#xb1;" d="M174 150v389h307v206h-307v390h307v268h471v-268h308v-390h-308v-206h308v-389h-1086z" />
<glyph unicode="&#xb2;" horiz-adv-x="872" d="M39 1192v72q0 138 97 215t290 77q197 0 299 -67.5t102 -188.5v-30q0 -82 -24 -132.5t-90 -107.5l-181 -160h287v-264h-770v230l357 280q58 45 73 66.5t15 52.5v12q0 47 -64 47q-36 0 -49.5 -15t-13.5 -52v-35h-328z" />
<glyph unicode="&#xb3;" horiz-adv-x="897" d="M35 866v45h295v-8q0 -43 92 -43q90 0 90 51q0 64 -150 64h-32v217h32q142 3 142 51q0 47 -82 47q-84 0 -84 -47v-14h-299v55q0 272 399 272q204 0 309 -71t105 -201v-4q0 -138 -143 -190q149 -55 149 -222v-2q0 -130 -107 -201t-315 -71q-401 0 -401 272z" />
<glyph unicode="&#xb4;" horiz-adv-x="942" d="M176 1391l291 311h553l-352 -311h-492z" />
<glyph unicode="&#xb5;" horiz-adv-x="1355" d="M90 -401v1681h512v-791q0 -81 84 -81q82 0 82 81v791h512v-879q0 -193 -131.5 -307t-357.5 -114q-107 0 -189 16v-397h-512z" />
<glyph unicode="&#xb6;" horiz-adv-x="1972" d="M41 872v183q0 238 174.5 369.5t511.5 131.5h1217v-389h-172v-1568h-451v1568h-143v-1568h-451v772q-337 0 -511.5 131.5t-174.5 369.5z" />
<glyph unicode="&#xb7;" horiz-adv-x="942" d="M186 690q0 104 55 161.5t154 57.5h133q99 0 154 -57.5t55 -161.5q0 -103 -55.5 -161t-153.5 -58h-133q-98 0 -153.5 58t-55.5 161z" />
<glyph unicode="&#xb8;" horiz-adv-x="942" d="M111 -297h206q134 0 134 57q0 60 -134 60h-145v248h401v-152q322 0 322 -156q0 -180 -406 -180h-378v123z" />
<glyph unicode="&#xb9;" horiz-adv-x="602" d="M25 1229v307h507v-979h-348v672h-159z" />
<glyph unicode="&#xba;" horiz-adv-x="839" d="M39 1040v281q0 110 101.5 183t279.5 73q177 0 279 -73t102 -183v-281q0 -110 -102 -182t-279 -72q-179 0 -280 72t-101 182zM367 1100q0 -31 11.5 -43.5t41.5 -12.5q53 0 53 56v162q0 57 -53 57q-30 0 -41.5 -13t-11.5 -44v-162z" />
<glyph unicode="&#xbb;" horiz-adv-x="1738" d="M14 268l449 371l-449 371l295 266l563 -490v-294l-563 -490zM852 268l448 371l-448 371l295 266l563 -490v-294l-563 -490z" />
<glyph unicode="&#xbc;" horiz-adv-x="2222" d="M23 1229v307h507v-979h-348v672h-159zM338 0l979 1577h409l-978 -1577h-410zM1278 152v213l444 573h332v-549h148v-237h-148v-152h-297v152h-479zM1604 389h153v227z" />
<glyph unicode="&#xbd;" horiz-adv-x="2260" d="M23 1229v307h507v-979h-348v672h-159zM340 0l979 1577h410l-979 -1577h-410zM1432 586v71q0 138 97 215.5t290 77.5q197 0 299 -67.5t102 -188.5v-30q0 -81 -24.5 -132t-90.5 -108l-180 -160h287v-264h-770v229l356 281q58 45 73 66.5t15 52.5v12q0 47 -63 47 q-36 0 -50 -15t-14 -52v-35h-327z" />
<glyph unicode="&#xbe;" horiz-adv-x="2443" d="M33 866v45h295v-8q0 -43 92 -43q90 0 90 51q0 64 -150 64h-32v217h32q142 3 142 51q0 47 -82 47q-84 0 -84 -47v-14h-299v55q0 272 399 272q204 0 309 -71t105 -201v-4q0 -138 -143 -190q149 -55 149 -222v-2q0 -130 -107 -201t-315 -71q-401 0 -401 272zM559 0l979 1577 h410l-979 -1577h-410zM1499 152v213l445 573h331v-549h148v-237h-148v-152h-297v152h-479zM1825 389h153v227z" />
<glyph unicode="&#xbf;" horiz-adv-x="1255" d="M27 164v12q-1 63 16 119t39.5 93.5t61.5 76.5t65.5 59t69.5 49q135 100 135 203v19h506v-11q0 -75 -21 -136.5t-54.5 -102t-74 -74t-81.5 -58.5t-74.5 -48t-54.5 -50t-21 -57v-14q0 -90 96 -90q55 0 78.5 26t23.5 84v55h494v-53q0 -256 -131 -399t-453 -143 q-304 0 -462 116t-158 324zM387 1081q0 103 55.5 161t153.5 58h133q98 0 153.5 -58t55.5 -161q0 -104 -55 -161.5t-154 -57.5h-133q-99 0 -154 57.5t-55 161.5z" />
<glyph unicode="&#xc0;" horiz-adv-x="1507" d="M86 0v1034q0 248 170.5 385t497.5 137q328 0 497.5 -136.5t169.5 -385.5v-1034h-514v367h-307v-367h-514zM233 1958h553l291 -311h-491zM600 797h307v178q0 79 -36 115t-117 36t-117.5 -36t-36.5 -115v-178z" />
<glyph unicode="&#xc1;" horiz-adv-x="1507" d="M86 0v1034q0 248 170.5 385t497.5 137q328 0 497.5 -136.5t169.5 -385.5v-1034h-514v367h-307v-367h-514zM459 1647l291 311h553l-353 -311h-491zM600 797h307v178q0 79 -36 115t-117 36t-117.5 -36t-36.5 -115v-178z" />
<glyph unicode="&#xc2;" horiz-adv-x="1507" d="M86 0v1034q0 248 170.5 385t497.5 137q328 0 497.5 -136.5t169.5 -385.5v-1034h-514v367h-307v-367h-514zM180 1647l291 311h571l291 -311h-471l-104 127l-107 -127h-471zM600 797h307v178q0 79 -36 115t-117 36t-117.5 -36t-36.5 -115v-178z" />
<glyph unicode="&#xc3;" horiz-adv-x="1507" d="M86 0v1034q0 248 170.5 385t497.5 137q328 0 497.5 -136.5t169.5 -385.5v-1034h-514v367h-307v-367h-514zM221 1792q75 111 146 155t157 44q92 0 217 -45q122 -45 179 -45q76 0 139 84l217 -173q-75 -111 -146 -154.5t-157 -43.5q-93 0 -215 45q-125 45 -178 45 q-79 0 -142 -84zM600 797h307v178q0 79 -36 115t-117 36t-117.5 -36t-36.5 -115v-178z" />
<glyph unicode="&#xc4;" horiz-adv-x="1507" d="M86 0v1034q0 248 170.5 385t497.5 137q328 0 497.5 -136.5t169.5 -385.5v-1034h-514v367h-307v-367h-514zM328 1786q0 66 33.5 101.5t93.5 35.5h137q59 0 94 -35q33 -36 33 -102q0 -67 -33 -100q-34 -37 -94 -37h-137q-60 0 -93.5 35.5t-33.5 101.5zM600 797h307v178 q0 79 -36 115t-117 36t-117.5 -36t-36.5 -115v-178zM793 1786q0 66 33.5 101.5t93.5 35.5h137q59 0 94 -35q33 -36 33 -102q0 -67 -33 -100q-34 -37 -94 -37h-137q-60 0 -93.5 35.5t-33.5 101.5z" />
<glyph unicode="&#xc5;" horiz-adv-x="1507" d="M86 0v1034q0 248 170.5 385t497.5 137q328 0 497.5 -136.5t169.5 -385.5v-1034h-514v367h-307v-367h-514zM403 1923v23q0 141 90 219t261 78t260.5 -78t89.5 -219v-23q0 -141 -88 -217q-89 -80 -262 -80t-262 80q-89 77 -89 217zM600 797h307v178q0 79 -36 115t-117 36 t-117.5 -36t-36.5 -115v-178zM680 1929q0 -38 21 -63t53 -25q34 0 53.5 24.5t19.5 63.5v10q0 89 -73 89q-33 0 -53.5 -24t-20.5 -65v-10z" />
<glyph unicode="&#xc6;" horiz-adv-x="1976" d="M88 0v1096q0 208 171 324t497 116h1124v-420h-469v-158h375v-368h-375v-170h516v-420h-1018v367h-307v-367h-514zM602 786h307v330h-153q-83 0 -118.5 -26t-35.5 -84v-220z" />
<glyph unicode="&#xc7;" horiz-adv-x="1425" d="M68 502v532q0 249 166.5 385.5t488.5 136.5q316 0 479.5 -136.5t163.5 -385.5v-155h-504v120q0 107 -139 107q-75 0 -108 -33t-33 -106v-398q0 -73 33 -106t108 -33q73 0 106 26.5t33 82.5v120h504v-157q0 -205 -113 -335t-333 -171v-80q280 0 280 -156q0 -180 -364 -180 h-379v123h166q133 0 133 57q0 60 -133 60h-105v176q-223 41 -336.5 171t-113.5 335z" />
<glyph unicode="&#xc8;" horiz-adv-x="1271" d="M102 0v1536h1074v-420h-570v-158h475v-368h-475v-170h617v-420h-1121zM117 1958h553l291 -311h-492z" />
<glyph unicode="&#xc9;" horiz-adv-x="1271" d="M102 0v1536h1074v-420h-570v-158h475v-368h-475v-170h617v-420h-1121zM342 1647l291 311h553l-352 -311h-492z" />
<glyph unicode="&#xca;" horiz-adv-x="1271" d="M63 1647l291 311h572l291 -311h-472l-104 127l-106 -127h-472zM102 0v1536h1074v-420h-570v-158h475v-368h-475v-170h617v-420h-1121z" />
<glyph unicode="&#xcb;" horiz-adv-x="1271" d="M102 0v1536h1074v-420h-570v-158h475v-368h-475v-170h617v-420h-1121zM211 1786q0 66 33.5 101.5t93.5 35.5h137q59 0 94 -35q33 -36 33 -102q0 -67 -33 -100q-34 -37 -94 -37h-137q-60 0 -93.5 35.5t-33.5 101.5zM676 1786q0 66 33.5 101.5t93.5 35.5h137q59 0 94 -35 q33 -36 33 -102q0 -67 -33 -100q-34 -37 -94 -37h-137q-60 0 -93.5 35.5t-33.5 101.5z" />
<glyph unicode="&#xcc;" horiz-adv-x="718" d="M-244 1958h553l291 -311h-491zM102 0v1536h514v-1536h-514z" />
<glyph unicode="&#xcd;" horiz-adv-x="718" d="M102 0v1536h514v-1536h-514zM109 1647l290 311h553l-352 -311h-491z" />
<glyph unicode="&#xce;" horiz-adv-x="718" d="M-215 1647l291 311h571l291 -311h-471l-105 127l-106 -127h-471zM102 0v1536h514v-1536h-514z" />
<glyph unicode="&#xcf;" horiz-adv-x="718" d="M-68 1786q0 66 33.5 101.5t93.5 35.5h138q59 0 94 -35q33 -36 33 -102q0 -67 -33 -100q-34 -37 -94 -37h-138q-60 0 -93.5 35.5t-33.5 101.5zM102 0v1536h514v-1536h-514zM397 1786q0 66 33.5 101.5t93.5 35.5h138q59 0 94 -35q32 -35 32 -102q0 -68 -32 -100 q-34 -37 -94 -37h-138q-60 0 -93.5 35.5t-33.5 101.5z" />
<glyph unicode="&#xd0;" horiz-adv-x="1533" d="M31 596v369h108v571h664q327 0 497 -137t170 -385v-492q0 -248 -170 -385t-497 -137h-664v596h-108zM653 451h150q81 0 117 32.5t36 104.5v360q0 72 -36 104.5t-117 32.5h-150v-120h170v-369h-170v-145z" />
<glyph unicode="&#xd1;" horiz-adv-x="1540" d="M102 0v1536h523l385 -807q-40 286 -43 637l-2 170h493v-1536h-522l-397 858q46 -324 55 -727l2 -131h-494zM238 1792q75 111 146 155t157 44q92 0 217 -45q122 -45 178 -45q76 0 139 84l217 -173q-75 -111 -146 -154.5t-157 -43.5q-93 0 -215 45q-125 45 -178 45 q-78 0 -141 -84z" />
<glyph unicode="&#xd2;" horiz-adv-x="1484" d="M66 502v532q0 248 171.5 385t503.5 137q333 0 505.5 -137t172.5 -385v-532q0 -248 -172.5 -385t-505.5 -137q-332 0 -503.5 137t-171.5 385zM223 1958h553l291 -311h-492zM580 565q0 -70 37.5 -102.5t123.5 -32.5q87 0 125.5 32.5t38.5 102.5v406q0 70 -38.5 102.5 t-125.5 32.5q-86 0 -123.5 -32.5t-37.5 -102.5v-406z" />
<glyph unicode="&#xd3;" horiz-adv-x="1484" d="M66 502v532q0 248 171.5 385t503.5 137q333 0 505.5 -137t172.5 -385v-532q0 -248 -172.5 -385t-505.5 -137q-332 0 -503.5 137t-171.5 385zM449 1647l290 311h553l-352 -311h-491zM580 565q0 -70 37.5 -102.5t123.5 -32.5q87 0 125.5 32.5t38.5 102.5v406 q0 70 -38.5 102.5t-125.5 32.5q-86 0 -123.5 -32.5t-37.5 -102.5v-406z" />
<glyph unicode="&#xd4;" horiz-adv-x="1484" d="M66 502v532q0 248 171.5 385t503.5 137q333 0 505.5 -137t172.5 -385v-532q0 -248 -172.5 -385t-505.5 -137q-332 0 -503.5 137t-171.5 385zM170 1647l291 311h571l291 -311h-471l-104 127l-107 -127h-471zM580 565q0 -70 37.5 -102.5t123.5 -32.5q87 0 125.5 32.5 t38.5 102.5v406q0 70 -38.5 102.5t-125.5 32.5q-86 0 -123.5 -32.5t-37.5 -102.5v-406z" />
<glyph unicode="&#xd5;" horiz-adv-x="1484" d="M66 502v532q0 248 171.5 385t503.5 137q333 0 505.5 -137t172.5 -385v-532q0 -248 -172.5 -385t-505.5 -137q-332 0 -503.5 137t-171.5 385zM211 1792q75 111 146 155t157 44q92 0 217 -45q122 -45 178 -45q77 0 140 84l217 -173q-75 -111 -146 -154.5t-157 -43.5 q-93 0 -215 45q-125 45 -179 45q-78 0 -141 -84zM580 565q0 -70 37.5 -102.5t123.5 -32.5q87 0 125.5 32.5t38.5 102.5v406q0 70 -38.5 102.5t-125.5 32.5q-86 0 -123.5 -32.5t-37.5 -102.5v-406z" />
<glyph unicode="&#xd6;" horiz-adv-x="1484" d="M66 502v532q0 248 171.5 385t503.5 137q333 0 505.5 -137t172.5 -385v-532q0 -248 -172.5 -385t-505.5 -137q-332 0 -503.5 137t-171.5 385zM317 1786q0 66 33.5 101.5t93.5 35.5h138q59 0 94 -35q33 -36 33 -102q0 -67 -33 -100q-34 -37 -94 -37h-138q-60 0 -93.5 35.5 t-33.5 101.5zM580 565q0 -70 37.5 -102.5t123.5 -32.5q87 0 125.5 32.5t38.5 102.5v406q0 70 -38.5 102.5t-125.5 32.5q-86 0 -123.5 -32.5t-37.5 -102.5v-406zM782 1786q0 66 33.5 101.5t93.5 35.5h138q59 0 94 -35q33 -36 33 -102q0 -67 -33 -100q-34 -37 -94 -37h-138 q-60 0 -93.5 35.5t-33.5 101.5z" />
<glyph unicode="&#xd7;" d="M68 532l288 224l-270 209l252 295l311 -267l309 269l248 -295l-266 -207l289 -228l-254 -294l-330 286l-328 -286z" />
<glyph unicode="&#xd8;" horiz-adv-x="1484" d="M66 502v532q0 248 171.5 385t503.5 137q143 0 254 -24l68 125h297l-123 -230q182 -138 182 -393v-532q0 -248 -172.5 -385t-505.5 -137q-142 0 -266 28l-59 -110h-299l119 221q-170 138 -170 383zM559 721l240 442q-50 4 -58 4q-97 0 -139.5 -32.5t-42.5 -102.5v-311z M672 375q30 -6 69 -6q98 0 141.5 32.5t43.5 102.5v344z" />
<glyph unicode="&#xd9;" horiz-adv-x="1515" d="M84 502v1034h514v-948q0 -83 37.5 -120.5t122.5 -37.5t122.5 37.5t37.5 120.5v948h514v-1034q0 -249 -171 -385.5t-503 -136.5t-503 136.5t-171 385.5zM238 1958h553l290 -311h-491z" />
<glyph unicode="&#xda;" horiz-adv-x="1515" d="M84 502v1034h514v-948q0 -83 37.5 -120.5t122.5 -37.5t122.5 37.5t37.5 120.5v948h514v-1034q0 -249 -171 -385.5t-503 -136.5t-503 136.5t-171 385.5zM463 1647l291 311h553l-353 -311h-491z" />
<glyph unicode="&#xdb;" horiz-adv-x="1515" d="M84 502v1034h514v-948q0 -83 37.5 -120.5t122.5 -37.5t122.5 37.5t37.5 120.5v948h514v-1034q0 -249 -171 -385.5t-503 -136.5t-503 136.5t-171 385.5zM184 1647l291 311h572l290 -311h-471l-104 127l-107 -127h-471z" />
<glyph unicode="&#xdc;" horiz-adv-x="1515" d="M84 502v1034h514v-948q0 -83 37.5 -120.5t122.5 -37.5t122.5 37.5t37.5 120.5v948h514v-1034q0 -249 -171 -385.5t-503 -136.5t-503 136.5t-171 385.5zM332 1786q0 66 33.5 101.5t93.5 35.5h137q59 0 94 -35q33 -36 33 -102q0 -67 -33 -100q-34 -37 -94 -37h-137 q-60 0 -93.5 35.5t-33.5 101.5zM797 1786q0 66 33.5 101.5t93.5 35.5h137q59 0 94 -35q33 -36 33 -102q0 -67 -33 -100q-34 -37 -94 -37h-137q-60 0 -93.5 35.5t-33.5 101.5z" />
<glyph unicode="&#xdd;" horiz-adv-x="1507" d="M8 1536h535l147 -381q46 -115 66 -233h4q19 112 67 235l148 379h524l-489 -1079v-457h-512v457zM457 1647l291 311h552l-352 -311h-491z" />
<glyph unicode="&#xde;" horiz-adv-x="1468" d="M102 0v1536h514v-205h142q331 0 502.5 -118.5t171.5 -333.5v-142q0 -213 -148 -331.5t-436 -118.5h-232v-287h-514zM616 676h150q81 0 116.5 24t35.5 76v66q0 52 -35.5 76t-116.5 24h-150v-266z" />
<glyph unicode="&#xdf;" horiz-adv-x="1476" d="M29 860v369h133q25 176 180.5 272t435.5 96q301 0 452.5 -114.5t151.5 -325.5v-33q0 -219 -170 -311q116 -36 176 -136t60 -243v-14q0 -207 -139.5 -323.5t-403.5 -116.5h-149v389h49q68 0 98.5 24.5t30.5 79.5v19q0 56 -34 80t-112 24h-38v373h18q100 0 100 127 q0 112 -96 112q-102 0 -102 -174v-1034h-512v860h-129z" />
<glyph unicode="&#xe0;" horiz-adv-x="1277" d="M29 408v2q0 327 463 327q133 0 221 -18v96q0 96 -84 96q-49 0 -68.5 -17t-19.5 -56h-471q0 248 129 356q127 106 436 106h51q265 0 402 -108.5t137 -306.5v-475q0 -214 -151.5 -322t-436.5 -108h-51q-256 0 -406.5 113.5t-150.5 314.5zM119 1702h553l291 -311h-492z M541 379q0 -113 86 -113q47 0 66.5 26t19.5 87v29q0 58 -19.5 84t-66.5 26q-86 0 -86 -110v-29z" />
<glyph unicode="&#xe1;" horiz-adv-x="1277" d="M29 408v2q0 327 463 327q133 0 221 -18v96q0 96 -84 96q-49 0 -68.5 -17t-19.5 -56h-471q0 248 129 356q127 106 436 106h51q265 0 402 -108.5t137 -306.5v-475q0 -214 -151.5 -322t-436.5 -108h-51q-256 0 -406.5 113.5t-150.5 314.5zM344 1391l291 311h553l-352 -311 h-492zM541 379q0 -113 86 -113q47 0 66.5 26t19.5 87v29q0 58 -19.5 84t-66.5 26q-86 0 -86 -110v-29z" />
<glyph unicode="&#xe2;" horiz-adv-x="1277" d="M29 408v2q0 327 463 327q133 0 221 -18v96q0 96 -84 96q-49 0 -68.5 -17t-19.5 -56h-471q0 248 129 356q127 106 436 106h51q265 0 402 -108.5t137 -306.5v-475q0 -214 -151.5 -322t-436.5 -108h-51q-256 0 -406.5 113.5t-150.5 314.5zM66 1391l290 311h572l291 -311 h-471l-105 127l-106 -127h-471zM541 379q0 -113 86 -113q47 0 66.5 26t19.5 87v29q0 58 -19.5 84t-66.5 26q-86 0 -86 -110v-29z" />
<glyph unicode="&#xe3;" horiz-adv-x="1277" d="M29 408v2q0 327 463 327q133 0 221 -18v96q0 96 -84 96q-49 0 -68.5 -17t-19.5 -56h-471q0 248 129 356q127 106 436 106h51q265 0 402 -108.5t137 -306.5v-475q0 -214 -151.5 -322t-436.5 -108h-51q-256 0 -406.5 113.5t-150.5 314.5zM106 1536q75 111 146.5 155 t157.5 44q92 0 217 -45q122 -45 178 -45q76 0 139 84l217 -173q-75 -111 -146 -154.5t-157 -43.5q-93 0 -215 45q-125 45 -178 45q-78 0 -141 -84zM541 379q0 -113 86 -113q47 0 66.5 26t19.5 87v29q0 58 -19.5 84t-66.5 26q-86 0 -86 -110v-29z" />
<glyph unicode="&#xe4;" horiz-adv-x="1277" d="M29 408v2q0 327 463 327q133 0 221 -18v96q0 96 -84 96q-49 0 -68.5 -17t-19.5 -56h-471q0 248 129 356q127 106 436 106h51q265 0 402 -108.5t137 -306.5v-475q0 -214 -151.5 -322t-436.5 -108h-51q-256 0 -406.5 113.5t-150.5 314.5zM213 1530q0 66 33.5 101.5 t93.5 35.5h137q59 0 94 -35q33 -36 33 -102q0 -67 -33 -100q-34 -37 -94 -37h-137q-60 0 -93.5 35.5t-33.5 101.5zM541 379q0 -113 86 -113q47 0 66.5 26t19.5 87v29q0 58 -19.5 84t-66.5 26q-86 0 -86 -110v-29zM678 1530q0 66 33.5 101.5t93.5 35.5h137q59 0 94 -35 q33 -36 33 -102q0 -67 -33 -100q-34 -37 -94 -37h-137q-60 0 -93.5 35.5t-33.5 101.5z" />
<glyph unicode="&#xe5;" horiz-adv-x="1277" d="M29 408v2q0 327 463 327q133 0 221 -18v96q0 96 -84 96q-49 0 -68.5 -17t-19.5 -56h-471q0 248 129 356q127 106 436 106h51q265 0 402 -108.5t137 -306.5v-475q0 -214 -151.5 -322t-436.5 -108h-51q-256 0 -406.5 113.5t-150.5 314.5zM289 1667v23q0 141 89.5 219 t260.5 78t260.5 -78t89.5 -219v-23q0 -141 -88 -217q-89 -80 -262 -80t-262 80q-88 76 -88 217zM541 379q0 -113 86 -113q47 0 66.5 26t19.5 87v29q0 58 -19.5 84t-66.5 26q-86 0 -86 -110v-29zM565 1673q0 -38 21 -63t53 -25q35 0 54.5 24.5t19.5 63.5v10q0 89 -74 89 q-33 0 -53.5 -24t-20.5 -65v-10z" />
<glyph unicode="&#xe6;" horiz-adv-x="1947" d="M29 397v4q0 157 106 242.5t318 85.5q151 0 260 -31v117q0 96 -84 96q-49 0 -68.5 -17t-19.5 -56h-471q0 245 120.5 353.5t391.5 108.5q241 0 387 -122q113 122 374 122t407 -114.5t146 -311.5v-335h-710v-99q0 -45 24.5 -64.5t83.5 -19.5q111 0 111 50v32h491v-55 q0 -189 -156 -296t-448 -107q-212 0 -317 114q-144 -117 -359 -117h-30q-257 0 -407 110.5t-150 309.5zM541 381q0 -113 86 -113q47 0 66.5 26t19.5 87v31q0 58 -19.5 84t-66.5 26q-86 0 -86 -110v-31zM1186 793h219v69q0 72 -109 72q-59 0 -84.5 -17.5t-25.5 -54.5v-69z " />
<glyph unicode="&#xe7;" horiz-adv-x="1249" d="M53 406v471q0 201 149 313.5t433 112.5q278 0 423.5 -112.5t145.5 -313.5v-148h-489v66q0 42 -18 59.5t-62 17.5q-43 0 -61.5 -18t-18.5 -61v-299q0 -43 18 -62.5t60 -19.5q82 0 82 84v55h489v-145q0 -161 -95.5 -266.5t-279.5 -141.5v-82q281 0 281 -156 q0 -180 -365 -180h-378v123h165q134 0 134 57q0 60 -134 60h-104v180q-184 36 -279.5 141t-95.5 265z" />
<glyph unicode="&#xe8;" horiz-adv-x="1306" d="M53 406v468q0 201 153.5 313.5t448.5 112.5q292 0 446 -112.5t154 -313.5v-335h-710v-99q0 -45 24.5 -64.5t83.5 -19.5q60 0 85.5 18.5t25.5 59.5v4h491v-55q0 -189 -156 -296t-448 -107q-294 0 -446 112t-152 314zM133 1702h553l291 -311h-492zM545 793h219v49 q0 92 -109 92q-60 0 -85 -21t-25 -71v-49z" />
<glyph unicode="&#xe9;" horiz-adv-x="1306" d="M53 406v468q0 201 153.5 313.5t448.5 112.5q292 0 446 -112.5t154 -313.5v-335h-710v-99q0 -45 24.5 -64.5t83.5 -19.5q60 0 85.5 18.5t25.5 59.5v4h491v-55q0 -189 -156 -296t-448 -107q-294 0 -446 112t-152 314zM358 1391l291 311h553l-352 -311h-492zM545 793h219v49 q0 92 -109 92q-60 0 -85 -21t-25 -71v-49z" />
<glyph unicode="&#xea;" horiz-adv-x="1306" d="M53 406v468q0 201 153.5 313.5t448.5 112.5q292 0 446 -112.5t154 -313.5v-335h-710v-99q0 -45 24.5 -64.5t83.5 -19.5q60 0 85.5 18.5t25.5 59.5v4h491v-55q0 -189 -156 -296t-448 -107q-294 0 -446 112t-152 314zM80 1391l291 311h571l291 -311h-471l-105 127 l-106 -127h-471zM545 793h219v49q0 92 -109 92q-60 0 -85 -21t-25 -71v-49z" />
<glyph unicode="&#xeb;" horiz-adv-x="1306" d="M53 406v468q0 201 153.5 313.5t448.5 112.5q292 0 446 -112.5t154 -313.5v-335h-710v-99q0 -45 24.5 -64.5t83.5 -19.5q60 0 85.5 18.5t25.5 59.5v4h491v-55q0 -189 -156 -296t-448 -107q-294 0 -446 112t-152 314zM227 1530q0 66 33.5 101.5t93.5 35.5h138q59 0 94 -35 q32 -35 32 -102q0 -68 -32 -100q-34 -37 -94 -37h-138q-60 0 -93.5 35.5t-33.5 101.5zM545 793h219v49q0 92 -109 92q-60 0 -85 -21t-25 -71v-49zM692 1530q0 66 33.5 101.5t93.5 35.5h137q60 0 95 -35q32 -35 32 -102q0 -68 -32 -100q-34 -37 -95 -37h-137 q-60 0 -93.5 35.5t-33.5 101.5z" />
<glyph unicode="&#xec;" horiz-adv-x="675" d="M-264 1702h553l291 -311h-492zM82 0v1280h512v-1280h-512z" />
<glyph unicode="&#xed;" horiz-adv-x="675" d="M80 1391l291 311h553l-353 -311h-491zM82 0v1280h512v-1280h-512z" />
<glyph unicode="&#xee;" horiz-adv-x="675" d="M-236 1391l291 311h572l291 -311h-472l-104 127l-106 -127h-472zM82 0v1280h512v-1280h-512z" />
<glyph unicode="&#xef;" horiz-adv-x="675" d="M-88 1530q0 66 33.5 101.5t93.5 35.5h137q59 0 94 -35q33 -36 33 -102q0 -67 -33 -100q-34 -37 -94 -37h-137q-60 0 -93.5 35.5t-33.5 101.5zM82 0v1280h512v-1280h-512zM377 1530q0 66 33.5 101.5t93.5 35.5h137q59 0 94 -35q33 -36 33 -102q0 -67 -33 -100 q-34 -37 -94 -37h-137q-60 0 -93.5 35.5t-33.5 101.5z" />
<glyph unicode="&#xf0;" horiz-adv-x="1288" d="M27 393v60q0 176 110.5 271t331.5 95q118 0 250 -24v20q0 43 -53 146l-224 -97v252l99 45q-109 159 -150 223l328 213q120 -126 213 -260l338 152v-270l-211 -91q168 -314 168 -575v-10q0 -561 -600 -561q-295 0 -447.5 108t-152.5 303zM537 381q0 -113 86 -113 q47 0 66.5 26t19.5 87v61q0 58 -20 84.5t-66 26.5q-86 0 -86 -111v-61z" />
<glyph unicode="&#xf1;" horiz-adv-x="1333" d="M68 0v874q0 202 151.5 314t446.5 112q298 0 449 -111t151 -315v-874h-512v782q0 47 -20.5 67.5t-67.5 20.5t-66.5 -20t-19.5 -68v-782h-512zM135 1536q75 111 146 155t157 44q92 0 217 -45q122 -45 179 -45q76 0 139 84l217 -173q-75 -111 -146 -154.5t-157 -43.5 q-93 0 -215 45q-125 45 -178 45q-79 0 -142 -84z" />
<glyph unicode="&#xf2;" horiz-adv-x="1304" d="M51 406v468q0 176 156 302q154 124 446 124q291 0 445 -124q155 -125 155 -302v-468q0 -178 -155 -300q-154 -124 -445 -124q-292 0 -446 124q-156 123 -156 300zM133 1702h553l291 -311h-492zM563 506q0 -51 20.5 -72.5t69.5 -21.5q47 0 67.5 22t20.5 72v268 q0 51 -20.5 73.5t-67.5 22.5q-49 0 -69.5 -22.5t-20.5 -73.5v-268z" />
<glyph unicode="&#xf3;" horiz-adv-x="1304" d="M51 406v468q0 176 156 302q154 124 446 124q291 0 445 -124q155 -125 155 -302v-468q0 -178 -155 -300q-154 -124 -445 -124q-292 0 -446 124q-156 123 -156 300zM358 1391l291 311h553l-352 -311h-492zM563 506q0 -51 20.5 -72.5t69.5 -21.5q47 0 67.5 22t20.5 72v268 q0 51 -20.5 73.5t-67.5 22.5q-49 0 -69.5 -22.5t-20.5 -73.5v-268z" />
<glyph unicode="&#xf4;" horiz-adv-x="1304" d="M51 406v468q0 176 156 302q154 124 446 124q291 0 445 -124q155 -125 155 -302v-468q0 -178 -155 -300q-154 -124 -445 -124q-292 0 -446 124q-156 123 -156 300zM80 1391l291 311h571l291 -311h-471l-105 127l-106 -127h-471zM563 506q0 -51 20.5 -72.5t69.5 -21.5 q47 0 67.5 22t20.5 72v268q0 51 -20.5 73.5t-67.5 22.5q-49 0 -69.5 -22.5t-20.5 -73.5v-268z" />
<glyph unicode="&#xf5;" horiz-adv-x="1304" d="M51 406v468q0 176 156 302q154 124 446 124q291 0 445 -124q155 -125 155 -302v-468q0 -178 -155 -300q-154 -124 -445 -124q-292 0 -446 124q-156 123 -156 300zM121 1536q75 111 146 155t157 44q92 0 217 -45q122 -45 178 -45q76 0 139 84l218 -173q-75 -110 -146 -154 t-158 -44q-93 0 -215 45q-125 45 -178 45q-78 0 -141 -84zM563 506q0 -51 20.5 -72.5t69.5 -21.5q47 0 67.5 22t20.5 72v268q0 51 -20.5 73.5t-67.5 22.5q-49 0 -69.5 -22.5t-20.5 -73.5v-268z" />
<glyph unicode="&#xf6;" horiz-adv-x="1304" d="M51 406v468q0 176 156 302q154 124 446 124q291 0 445 -124q155 -125 155 -302v-468q0 -178 -155 -300q-154 -124 -445 -124q-292 0 -446 124q-156 123 -156 300zM227 1530q0 66 33.5 101.5t93.5 35.5h138q59 0 94 -35q32 -35 32 -102q0 -68 -32 -100q-34 -37 -94 -37 h-138q-60 0 -93.5 35.5t-33.5 101.5zM563 506q0 -51 20.5 -72.5t69.5 -21.5q47 0 67.5 22t20.5 72v268q0 51 -20.5 73.5t-67.5 22.5q-49 0 -69.5 -22.5t-20.5 -73.5v-268zM692 1530q0 66 33.5 101.5t93.5 35.5h137q60 0 95 -35q32 -35 32 -102q0 -68 -32 -100 q-34 -37 -95 -37h-137q-60 0 -93.5 35.5t-33.5 101.5z" />
<glyph unicode="&#xf7;" d="M174 555v410h1086v-410h-1086zM432 244q0 104 55 161.5t154 57.5h133q99 0 154 -57.5t55 -161.5q0 -103 -55.5 -161t-153.5 -58h-133q-98 0 -153.5 58t-55.5 161zM432 1276q0 104 55 161.5t154 57.5h133q99 0 154 -57.5t55 -161.5q0 -103 -55.5 -161t-153.5 -58h-133 q-98 0 -153.5 58t-55.5 161z" />
<glyph unicode="&#xf8;" horiz-adv-x="1302" d="M59 336v608q0 169 151 262.5t441 93.5q124 0 223 -18l58 100h309l-115 -200q117 -88 117 -238v-608q0 -168 -151.5 -261t-440.5 -93q-108 0 -209 14l-59 -102h-311l114 196q-127 89 -127 246zM469 582l215 370h-33q-98 0 -140 -20.5t-42 -67.5v-282zM635 330h16 q98 0 140.5 20.5t42.5 67.5v258z" />
<glyph unicode="&#xf9;" horiz-adv-x="1320" d="M68 406v874h512v-791q0 -81 79 -81q82 0 82 81v791h512v-874q0 -202 -150 -314t-441 -112q-296 0 -445 110.5t-149 315.5zM141 1702h553l291 -311h-491z" />
<glyph unicode="&#xfa;" horiz-adv-x="1320" d="M68 406v874h512v-791q0 -81 79 -81q82 0 82 81v791h512v-874q0 -202 -150 -314t-441 -112q-296 0 -445 110.5t-149 315.5zM367 1391l290 311h553l-352 -311h-491z" />
<glyph unicode="&#xfb;" horiz-adv-x="1320" d="M68 406v874h512v-791q0 -81 79 -81q82 0 82 81v791h512v-874q0 -202 -150 -314t-441 -112q-296 0 -445 110.5t-149 315.5zM88 1391l291 311h571l291 -311h-471l-104 127l-107 -127h-471z" />
<glyph unicode="&#xfc;" horiz-adv-x="1320" d="M68 406v874h512v-791q0 -81 79 -81q82 0 82 81v791h512v-874q0 -202 -150 -314t-441 -112q-296 0 -445 110.5t-149 315.5zM236 1530q0 66 33 101.5t93 35.5h138q59 0 94 -35q33 -36 33 -102q0 -67 -33 -100q-34 -37 -94 -37h-138q-60 0 -93 35.5t-33 101.5zM700 1530 q0 66 33.5 101.5t93.5 35.5h138q59 0 94 -35q33 -36 33 -102q0 -67 -33 -100q-34 -37 -94 -37h-138q-60 0 -93.5 35.5t-33.5 101.5z" />
<glyph unicode="&#xfd;" horiz-adv-x="1347" d="M66 518v762h512v-623q0 -92 88 -92t88 92v623h512v-1272q0 -214 -151.5 -322t-436.5 -108h-43q-257 0 -407 113t-150 317v39h471q0 -84 94 -84q111 0 111 74v160q-115 -41 -236 -41q-225 0 -338.5 94t-113.5 268zM379 1391l291 311h553l-353 -311h-491z" />
<glyph unicode="&#xfe;" horiz-adv-x="1339" d="M82 -403v1980h512v-309q96 35 283 35q198 0 301.5 -111t103.5 -309v-486q0 -198 -103.5 -309t-301.5 -111q-187 0 -283 35v-415h-512zM594 483q0 -51 20.5 -73.5t67.5 -22.5q88 0 88 96v314q0 96 -88 96q-47 0 -67.5 -22.5t-20.5 -73.5v-314z" />
<glyph unicode="&#xff;" horiz-adv-x="1347" d="M66 518v762h512v-623q0 -92 88 -92t88 92v623h512v-1272q0 -214 -151.5 -322t-436.5 -108h-43q-257 0 -407 113t-150 317v39h471q0 -84 94 -84q111 0 111 74v160q-115 -41 -236 -41q-225 0 -338.5 94t-113.5 268zM248 1530q0 66 33.5 101.5t93.5 35.5h137q59 0 94 -35 q33 -36 33 -102q0 -67 -33 -100q-34 -37 -94 -37h-137q-60 0 -93.5 35.5t-33.5 101.5zM713 1530q0 66 33.5 101.5t93.5 35.5h137q59 0 94 -35q33 -36 33 -102q0 -67 -33 -100q-34 -37 -94 -37h-137q-60 0 -93.5 35.5t-33.5 101.5z" />
<glyph unicode="&#x152;" horiz-adv-x="2072" d="M63 522v492q0 249 171.5 385.5t504.5 136.5h1237v-420h-569v-158h475v-368h-475v-170h616v-420h-1284q-328 0 -502 138.5t-174 383.5zM578 555q0 -70 37.5 -102.5t123.5 -32.5h164v696h-164q-86 0 -123.5 -32.5t-37.5 -102.5v-426z" />
<glyph unicode="&#x153;" horiz-adv-x="1976" d="M51 406v468q0 174 146 302q142 124 395 124q236 0 360 -100q126 100 422 100q262 0 406.5 -114t144.5 -312v-335h-711v-99q0 -45 25 -64.5t84 -19.5q111 0 111 50v32h491v-55q0 -187 -146 -295t-409 -108q-294 0 -418 100q-122 -98 -360 -98q-253 0 -395 124 q-146 128 -146 300zM563 506q0 -51 20.5 -72.5t69.5 -21.5q47 0 67.5 22t20.5 72v268q0 51 -20.5 73.5t-67.5 22.5q-49 0 -69.5 -22.5t-20.5 -73.5v-268zM1214 793h220v69q0 72 -109 72q-59 0 -85 -17.5t-26 -54.5v-69z" />
<glyph unicode="&#x178;" horiz-adv-x="1507" d="M8 1536h535l147 -381q46 -115 66 -233h4q19 112 67 235l148 379h524l-489 -1079v-457h-512v457zM326 1786q0 66 33.5 101.5t93.5 35.5h137q59 0 94 -35q33 -36 33 -102q0 -67 -33 -100q-34 -37 -94 -37h-137q-60 0 -93.5 35.5t-33.5 101.5zM791 1786q0 66 33.5 101.5 t93.5 35.5h137q59 0 94 -35q33 -36 33 -102q0 -67 -33 -100q-34 -37 -94 -37h-137q-60 0 -93.5 35.5t-33.5 101.5z" />
<glyph unicode="&#x2c6;" horiz-adv-x="942" d="M-102 1391l290 311h572l291 -311h-471l-105 127l-106 -127h-471z" />
<glyph unicode="&#x2dc;" horiz-adv-x="942" d="M-61 1536q75 111 146 155t157 44q92 0 217 -45q122 -45 178 -45q76 0 139 84l217 -173q-75 -111 -146 -154.5t-157 -43.5q-93 0 -215 45q-125 45 -178 45q-78 0 -141 -84z" />
<glyph unicode="&#x2000;" horiz-adv-x="1121" />
<glyph unicode="&#x2001;" horiz-adv-x="2243" />
<glyph unicode="&#x2002;" horiz-adv-x="1121" />
<glyph unicode="&#x2003;" horiz-adv-x="2243" />
<glyph unicode="&#x2004;" horiz-adv-x="747" />
<glyph unicode="&#x2005;" horiz-adv-x="560" />
<glyph unicode="&#x2006;" horiz-adv-x="373" />
<glyph unicode="&#x2007;" horiz-adv-x="373" />
<glyph unicode="&#x2008;" horiz-adv-x="280" />
<glyph unicode="&#x2009;" horiz-adv-x="448" />
<glyph unicode="&#x200a;" horiz-adv-x="124" />
<glyph unicode="&#x2010;" horiz-adv-x="989" d="M35 467v389h919v-389h-919z" />
<glyph unicode="&#x2011;" horiz-adv-x="989" d="M35 467v389h919v-389h-919z" />
<glyph unicode="&#x2012;" horiz-adv-x="989" d="M35 467v389h919v-389h-919z" />
<glyph unicode="&#x2013;" horiz-adv-x="1050" d="M29 516v287h993v-287h-993z" />
<glyph unicode="&#x2014;" horiz-adv-x="1888" d="M29 516v287h1831v-287h-1831z" />
<glyph unicode="&#x2018;" horiz-adv-x="739" d="M14 915l310 621h401l-166 -621h-545z" />
<glyph unicode="&#x2020;" horiz-adv-x="741" d="M20 915l166 621h545l-309 -621h-402z" />
<glyph unicode="&#x201a;" horiz-adv-x="688" d="M-37 -207l166 621h545l-309 -621h-402z" />
<glyph unicode="&#x201c;" horiz-adv-x="1388" d="M14 915l310 621h401l-166 -621h-545zM664 915l309 621h401l-166 -621h-544z" />
<glyph unicode="&#x201d;" horiz-adv-x="1390" d="M20 915l166 621h545l-309 -621h-402zM670 915l166 621h544l-309 -621h-401z" />
<glyph unicode="&#x201e;" horiz-adv-x="1337" d="M-37 -207l166 621h545l-309 -621h-402zM612 -207l166 621h545l-309 -621h-402z" />
<glyph unicode="&#x2023;" horiz-adv-x="827" d="M35 782v13q0 198 89 287t290 89q200 0 289.5 -89.5t89.5 -286.5v-13q0 -195 -90.5 -285.5t-288.5 -90.5q-200 0 -289.5 90t-89.5 286z" />
<glyph unicode="&#x2026;" horiz-adv-x="2119" d="M86 199q0 104 55 161.5t154 57.5h133q99 0 154 -57.5t55 -161.5q0 -103 -55.5 -161t-153.5 -58h-133q-98 0 -153.5 58t-55.5 161zM784 199q0 104 55 161.5t154 57.5h133q99 0 154 -57.5t55 -161.5q0 -103 -55.5 -161t-153.5 -58h-133q-98 0 -153.5 58t-55.5 161z M1483 199q0 104 55 161.5t154 57.5h133q99 0 154 -57.5t55 -161.5q0 -103 -55.5 -161t-153.5 -58h-133q-98 0 -153.5 58t-55.5 161z" />
<glyph unicode="&#x202f;" horiz-adv-x="448" />
<glyph unicode="&#x2039;" horiz-adv-x="901" d="M29 492v294l563 490l295 -266l-449 -371l449 -371l-295 -266z" />
<glyph unicode="&#x203a;" horiz-adv-x="901" d="M14 268l449 371l-449 371l295 266l563 -490v-294l-563 -490z" />
<glyph unicode="&#x205f;" horiz-adv-x="560" />
<glyph unicode="&#x20ac;" horiz-adv-x="1507" d="M39 502v198h108v138h-108v198h108q2 248 168.5 384t487.5 136q316 0 479.5 -136.5t163.5 -385.5v-176h-483v223q0 107 -160 107q-86 0 -124 -33t-38 -106v-13h164v-198h-164v-138h164v-198h-164v-15q0 -73 38 -106t124 -33q84 0 122 26.5t38 82.5v223h483v-178 q0 -249 -164 -385.5t-483 -136.5q-321 0 -486.5 136.5t-165.5 385.5h-108z" />
<glyph unicode="&#x2122;" horiz-adv-x="1873" d="M20 1294v242h728v-242h-213v-604h-304v604h-211zM840 690v846h348l137 -406l141 406h346v-846h-303v96q0 183 29 394l-152 -432h-122l-150 430q29 -214 29 -392v-96h-303z" />
<glyph unicode="&#x25fc;" horiz-adv-x="1280" d="M0 0v1280h1280v-1280h-1280z" />
</font>
</defs>
</svg>
