<?xml version="1.0" encoding="UTF-8" standalone="no"?>
<!-- Created with Inkscape (http://www.inkscape.org/) -->

<svg
   version="1.1"
   id="svg1"
   width="2560"
   height="1440"
   viewBox="0 0 2560 1440"
   xmlns="http://www.w3.org/2000/svg"
   xmlns:svg="http://www.w3.org/2000/svg">
  <defs
     id="defs1" />
  <g
     id="layer-MC0">
    <text
       id="text1"
       xml:space="preserve"
       transform="matrix(1.3333333,0,0,1.3333333,1647.0221,548.91933)"><tspan
         style="font-variant:normal;font-weight:700;font-stretch:condensed;font-size:149.447px;font-family:'Helvetica Neue';writing-mode:lr-tb;fill:#231f20;fill-opacity:1;fill-rule:nonzero;stroke:none"
         x="0 38.85635 74.723747"
         y="0"
         id="tspan1">‘ 24</tspan></text>
    <text
       id="text2"
       xml:space="preserve"
       transform="matrix(1.3333333,0,0,1.3333333,296.90427,900.1888)"><tspan
         style="font-variant:normal;font-weight:700;font-stretch:condensed;font-size:370.402px;font-family:'Helvetica Neue';writing-mode:lr-tb;fill:#231f20;fill-opacity:1;fill-rule:nonzero;stroke:none"
         x="0 164.45862 308.17471 486.33823 664.50171"
         y="0"
         id="tspan2">SeGAH</tspan></text>
    <path
       id="path2"
       d="m 0,0 h -41.67 l -37.11,142.475 -42.618,-95.808 h -44.027 v 43 h 20.64 l 43,96.666 H -51.18 L -14.979,47.348 10.815,82.333 h 147.093 v -43 H 29.001 Z"
       style="fill:#100f0d;fill-opacity:1;fill-rule:nonzero;stroke:#231f20;stroke-width:1;stroke-linecap:butt;stroke-linejoin:miter;stroke-miterlimit:10;stroke-dasharray:none;stroke-opacity:1"
       transform="matrix(1.3333333,0,0,-1.3333333,1652.0329,807.7748)" />
    <path
       id="path3"
       d="M 0.91356719,9.546875e-4 H 5.4135672 V -0.87795156 H 1.9565359 V -8.0849828 H 0.91356719 Z m 0,0"
       style="fill:#231f20;fill-opacity:1;fill-rule:nonzero;stroke:none"
       aria-label="L"
       transform="matrix(1.3333333,0,0,1.3333333,1515.8171,570.69013)" />
    <path
       id="path4"
       d="m 3.3394422,-5.9404516 c -1.6171875,0 -2.88281251,1.1367188 -2.88281251,3.0820313 0,1.8398437 1.20703121,2.98828124 2.77734371,2.98828124 1.40625,0 2.8945313,-0.9375 2.8945313,-3.08203124 0,-1.7695313 -1.125,-2.9882813 -2.7890625,-2.9882813 z m -0.023437,0.796875 c 1.2421875,0 1.734375,1.2421875 1.734375,2.2265625 0,1.3125 -0.75,2.26171879 -1.7578125,2.26171879 -1.03125,0 -1.7695313,-0.96093749 -1.7695313,-2.23828129 0,-1.1015625 0.5390625,-2.25 1.7929688,-2.25 z M 7.4673719,9.546875e-4 H 8.5103406 V -3.0927953 c 0,-0.1875 0.023437,-0.3515625 0.046875,-0.4921875 0.140625,-0.796875 0.6679688,-1.359375 1.4179688,-1.359375 0.1406246,0 0.2460936,0.011719 0.3515626,0.035156 v -0.9960937 c -0.09375,-0.023437 -0.175781,-0.035156 -0.292969,-0.035156 -0.7148436,0 -1.3476561,0.4921875 -1.6054686,1.2773438 H 8.3814344 L 8.3462781,-5.8115453 H 7.4204969 c 0.035156,0.5390625 0.046875,1.1367187 0.046875,1.8164062 z M 15.934169,-2.7060766 c 0.01172,-0.1171875 0.03516,-0.28125 0.03516,-0.4921875 0,-1.078125 -0.503906,-2.7421875 -2.402344,-2.7421875 -1.6875,0 -2.71875,1.3828125 -2.71875,3.1289063 0,1.7578125 1.066407,2.92968749 2.859375,2.92968749 0.914063,0 1.558594,-0.1875 1.921875,-0.3515625 L 15.4537,-0.99513906 c -0.398437,0.1640625 -0.855469,0.3046875 -1.605469,0.3046875 -1.054687,0 -1.96875,-0.59765624 -1.992187,-2.01562504 z m -4.066406,-0.7617187 c 0.08203,-0.7265625 0.550781,-1.7109375 1.617187,-1.7109375 1.195313,0 1.476563,1.0429687 1.464844,1.7109375 z m 5.414062,3.4687499875 h 1.03125 V -3.5029516 c 0,-0.1757812 0.02344,-0.3632812 0.08203,-0.515625 0.164063,-0.5273437 0.644532,-1.0546875 1.3125,-1.0546875 0.796875,0 1.207032,0.6679688 1.207032,1.59375 V 9.546875e-4 h 1.03125 V -3.5849828 c 0,-0.1992188 0.03516,-0.3867188 0.08203,-0.5273438 0.1875,-0.515625 0.65625,-0.9609375 1.253906,-0.9609375 0.84375,0 1.253906,0.6679688 1.253906,1.78125 V 9.546875e-4 h 1.03125 V -3.4209203 c 0,-2.015625 -1.136718,-2.5195313 -1.898437,-2.5195313 -0.5625,0 -0.9375,0.140625 -1.289063,0.4101563 -0.246093,0.1757812 -0.46875,0.4335937 -0.644531,0.75 h -0.02344 c -0.257813,-0.6796875 -0.855469,-1.1601563 -1.652344,-1.1601563 -0.960938,0 -1.5,0.515625 -1.816406,1.0664063 h -0.03516 l -0.04687,-0.9375 H 17.23495 c 0.03516,0.4804687 0.04687,0.9726562 0.04687,1.5820312 z M -9.9701281,14.400369 V 8.5878687 H -11.024816 V 14.400369 Z M -10.497472,6.3027125 c -0.386719,0 -0.667969,0.28125 -0.667969,0.65625 0,0.3632812 0.269532,0.6445312 0.644532,0.6445312 0.421875,0 0.6796871,-0.28125 0.6679684,-0.6445312 0,-0.375 -0.2460934,-0.65625 -0.6445314,-0.65625 z m 2.279297,10.4765625 h 1.0429688 v -3.164063 h 0.023437 c 0.3515625,0.585938 1.0195312,0.914063 1.78125,0.914063 1.3710937,0 2.6484375,-1.03125 2.6484375,-3.117188 0,-1.7695308 -1.0546875,-2.9531245 -2.4609375,-2.9531245 -0.9492188,0 -1.6289063,0.421875 -2.0625,1.125 h -0.023437 L -7.3158312,8.5878687 H -8.26505 c 0.023437,0.5507813 0.046875,1.1601563 0.046875,1.8984373 z m 1.0429688,-5.742188 c 0,-0.140625 0.035156,-0.292968 0.070312,-0.433593 0.1992187,-0.7851565 0.8789062,-1.3007815 1.59375,-1.3007815 1.1132812,0 1.734375,0.9960935 1.734375,2.1562495 0,1.335938 -0.65625,2.25 -1.7695313,2.25 -0.75,0 -1.3945312,-0.503906 -1.5820312,-1.242187 -0.023437,-0.128906 -0.046875,-0.269531 -0.046875,-0.433594 z m 5.3759765,3.082032 c 0.4101563,0.246093 0.99609376,0.398437 1.62890626,0.398437 1.38281254,0 2.17968754,-0.714844 2.17968754,-1.734375 0,-0.867187 -0.515625,-1.371094 -1.53515629,-1.757812 -0.75,-0.28125 -1.1015625,-0.503907 -1.1015625,-0.984375 0,-0.433594 0.3515625,-0.7851565 0.97265625,-0.7851565 0.5390625,0 0.96093754,0.1875 1.19531254,0.328125 L 1.7984266,8.8222437 C 1.4703016,8.623025 0.95467656,8.4589625 0.36873906,8.4589625 c -1.2421875,0 -2.00390626,0.7734375 -2.00390626,1.7109375 0,0.691406 0.4921875,1.265625 1.53515626,1.640625 0.78515625,0.28125 1.08984375,0.5625 1.08984375,1.066406 0,0.480469 -0.36328125,0.867188 -1.13671875,0.867188 -0.52734375,0 -1.07812496,-0.222657 -1.39453126,-0.421875 z M 8.2144422,8.5878687 H 7.1597547 v 3.5742183 c 0,0.1875 -0.035156,0.375 -0.09375,0.539063 -0.1875,0.46875 -0.6796875,0.960937 -1.3945313,0.960937 -0.9609375,0 -1.2890625,-0.75 -1.2890625,-1.851562 V 8.5878687 H 3.3277234 v 3.3984373 c 0,2.039063 1.0898438,2.542969 2.0039063,2.542969 1.03125,0 1.640625,-0.609375 1.921875,-1.078125 h 0.023437 l 0.058594,0.949219 h 0.9375 c -0.046875,-0.457032 -0.058594,-0.984375 -0.058594,-1.582032 z m 1.7607422,5.8125003 h 1.0312496 v -3.503907 c 0,-0.175781 0.02344,-0.363281 0.08203,-0.515625 0.164062,-0.5273433 0.644531,-1.054687 1.3125,-1.054687 0.796875,0 1.207031,0.6679687 1.207031,1.59375 v 3.480469 h 1.03125 v -3.585938 c 0,-0.199219 0.03516,-0.386719 0.08203,-0.527344 0.1875,-0.5156245 0.65625,-0.960937 1.253906,-0.960937 0.84375,0 1.253907,0.6679687 1.253907,1.78125 v 3.292969 h 1.03125 v -3.421875 c 0,-2.0156253 -1.136719,-2.5195315 -1.898438,-2.5195315 -0.5625,0 -0.9375,0.140625 -1.289062,0.4101562 -0.246094,0.1757813 -0.46875,0.4335938 -0.644532,0.75 h -0.02344 C 14.147059,8.9394312 13.549403,8.4589625 12.752528,8.4589625 c -0.960937,0 -1.5,0.515625 -1.816406,1.0664062 h -0.03516 l -0.04687,-0.9375 H 9.9283094 C 9.9634656,9.0683375 9.9751844,9.560525 9.9751844,10.1699 Z M 26.486903,5.8808375 v 3.46875 h -0.02344 c -0.269532,-0.46875 -0.867188,-0.890625 -1.757813,-0.890625 -1.417969,0 -2.613281,1.1835937 -2.601562,3.1171875 0,1.769531 1.078125,2.953125 2.484375,2.953125 0.949218,0 1.652343,-0.492188 1.980468,-1.136719 h 0.02344 l 0.04687,1.007813 h 0.949219 c -0.03516,-0.398438 -0.04687,-0.984375 -0.04687,-1.5 V 5.8808375 Z m 0,6.0820315 c 0,0.164062 -0.01172,0.316406 -0.04687,0.457031 -0.199219,0.796875 -0.84375,1.265625 -1.558594,1.265625 -1.136718,0 -1.710937,-0.972656 -1.710937,-2.15625 0,-1.277344 0.644531,-2.2382813 1.746094,-2.2382813 0.785156,0 1.359375,0.5507813 1.523437,1.2187503 0.03516,0.128906 0.04687,0.316406 0.04687,0.445312 z m 5.267578,-3.5039065 c -1.617187,0 -2.882812,1.1367187 -2.882812,3.0820315 0,1.839843 1.207031,2.988281 2.777344,2.988281 1.40625,0 2.894531,-0.9375 2.894531,-3.082031 0,-1.7695315 -1.125,-2.9882815 -2.789063,-2.9882815 z m -0.02344,0.796875 c 1.242187,0 1.734375,1.2421875 1.734375,2.2265625 0,1.3125 -0.75,2.261719 -1.757813,2.261719 -1.03125,0 -1.769531,-0.960938 -1.769531,-2.238282 0,-1.101562 0.539063,-2.2499995 1.792969,-2.2499995 z m 4.151367,5.1445315 h 1.054687 V 5.8808375 h -1.054687 z m 5.293945,-5.9414065 c -1.617187,0 -2.882812,1.1367187 -2.882812,3.0820315 0,1.839843 1.207031,2.988281 2.777344,2.988281 1.40625,0 2.894531,-0.9375 2.894531,-3.082031 0,-1.7695315 -1.125,-2.9882815 -2.789063,-2.9882815 z m -0.02344,0.796875 c 1.242187,0 1.734375,1.2421875 1.734375,2.2265625 0,1.3125 -0.75,2.261719 -1.757813,2.261719 -1.03125,0 -1.769531,-0.960938 -1.769531,-2.238282 0,-1.101562 0.539063,-2.2499995 1.792969,-2.2499995 z m 4.151367,5.1445315 h 1.042969 v -3.09375 c 0,-0.1875 0.02344,-0.351563 0.04687,-0.492188 0.140625,-0.796875 0.667968,-1.3593748 1.417968,-1.3593748 0.140625,0 0.246094,0.011719 0.351563,0.035156 V 8.4941187 c -0.09375,-0.023437 -0.175781,-0.035156 -0.292969,-0.035156 -0.714844,0 -1.347656,0.4921875 -1.605469,1.2773437 h -0.04687 l -0.03516,-1.1484375 h -0.925781 c 0.03516,0.5390625 0.04687,1.1367188 0.04687,1.8164061 z m -63.146484,14.118164 c 0.410156,0.246094 0.996093,0.398437 1.628906,0.398437 1.382812,0 2.179687,-0.714843 2.179687,-1.734375 0,-0.867187 -0.515625,-1.371093 -1.535156,-1.757812 -0.75,-0.28125 -1.101562,-0.503906 -1.101562,-0.984375 0,-0.433594 0.351562,-0.785156 0.972656,-0.785156 0.539062,0 0.960937,0.1875 1.195312,0.328125 l 0.257813,-0.761719 c -0.328125,-0.199219 -0.84375,-0.363281 -1.429688,-0.363281 -1.242187,0 -2.003906,0.773437 -2.003906,1.710937 0,0.691406 0.492188,1.265625 1.535156,1.640625 0.785157,0.28125 1.089844,0.5625 1.089844,1.066406 0,0.480469 -0.363281,0.867188 -1.136719,0.867188 -0.527343,0 -1.078125,-0.222656 -1.394531,-0.421875 z m 6.216796,0.28125 v -5.8125 h -1.054687 v 5.8125 z m -0.527343,-8.097656 c -0.386719,0 -0.667969,0.28125 -0.667969,0.65625 0,0.363281 0.269531,0.644531 0.644531,0.644531 0.421875,0 0.679688,-0.28125 0.667969,-0.644531 0,-0.375 -0.246094,-0.65625 -0.644531,-0.65625 z m 2.5136716,0.902343 v 1.382813 h -0.9023436 v 0.808594 h 0.9023436 v 3.164062 c 0,0.691406 0.1054687,1.207031 0.4101562,1.511719 0.2578125,0.292969 0.6445313,0.445312 1.1367188,0.445312 0.4101562,0 0.7382812,-0.05859 0.9375,-0.140625 l -0.046875,-0.796875 c -0.1289063,0.03516 -0.3398438,0.08203 -0.609375,0.08203 -0.5859375,0 -0.796875,-0.410157 -0.796875,-1.136719 v -3.128906 h 1.5117187 V 22.987283 H -8.6078234 V 21.32322 Z m 10.45312496,7.195313 c -0.0703125,-0.398438 -0.09375,-0.890625 -0.09375,-1.394531 v -2.167969 c 0,-1.160156 -0.43359375,-2.378906 -2.21484376,-2.378906 -0.7265625,0 -1.4179687,0.210937 -1.8984375,0.515625 l 0.234375,0.703125 c 0.4101563,-0.269532 0.9726563,-0.433594 1.5117188,-0.433594 1.19531246,0 1.32421871,0.855469 1.32421871,1.335937 v 0.128907 c -2.25000001,-0.01172 -3.49218751,0.75 -3.49218751,2.15625 0,0.84375 0.5976563,1.664062 1.7695313,1.664062 0.8320312,0 1.45312496,-0.410156 1.78124996,-0.855469 h 0.0351563 l 0.0820313,0.726563 z m -1.11328125,-1.957031 c 0,0.105468 -0.0234375,0.234375 -0.0585938,0.339843 -0.17578125,0.492188 -0.65625001,0.972657 -1.40625001,0.972657 -0.5390625,0 -0.9960938,-0.328125 -0.9960938,-1.007813 0,-1.136719 1.3125,-1.335937 2.46093756,-1.3125 z m 2.72753909,1.957031 h 1.03125 v -3.503906 c 0,-0.175782 0.023437,-0.363282 0.082031,-0.515625 0.1640625,-0.527344 0.6445313,-1.054688 1.3125,-1.054688 0.796875,0 1.2070313,0.667969 1.2070313,1.59375 v 3.480469 h 1.03125 v -3.585938 c 0,-0.199218 0.035156,-0.386718 0.082031,-0.527343 0.1875,-0.515625 0.65625,-0.960938 1.2539063,-0.960938 0.84375,0 1.2539062,0.667969 1.2539062,1.78125 v 3.292969 H 10.71346 v -3.421875 c 0,-2.015625 -1.1367195,-2.519531 -1.8984383,-2.519531 -0.5625,0 -0.9375,0.140625 -1.2890625,0.410156 -0.2460937,0.175781 -0.46875,0.433594 -0.6445312,0.75 H 6.8579969 C 6.6001844,23.338845 6.0025281,22.858377 5.2056531,22.858377 c -0.9609375,0 -1.5,0.515625 -1.8164062,1.066406 h -0.035156 l -0.046875,-0.9375 H 2.3814344 c 0.035156,0.480469 0.046875,0.972656 0.046875,1.582031 z M 17.100184,26.092752 c 0.01172,-0.117188 0.03516,-0.28125 0.03516,-0.492188 0,-1.078125 -0.503907,-2.742187 -2.402344,-2.742187 -1.6875,0 -2.71875,1.382812 -2.71875,3.128906 0,1.757812 1.066406,2.929687 2.859375,2.929687 0.914062,0 1.558594,-0.1875 1.921875,-0.351562 l -0.175781,-0.761719 c -0.398438,0.164063 -0.855469,0.304688 -1.605469,0.304688 -1.054688,0 -1.96875,-0.597657 -1.992188,-2.015625 z m -4.066406,-0.761719 c 0.08203,-0.726563 0.550781,-1.710938 1.617188,-1.710938 1.195312,0 1.476562,1.042969 1.464843,1.710938 z m 5.648438,-3.726563 v 1.382813 h -0.902344 v 0.808594 h 0.902344 v 3.164062 c 0,0.691406 0.105468,1.207031 0.410156,1.511719 0.257812,0.292969 0.644531,0.445312 1.136719,0.445312 0.410156,0 0.738281,-0.05859 0.9375,-0.140625 l -0.04687,-0.796875 c -0.128907,0.03516 -0.339844,0.08203 -0.609375,0.08203 -0.585938,0 -0.796875,-0.410157 -0.796875,-1.136719 v -3.128906 h 1.511718 V 22.987283 H 19.713466 V 21.32322 Z m 3.770507,8.601563 c 0.339844,-0.5625 0.867188,-1.898438 1.136719,-2.917969 l -1.171875,0.117188 c -0.128906,0.878906 -0.457031,2.167968 -0.726562,2.871093 z m -42.333984,11.985351 c -0.304687,0.128907 -0.703125,0.292969 -1.300781,0.292969 -1.148438,0 -2.015625,-0.832031 -2.015625,-2.179687 0,-1.207032 0.714844,-2.191407 2.050781,-2.191407 0.574219,0 0.972656,0.128907 1.230469,0.269532 l 0.234375,-0.808594 c -0.28125,-0.152344 -0.84375,-0.304688 -1.464844,-0.304688 -1.898437,0 -3.117187,1.300782 -3.117187,3.082032 0,1.78125 1.136718,2.964843 2.894531,2.964843 0.773437,0 1.382812,-0.1875 1.664062,-0.328125 z m 3.805664,-4.933593 c -1.617187,0 -2.882812,1.136718 -2.882812,3.082031 0,1.839844 1.207031,2.988281 2.777343,2.988281 1.40625,0 2.894532,-0.9375 2.894532,-3.082031 0,-1.769531 -1.125,-2.988281 -2.789063,-2.988281 z m -0.02344,0.796875 c 1.242187,0 1.734375,1.242187 1.734375,2.226562 0,1.3125 -0.75,2.261719 -1.757813,2.261719 -1.03125,0 -1.769531,-0.960938 -1.769531,-2.238281 0,-1.101563 0.539062,-2.25 1.792969,-2.25 z m 4.151367,5.144531 h 1.054687 v -3.492188 c 0,-0.175781 0.02344,-0.363281 0.07031,-0.492187 0.175781,-0.585938 0.714844,-1.078125 1.4179686,-1.078125 0.9960937,0 1.3476562,0.773437 1.3476562,1.710937 v 3.351563 h 1.0546875 v -3.46875 c 0,-1.992188 -1.2539062,-2.472656 -2.0507812,-2.472656 -0.9609371,0 -1.6406251,0.539062 -1.9218751,1.089843 h -0.02344 l -0.05859,-0.960937 h -0.9375 c 0.03516,0.480469 0.04687,0.972656 0.04687,1.582031 z m 6.2490233,-0.28125 c 0.4101562,0.246094 0.9960937,0.398437 1.6289062,0.398437 1.3828125,0 2.1796875,-0.714843 2.1796875,-1.734375 0,-0.867187 -0.515625,-1.371093 -1.5351562,-1.757812 -0.75,-0.28125 -1.1015625,-0.503906 -1.1015625,-0.984375 0,-0.433594 0.3515625,-0.785156 0.9726562,-0.785156 0.5390625,0 0.9609375,0.1875 1.1953125,0.328125 l 0.2578125,-0.761719 c -0.328125,-0.199219 -0.84375,-0.363281 -1.4296875,-0.363281 -1.2421875,0 -2.0039062,0.773437 -2.0039062,1.710937 0,0.691406 0.4921875,1.265625 1.5351562,1.640625 0.7851563,0.28125 1.0898438,0.5625 1.0898438,1.066406 0,0.480469 -0.3632813,0.867188 -1.1367188,0.867188 -0.5273437,0 -1.078125,-0.222656 -1.3945312,-0.421875 z m 9.8261718,-2.425781 c 0.011719,-0.117188 0.035156,-0.28125 0.035156,-0.492188 0,-1.078125 -0.5039063,-2.742187 -2.4023438,-2.742187 -1.68749997,0 -2.71874997,1.382812 -2.71874997,3.128906 0,1.757812 1.06640625,2.929687 2.85937497,2.929687 0.9140625,0 1.5585938,-0.1875 1.921875,-0.351562 L 3.6470594,42.203103 c -0.3984375,0.164063 -0.8554688,0.304688 -1.6054688,0.304688 -1.05468747,0 -1.96874997,-0.597657 -1.99218747,-2.015625 z M 0.06112188,39.730447 c 0.08203125,-0.726563 0.55078125,-1.710938 1.61718752,-1.710938 1.1953125,0 1.4765625,1.042969 1.4648437,1.710938 z m 9.37500002,2.460937 c -0.3046875,0.128907 -0.703125,0.292969 -1.3007813,0.292969 -1.1484375,0 -2.015625,-0.832031 -2.015625,-2.179687 0,-1.207032 0.7148438,-2.191407 2.0507813,-2.191407 0.5742187,0 0.9726562,0.128907 1.2304687,0.269532 l 0.234375,-0.808594 c -0.28125,-0.152344 -0.84375,-0.304688 -1.4648437,-0.304688 -1.8984375,0 -3.1171875,1.300782 -3.1171875,3.082032 0,1.78125 1.1367187,2.964843 2.8945312,2.964843 0.7734375,0 1.3828125,-0.1875 1.6640625,-0.328125 z m 0.8994141,-2.625 v 0.773438 h 2.964844 v -0.773438 z m 10.696289,-3.5625 v 1.382813 h -0.902344 v 0.808594 h 0.902344 v 3.164062 c 0,0.691406 0.105469,1.207031 0.410156,1.511719 0.257813,0.292969 0.644532,0.445312 1.136719,0.445312 0.410156,0 0.738281,-0.05859 0.9375,-0.140625 l -0.04687,-0.796875 c -0.128906,0.03516 -0.339844,0.08203 -0.609375,0.08203 -0.585937,0 -0.796875,-0.410157 -0.796875,-1.136719 v -3.128906 h 1.511719 V 37.386695 H 22.06308 v -1.664063 z m 8.332031,4.488282 c 0.01172,-0.117188 0.03516,-0.28125 0.03516,-0.492188 0,-1.078125 -0.503907,-2.742187 -2.402344,-2.742187 -1.6875,0 -2.71875,1.382812 -2.71875,3.128906 0,1.757812 1.066406,2.929687 2.859375,2.929687 0.914062,0 1.558594,-0.1875 1.921875,-0.351562 l -0.175781,-0.761719 c -0.398438,0.164063 -0.855469,0.304688 -1.605469,0.304688 -1.054688,0 -1.96875,-0.597657 -1.992188,-2.015625 z M 25.29745,39.730447 c 0.08203,-0.726563 0.550781,-1.710938 1.617188,-1.710938 1.195312,0 1.476562,1.042969 1.464843,1.710938 z m 5.648438,-3.726563 v 1.382813 h -0.902344 v 0.808594 h 0.902344 v 3.164062 c 0,0.691406 0.105468,1.207031 0.410156,1.511719 0.257812,0.292969 0.644531,0.445312 1.136719,0.445312 0.410156,0 0.738281,-0.05859 0.9375,-0.140625 l -0.04687,-0.796875 c -0.128907,0.03516 -0.339844,0.08203 -0.609375,0.08203 -0.585938,0 -0.796875,-0.410157 -0.796875,-1.136719 v -3.128906 h 1.511718 v -0.808594 h -1.511718 v -1.664063 z m 8.589843,1.382813 h -1.054687 v 3.574219 c 0,0.1875 -0.03516,0.375 -0.09375,0.539062 -0.1875,0.46875 -0.679688,0.960938 -1.394531,0.960938 -0.960938,0 -1.289063,-0.75 -1.289063,-1.851563 v -3.222656 h -1.054687 v 3.398437 c 0,2.039063 1.089843,2.542969 2.003906,2.542969 1.03125,0 1.640625,-0.609375 1.921875,-1.078125 h 0.02344 l 0.05859,0.949219 h 0.9375 c -0.04687,-0.457031 -0.05859,-0.984375 -0.05859,-1.582031 z m 6.421875,3.105469 c 0.01172,-0.117188 0.03516,-0.28125 0.03516,-0.492188 0,-1.078125 -0.503907,-2.742187 -2.402344,-2.742187 -1.6875,0 -2.71875,1.382812 -2.71875,3.128906 0,1.757812 1.066406,2.929687 2.859375,2.929687 0.914062,0 1.558594,-0.1875 1.921875,-0.351562 l -0.175781,-0.761719 c -0.398438,0.164063 -0.855469,0.304688 -1.605469,0.304688 -1.054688,0 -1.96875,-0.597657 -1.992188,-2.015625 z M 41.8912,39.730447 c 0.08203,-0.726563 0.550781,-1.710938 1.617188,-1.710938 1.195312,0 1.476562,1.042969 1.464843,1.710938 z m 5.416992,3.46875 h 1.042969 v -3.09375 c 0,-0.1875 0.02344,-0.351563 0.04687,-0.492188 0.140625,-0.796875 0.667969,-1.359375 1.417969,-1.359375 0.140625,0 0.246093,0.01172 0.351562,0.03516 V 37.29295 c -0.09375,-0.02344 -0.175781,-0.03516 -0.292969,-0.03516 -0.714843,0 -1.347656,0.492187 -1.605468,1.277343 h -0.04687 l -0.03516,-1.148437 h -0.925781 c 0.03516,0.539062 0.04687,1.136719 0.04687,1.816406 z M -26.07755,57.598611 c -0.07031,-0.398438 -0.09375,-0.890625 -0.09375,-1.394531 v -2.167969 c 0,-1.160156 -0.433594,-2.378906 -2.214844,-2.378906 -0.726562,0 -1.417968,0.210937 -1.898437,0.515625 l 0.234375,0.703125 c 0.410156,-0.269532 0.972656,-0.433594 1.511719,-0.433594 1.195312,0 1.324218,0.855469 1.324218,1.335937 v 0.128907 c -2.25,-0.01172 -3.492187,0.75 -3.492187,2.15625 0,0.84375 0.597656,1.664062 1.769531,1.664062 0.832031,0 1.453125,-0.410156 1.78125,-0.855469 h 0.03516 l 0.08203,0.726563 z m -1.113281,-1.957031 c 0,0.105468 -0.02344,0.234375 -0.05859,0.339843 -0.175781,0.492188 -0.65625,0.972657 -1.40625,0.972657 -0.539062,0 -0.996094,-0.328125 -0.996094,-1.007813 0,-1.136719 1.3125,-1.335937 2.460938,-1.3125 z m 6.685547,-6.5625 v 3.46875 h -0.02344 c -0.269531,-0.46875 -0.867187,-0.890625 -1.757812,-0.890625 -1.417969,0 -2.613282,1.183593 -2.601563,3.117187 0,1.769531 1.078125,2.953125 2.484375,2.953125 0.949219,0 1.652344,-0.492187 1.980469,-1.136719 h 0.02344 l 0.04687,1.007813 h 0.949219 c -0.03516,-0.398438 -0.04687,-0.984375 -0.04687,-1.5 V 49.07908 Z m 0,6.082031 c 0,0.164062 -0.01172,0.316406 -0.04687,0.457031 -0.199219,0.796875 -0.84375,1.265625 -1.558594,1.265625 -1.136719,0 -1.710938,-0.972656 -1.710938,-2.15625 0,-1.277344 0.644532,-2.238281 1.746094,-2.238281 0.785156,0 1.359375,0.550781 1.523438,1.21875 0.03516,0.128906 0.04687,0.316406 0.04687,0.445312 z m 3.864257,2.4375 v -5.8125 h -1.054687 v 5.8125 z m -0.527343,-8.097656 c -0.386719,0 -0.667969,0.28125 -0.667969,0.65625 0,0.363281 0.269531,0.644531 0.644531,0.644531 0.421875,0 0.679688,-0.28125 0.667969,-0.644531 0,-0.375 -0.246094,-0.65625 -0.644531,-0.65625 z m 2.279297,10.476562 h 1.042968 v -3.164062 h 0.02344 c 0.351562,0.585937 1.019531,0.914062 1.78125,0.914062 1.371094,0 2.6484373,-1.03125 2.6484373,-3.117187 0,-1.769532 -1.0546873,-2.953125 -2.4609373,-2.953125 -0.949219,0 -1.628906,0.421875 -2.0625,1.125 h -0.02344 l -0.04687,-0.996094 h -0.949218 c 0.02344,0.550781 0.04687,1.160156 0.04687,1.898437 z m 1.042968,-5.742187 c 0,-0.140625 0.03516,-0.292969 0.07031,-0.433594 0.199219,-0.785156 0.878906,-1.300781 1.59375,-1.300781 1.113281,0 1.734375,0.996093 1.734375,2.15625 0,1.335937 -0.65625,2.25 -1.769531,2.25 -0.75,0 -1.394532,-0.503907 -1.582032,-1.242188 -0.02344,-0.128906 -0.04687,-0.269531 -0.04687,-0.433594 z m 6.8408206,3.363281 v -5.8125 h -1.0546875 v 5.8125 z m -0.5273437,-8.097656 c -0.3867188,0 -0.6679688,0.28125 -0.6679688,0.65625 0,0.363281 0.2695313,0.644531 0.6445313,0.644531 0.421875,0 0.6796875,-0.28125 0.6679687,-0.644531 0,-0.375 -0.2460937,-0.65625 -0.6445312,-0.65625 z m 1.8691406,7.816406 c 0.4101563,0.246094 0.9960938,0.398437 1.6289063,0.398437 1.3828125,0 2.1796875,-0.714843 2.1796875,-1.734375 0,-0.867187 -0.515625,-1.371093 -1.5351563,-1.757812 -0.75,-0.28125 -1.1015625,-0.503906 -1.1015625,-0.984375 0,-0.433594 0.3515625,-0.785156 0.9726563,-0.785156 0.5390625,0 0.9609375,0.1875 1.1953125,0.328125 l 0.2578125,-0.761719 c -0.328125,-0.199219 -0.84375,-0.363281 -1.4296875,-0.363281 -1.2421875,0 -2.0039063,0.773437 -2.0039063,1.710937 0,0.691406 0.4921875,1.265625 1.5351563,1.640625 0.7851562,0.28125 1.0898437,0.5625 1.0898437,1.066406 0,0.480469 -0.3632812,0.867188 -1.1367187,0.867188 -0.5273438,0 -1.078125,-0.222656 -1.3945313,-0.421875 z m 9.1230469,-0.726563 c -0.3046875,0.128907 -0.703125,0.292969 -1.3007813,0.292969 -1.1484375,0 -2.01562497,-0.832031 -2.01562497,-2.179687 0,-1.207032 0.71484375,-2.191407 2.05078127,-2.191407 0.5742187,0 0.9726562,0.128907 1.2304687,0.269532 l 0.234375,-0.808594 c -0.28125,-0.152344 -0.84375,-0.304688 -1.4648437,-0.304688 -1.89843752,0 -3.11718752,1.300782 -3.11718752,3.082032 0,1.78125 1.13671875,2.964843 2.89453122,2.964843 0.7734375,0 1.3828125,-0.1875 1.6640625,-0.328125 z m 0.899414,-2.625 v 0.773438 h 2.9648438 v -0.773438 z m 21.2519536,3.632813 v -5.8125 h -1.054688 v 5.8125 z m -0.527344,-8.097656 c -0.386719,0 -0.667969,0.28125 -0.667969,0.65625 0,0.363281 0.269531,0.644531 0.644531,0.644531 0.421875,0 0.679688,-0.28125 0.667969,-0.644531 0,-0.375 -0.246094,-0.65625 -0.644531,-0.65625 z m 2.279297,8.097656 h 1.054687 v -3.492188 c 0,-0.175781 0.02344,-0.363281 0.07031,-0.492187 0.175781,-0.585938 0.714843,-1.078125 1.417968,-1.078125 0.996094,0 1.347657,0.773437 1.347657,1.710937 v 3.351563 h 1.054687 v -3.46875 c 0,-1.992188 -1.253906,-2.472656 -2.050781,-2.472656 -0.960938,0 -1.640625,0.539062 -1.921875,1.089843 h -0.02344 l -0.05859,-0.960937 h -0.9375 c 0.03516,0.480469 0.04687,0.972656 0.04687,1.582031 z m 10.737304,-5.8125 -0.04687,0.878906 h -0.02344 c -0.257813,-0.480469 -0.808594,-1.007812 -1.816406,-1.007812 -1.335938,0 -2.613282,1.113281 -2.613282,3.082031 0,1.617187 1.03125,2.835937 2.472657,2.835937 0.902343,0 1.523437,-0.433593 1.851562,-0.972656 h 0.02344 v 0.644531 c 0,1.464844 -0.796875,2.027344 -1.875,2.027344 -0.726563,0 -1.324219,-0.210937 -1.710938,-0.457031 l -0.257812,0.808594 c 0.46875,0.316406 1.230468,0.480468 1.933593,0.480468 0.726563,0 1.546875,-0.164062 2.109375,-0.691406 0.5625,-0.503906 0.832032,-1.324219 0.832032,-2.660156 V 53.39158 c 0,-0.714844 0.02344,-1.183594 0.04687,-1.605469 z m -0.164062,3.339844 c 0,0.175781 -0.02344,0.386718 -0.09375,0.5625 -0.222656,0.679687 -0.808594,1.078125 -1.464844,1.078125 -1.136719,0 -1.710937,-0.949219 -1.710937,-2.085938 0,-1.347656 0.714843,-2.191406 1.734375,-2.191406 0.761718,0 1.277343,0.503906 1.464843,1.113281 0.05859,0.140625 0.07031,0.304688 0.07031,0.480469 z M 47.938075,54.89158 c 0.01172,-0.117188 0.03516,-0.28125 0.03516,-0.492188 0,-1.078125 -0.503906,-2.742187 -2.402343,-2.742187 -1.6875,0 -2.71875,1.382812 -2.71875,3.128906 0,1.757812 1.066406,2.929687 2.859375,2.929687 0.914062,0 1.558593,-0.1875 1.921875,-0.351562 L 47.45761,56.602517 c -0.398437,0.164063 -0.855468,0.304688 -1.605468,0.304688 -1.054688,0 -1.96875,-0.597657 -1.992188,-2.015625 z m -4.066406,-0.761719 c 0.08203,-0.726563 0.550781,-1.710938 1.617187,-1.710938 1.195313,0 1.476563,1.042969 1.464844,1.710938 z m 5.414062,3.46875 h 1.054688 V 49.07908 h -1.054688 z m 3.887696,0 v -5.8125 h -1.054688 v 5.8125 z m -0.527344,-8.097656 c -0.386719,0 -0.667969,0.28125 -0.667969,0.65625 0,0.363281 0.269531,0.644531 0.644531,0.644531 0.421875,0 0.679688,-0.28125 0.667969,-0.644531 0,-0.375 -0.246094,-0.65625 -0.644531,-0.65625 z m 2.516601,0.902343 v 1.382813 h -0.902343 v 0.808594 h 0.902343 v 3.164062 c 0,0.691406 0.105469,1.207031 0.410157,1.511719 0.257812,0.292969 0.644531,0.445312 1.136718,0.445312 0.410157,0 0.738282,-0.05859 0.9375,-0.140625 l -0.04687,-0.796875 c -0.128906,0.03516 -0.339843,0.08203 -0.609375,0.08203 -0.585937,0 -0.796875,-0.410157 -0.796875,-1.136719 v -3.128906 h 1.511719 v -0.808594 h -1.511719 v -1.664063 z m 3.770508,8.601563 c 0.339844,-0.5625 0.867188,-1.898438 1.136719,-2.917969 l -1.171875,0.117188 c -0.128906,0.878906 -0.457031,2.167968 -0.726563,2.871093 z m -95.988281,12.714844 c 0.410156,0.246093 0.996094,0.398437 1.628906,0.398437 1.382813,0 2.179688,-0.714844 2.179688,-1.734375 0,-0.867187 -0.515625,-1.371094 -1.535157,-1.757812 -0.75,-0.28125 -1.101562,-0.503907 -1.101562,-0.984375 0,-0.433594 0.351562,-0.785157 0.972656,-0.785157 0.539063,0 0.960938,0.1875 1.195313,0.328125 l 0.257812,-0.761718 c -0.328125,-0.199219 -0.84375,-0.363282 -1.429687,-0.363282 -1.242188,0 -2.003907,0.773438 -2.003907,1.710938 0,0.691406 0.492188,1.265625 1.535157,1.640625 0.785156,0.28125 1.089843,0.5625 1.089843,1.066406 0,0.480469 -0.363281,0.867188 -1.136718,0.867188 -0.527344,0 -1.078125,-0.222657 -1.394532,-0.421875 z m 9.826172,-2.425782 c 0.01172,-0.117187 0.03516,-0.28125 0.03516,-0.492187 0,-1.078125 -0.503906,-2.742188 -2.402344,-2.742188 -1.6875,0 -2.71875,1.382813 -2.71875,3.128907 0,1.757812 1.066407,2.929687 2.859375,2.929687 0.914063,0 1.558594,-0.1875 1.921875,-0.351562 l -0.175781,-0.761719 c -0.398437,0.164062 -0.855469,0.304687 -1.605469,0.304687 -1.054687,0 -1.96875,-0.597656 -1.992187,-2.015625 z m -4.066406,-0.761718 c 0.08203,-0.726563 0.550781,-1.710938 1.617187,-1.710938 1.195313,0 1.476563,1.042969 1.464844,1.710938 z m 9.375,-5.050782 v 3.46875 h -0.02344 c -0.269531,-0.46875 -0.867187,-0.890625 -1.757812,-0.890625 -1.417969,0 -2.613282,1.183594 -2.601563,3.117188 0,1.769531 1.078125,2.953125 2.484375,2.953125 0.949219,0 1.652344,-0.492188 1.980469,-1.136719 h 0.02344 l 0.04687,1.007813 h 0.949219 c -0.03516,-0.398438 -0.04687,-0.984375 -0.04687,-1.5 v -7.019532 z m 0,6.082032 c 0,0.164062 -0.01172,0.316406 -0.04687,0.457031 -0.199219,0.796875 -0.84375,1.265625 -1.558594,1.265625 -1.136719,0 -1.710938,-0.972656 -1.710938,-2.15625 0,-1.277344 0.644532,-2.238281 1.746094,-2.238281 0.785156,0 1.359375,0.550781 1.523438,1.21875 0.03516,0.128906 0.04687,0.316406 0.04687,0.445312 z m 54.193359,-6.082032 v 3.46875 h -0.02344 c -0.269531,-0.46875 -0.867187,-0.890625 -1.757812,-0.890625 -1.417969,0 -2.613281,1.183594 -2.601563,3.117188 0,1.769531 1.078125,2.953125 2.484375,2.953125 0.949219,0 1.652344,-0.492188 1.980469,-1.136719 h 0.02344 l 0.04687,1.007813 h 0.949218 c -0.03516,-0.398438 -0.04687,-0.984375 -0.04687,-1.5 v -7.019532 z m 0,6.082032 c 0,0.164062 -0.01172,0.316406 -0.04687,0.457031 -0.199219,0.796875 -0.84375,1.265625 -1.558594,1.265625 -1.136719,0 -1.710937,-0.972656 -1.710937,-2.15625 0,-1.277344 0.644531,-2.238281 1.746093,-2.238281 0.785157,0 1.359375,0.550781 1.523438,1.21875 0.03516,0.128906 0.04687,0.316406 0.04687,0.445312 z m 3.861328,2.4375 v -5.8125 h -1.054687 v 5.8125 z M 35.60702,63.903298 c -0.386718,0 -0.667968,0.28125 -0.667968,0.65625 0,0.363282 0.269531,0.644532 0.644531,0.644532 0.421875,0 0.679687,-0.28125 0.667969,-0.644532 0,-0.375 -0.246094,-0.65625 -0.644532,-0.65625 z m 6.451172,8.097657 c -0.07031,-0.398438 -0.09375,-0.890625 -0.09375,-1.394532 v -2.167968 c 0,-1.160157 -0.433594,-2.378907 -2.214844,-2.378907 -0.726562,0 -1.417968,0.210938 -1.898437,0.515625 l 0.234375,0.703125 c 0.410156,-0.269531 0.972656,-0.433593 1.511719,-0.433593 1.195312,0 1.324218,0.855468 1.324218,1.335937 v 0.128906 c -2.25,-0.01172 -3.492187,0.75 -3.492187,2.15625 0,0.84375 0.597656,1.664063 1.769531,1.664063 0.832031,0 1.453125,-0.410156 1.78125,-0.855469 h 0.03516 l 0.08203,0.726563 z m -1.113281,-1.957032 c 0,0.105469 -0.02344,0.234375 -0.05859,0.339844 -0.175781,0.492188 -0.65625,0.972656 -1.40625,0.972656 -0.539062,0 -0.996094,-0.328125 -0.996094,-1.007812 0,-1.136719 1.3125,-1.335938 2.460938,-1.3125 z m 2.724609,1.957032 h 1.03125 v -3.503907 c 0,-0.175781 0.02344,-0.363281 0.08203,-0.515625 0.164062,-0.527343 0.644531,-1.054687 1.3125,-1.054687 0.796875,0 1.207031,0.667969 1.207031,1.59375 v 3.480469 h 1.03125 v -3.585938 c 0,-0.199219 0.03516,-0.386719 0.08203,-0.527344 0.1875,-0.515625 0.65625,-0.960937 1.253906,-0.960937 0.84375,0 1.253907,0.667969 1.253907,1.78125 v 3.292969 h 1.03125 V 68.57908 c 0,-2.015625 -1.136719,-2.519532 -1.898438,-2.519532 -0.5625,0 -0.9375,0.140625 -1.289062,0.410157 -0.246094,0.175781 -0.46875,0.433593 -0.644532,0.75 h -0.02344 c -0.257813,-0.679688 -0.855469,-1.160157 -1.652344,-1.160157 -0.960937,0 -1.5,0.515625 -1.816406,1.066407 h -0.03516 l -0.04687,-0.9375 H 43.62264 c 0.03516,0.480468 0.04687,0.972656 0.04687,1.582031 z M -67.881261,100.79978 h 1.054688 v -3.492185 c 0,-0.175781 0.02344,-0.363281 0.07031,-0.492187 0.175781,-0.585938 0.714844,-1.078125 1.417969,-1.078125 0.996094,0 1.347656,0.773437 1.347656,1.710937 v 3.35156 h 1.054688 v -3.468747 c 0,-1.992188 -1.253907,-2.472656 -2.050782,-2.472656 -0.960937,0 -1.640625,0.539062 -1.921875,1.089843 h -0.02344 l -0.05859,-0.960937 h -0.9375 c 0.03516,0.480469 0.04687,0.972656 0.04687,1.582031 z m 9.120117,-5.941403 c -1.617187,0 -2.882812,1.136718 -2.882812,3.082031 0,1.839844 1.207031,2.988282 2.777344,2.988282 1.40625,0 2.894531,-0.937501 2.894531,-3.082032 0,-1.769531 -1.125,-2.988281 -2.789063,-2.988281 z m -0.02344,0.796875 c 1.242187,0 1.734375,1.242187 1.734375,2.226562 0,1.3125 -0.75,2.261716 -1.757813,2.261716 -1.03125,0 -1.769531,-0.960935 -1.769531,-2.238278 0,-1.101563 0.539063,-2.25 1.792969,-2.25 z m 4.151367,5.144528 h 1.054687 v -3.492185 c 0,-0.175781 0.02344,-0.363281 0.07031,-0.492187 0.175781,-0.585938 0.714844,-1.078125 1.417969,-1.078125 0.996093,0 1.347656,0.773437 1.347656,1.710937 v 3.35156 h 1.054687 v -3.468747 c 0,-1.992188 -1.253906,-2.472656 -2.050781,-2.472656 -0.960937,0 -1.640625,0.539062 -1.921875,1.089843 h -0.02344 l -0.05859,-0.960937 h -0.9375 c 0.03516,0.480469 0.04687,0.972656 0.04687,1.582031 z m 11.510742,-5.812497 h -1.054687 v 3.574219 c 0,0.1875 -0.03516,0.375 -0.09375,0.539062 -0.1875,0.46875 -0.679688,0.960936 -1.394532,0.960936 -0.960937,0 -1.289062,-0.749998 -1.289062,-1.851561 v -3.222656 h -1.054688 v 3.398437 c 0,2.03906 1.089844,2.54297 2.003907,2.54297 1.03125,0 1.640625,-0.60938 1.921875,-1.078126 h 0.02344 l 0.05859,0.949216 h 0.9375 c -0.04687,-0.45703 -0.05859,-0.984372 -0.05859,-1.582028 z m 1.760742,5.812497 h 1.03125 v -3.503903 c 0,-0.175782 0.02344,-0.363282 0.08203,-0.515625 0.164062,-0.527344 0.644531,-1.054688 1.3125,-1.054688 0.796875,0 1.207031,0.667969 1.207031,1.59375 v 3.480466 h 1.03125 v -3.585935 c 0,-0.199218 0.03516,-0.386718 0.08203,-0.527343 0.1875,-0.515625 0.65625,-0.960938 1.253906,-0.960938 0.84375,0 1.253907,0.667969 1.253907,1.78125 v 3.292966 h 1.03125 v -3.421872 c 0,-2.015625 -1.136719,-2.519531 -1.898438,-2.519531 -0.5625,0 -0.9375,0.140625 -1.289062,0.410156 -0.246094,0.175781 -0.46875,0.433594 -0.644532,0.75 h -0.02344 c -0.257813,-0.679688 -0.855469,-1.160156 -1.652344,-1.160156 -0.960937,0 -1.5,0.515625 -1.816406,1.066406 h -0.03516 l -0.04687,-0.9375 h -0.925782 c 0.03516,0.480469 0.04687,0.972656 0.04687,1.582031 z m 10.007813,0 h 1.03125 v -3.503903 c 0,-0.175782 0.02344,-0.363282 0.08203,-0.515625 0.164063,-0.527344 0.644531,-1.054688 1.3125,-1.054688 0.796875,0 1.207031,0.667969 1.207031,1.59375 v 3.480466 h 1.03125 v -3.585935 c 0,-0.199218 0.03516,-0.386718 0.08203,-0.527343 0.1875,-0.515625 0.65625,-0.960938 1.253906,-0.960938 0.84375,0 1.253906,0.667969 1.253906,1.78125 v 3.292966 h 1.03125 v -3.421872 c 0,-2.015625 -1.136719,-2.519531 -1.898437,-2.519531 -0.5625,0 -0.9375,0.140625 -1.289063,0.410156 -0.246094,0.175781 -0.46875,0.433594 -0.644531,0.75 h -0.02344 c -0.257812,-0.679688 -0.855468,-1.160156 -1.652343,-1.160156 -0.960938,0 -1.5,0.515625 -1.816407,1.066406 h -0.03516 l -0.04687,-0.9375 h -0.925781 c 0.03516,0.480469 0.04687,0.972656 0.04687,1.582031 z m 9.079101,-5.812497 2.15625,5.355467 c 0.04687,0.12891 0.07031,0.22266 0.07031,0.28125 0,0.0586 -0.03516,0.14063 -0.09375,0.2461 -0.234375,0.53906 -0.597656,0.94921 -0.878906,1.17187 -0.316407,0.26953 -0.667969,0.43359 -0.925782,0.52734 l 0.257813,0.87891 c 0.269531,-0.0469 0.785156,-0.22266 1.300781,-0.67969 0.714844,-0.62109 1.230469,-1.64062 1.992188,-3.63281 l 1.582031,-4.148437 h -1.113281 l -1.148438,3.410156 c -0.152344,0.421875 -0.269531,0.867188 -0.375,1.21875 h -0.02344 c -0.09375,-0.351562 -0.246094,-0.808594 -0.375,-1.195312 l -1.265625,-3.433594 z m 58.086914,5.812497 h 1.054688 v -3.492185 c 0,-0.175781 0.02344,-0.363281 0.07031,-0.492187 0.175782,-0.585938 0.714844,-1.078125 1.417969,-1.078125 0.996094,0 1.347656,0.773437 1.347656,1.710937 v 3.35156 h 1.054688 v -3.468747 c 0,-1.992188 -1.253906,-2.472656 -2.050781,-2.472656 -0.960938,0 -1.640625,0.539062 -1.921875,1.089843 h -0.02344 l -0.05859,-0.960937 h -0.9375 c 0.03516,0.480469 0.04687,0.972656 0.04687,1.582031 z m 7.713868,0 v -5.812497 h -1.054688 v 5.812497 z m -0.527344,-8.097653 c -0.386719,0 -0.667969,0.28125 -0.667969,0.65625 0,0.363281 0.269531,0.644531 0.644531,0.644531 0.421875,0 0.679688,-0.28125 0.667969,-0.644531 0,-0.375 -0.246094,-0.65625 -0.644531,-0.65625 z m 3.134766,8.097653 0.05859,-0.960935 h 0.03516 c 0.433593,0.773435 1.101562,1.089845 1.945312,1.089845 1.289063,0 2.601563,-1.031251 2.601563,-3.10547 0.01172,-1.757812 -1.007813,-2.964843 -2.449219,-2.964843 -0.9375,0 -1.605469,0.421875 -1.980469,1.066406 h -0.02344 v -3.644531 h -1.042969 v 7.019531 c 0,0.515625 -0.02344,1.101567 -0.04687,1.499997 z m 0.1875,-3.374997 c 0,-0.164063 0.03516,-0.304688 0.05859,-0.433594 0.210938,-0.796875 0.890625,-1.289062 1.605469,-1.289062 1.125,0 1.734375,0.996093 1.734375,2.15625 0,1.335937 -0.667969,2.238283 -1.769531,2.238283 -0.761719,0 -1.382813,-0.503908 -1.582031,-1.24219 -0.02344,-0.117187 -0.04687,-0.246093 -0.04687,-0.386718 z m 5.786132,3.374997 h 1.054688 v -3.503903 c 0,-0.199219 0.01172,-0.363282 0.07031,-0.503907 0.1875,-0.574218 0.726563,-1.054687 1.417969,-1.054687 0.996094,0 1.347656,0.785156 1.347656,1.722656 v 3.339841 h 1.054688 v -3.457028 c 0,-2.003907 -1.253906,-2.484375 -2.027344,-2.484375 -0.398437,0 -0.773437,0.117187 -1.089844,0.304687 -0.316406,0.175781 -0.585937,0.445313 -0.75,0.738281 H 53.1617 v -3.621093 h -1.05468 z m -115.324218,11.69239 c 0.01172,-0.11719 0.03516,-0.28125 0.03516,-0.49219 0,-1.07813 -0.503906,-2.74219 -2.402344,-2.74219 -1.6875,0 -2.71875,1.38281 -2.71875,3.12891 0,1.75781 1.066406,2.92968 2.859375,2.92968 0.914063,0 1.558594,-0.1875 1.921875,-0.35156 l -0.175781,-0.76172 c -0.398438,0.16407 -0.855469,0.30469 -1.605469,0.30469 -1.054687,0 -1.96875,-0.59766 -1.992187,-2.01562 z m -4.066407,-0.76172 c 0.08203,-0.72657 0.550782,-1.71094 1.617188,-1.71094 1.195312,0 1.476562,1.04297 1.464844,1.71094 z m 10.265625,-2.34375 h -1.054687 v 3.57422 c 0,0.1875 -0.03516,0.375 -0.09375,0.53906 -0.1875,0.46875 -0.679688,0.96094 -1.394531,0.96094 -0.960938,0 -1.289063,-0.75 -1.289063,-1.85157 v -3.22265 h -1.054687 v 3.39843 c 0,2.03907 1.089843,2.54297 2.003906,2.54297 1.03125,0 1.640625,-0.60937 1.921875,-1.07812 h 0.02344 l 0.05859,0.94922 h 0.9375 c -0.04687,-0.45703 -0.05859,-0.98438 -0.05859,-1.58203 z m 2.81543,5.8125 v -5.8125 h -1.054687 v 5.8125 z m -0.527344,-8.09766 c -0.386718,0 -0.667968,0.28125 -0.667968,0.65625 0,0.36328 0.269531,0.64453 0.644531,0.64453 0.421875,0 0.679687,-0.28125 0.667969,-0.64453 0,-0.375 -0.246094,-0.65625 -0.644532,-0.65625 z m 1.872071,7.81641 c 0.410156,0.24609 0.996093,0.39843 1.628906,0.39843 1.382812,0 2.179687,-0.71484 2.179687,-1.73437 0,-0.86719 -0.515625,-1.37109 -1.535156,-1.75781 -0.75,-0.28125 -1.101562,-0.50391 -1.101562,-0.98438 0,-0.43359 0.351562,-0.78515 0.972656,-0.78515 0.539062,0 0.960937,0.1875 1.195312,0.32812 l 0.257813,-0.76172 c -0.328125,-0.19922 -0.84375,-0.36328 -1.429688,-0.36328 -1.242187,0 -2.003906,0.77344 -2.003906,1.71094 0,0.6914 0.492188,1.26562 1.535156,1.64062 0.785157,0.28125 1.089844,0.5625 1.089844,1.06641 0,0.48047 -0.363281,0.86719 -1.136719,0.86719 -0.527343,0 -1.078125,-0.22266 -1.394531,-0.42188 z m 5.162109,0.28125 h 1.03125 v -3.50391 c 0,-0.17578 0.02344,-0.36328 0.08203,-0.51562 0.164063,-0.52735 0.644531,-1.05469 1.3125,-1.05469 0.796875,0 1.207031,0.66797 1.207031,1.59375 v 3.48047 h 1.03125 v -3.58594 c 0,-0.19922 0.03516,-0.38672 0.08203,-0.52734 0.1875,-0.51563 0.65625,-0.96094 1.253906,-0.96094 0.84375,0 1.253906,0.66797 1.253906,1.78125 v 3.29297 h 1.03125 v -3.42188 c 0,-2.01562 -1.136719,-2.51953 -1.898437,-2.51953 -0.5625,0 -0.9375,0.14063 -1.289063,0.41016 -0.246094,0.17578 -0.46875,0.43359 -0.644531,0.75 h -0.02344 c -0.257812,-0.67969 -0.855468,-1.16016 -1.652343,-1.16016 -0.960938,0 -1.5,0.51563 -1.816407,1.06641 h -0.03516 l -0.04687,-0.9375 h -0.925781 c 0.03516,0.48047 0.04687,0.97265 0.04687,1.58203 z m 12.46875,-5.94141 c -1.617188,0 -2.882813,1.13672 -2.882813,3.08203 0,1.83985 1.207032,2.98828 2.777344,2.98828 1.40625,0 2.894531,-0.9375 2.894531,-3.08203 0,-1.76953 -1.125,-2.98828 -2.789062,-2.98828 z m -0.02344,0.79688 c 1.242188,0 1.734375,1.24218 1.734375,2.22656 0,1.3125 -0.75,2.26172 -1.757812,2.26172 -1.03125,0 -1.769531,-0.96094 -1.769531,-2.23828 0,-1.10157 0.539062,-2.25 1.792968,-2.25 z m 8.109375,-3.375 v 3.46875 h -0.02344 c -0.269531,-0.46875 -0.867188,-0.89063 -1.757813,-0.89063 -1.417968,0 -2.613281,1.18359 -2.601562,3.11719 0,1.76953 1.078125,2.95312 2.484375,2.95312 0.949219,0 1.652344,-0.49218 1.980469,-1.13672 h 0.02344 l 0.04687,1.00782 h 0.949219 c -0.03516,-0.39844 -0.04687,-0.98438 -0.04687,-1.5 v -7.01953 z m 0,6.08203 c 0,0.16406 -0.01172,0.3164 -0.04687,0.45703 -0.199218,0.79687 -0.84375,1.26562 -1.558593,1.26562 -1.136719,0 -1.710938,-0.97265 -1.710938,-2.15625 0,-1.27734 0.644531,-2.23828 1.746094,-2.23828 0.785156,0 1.359375,0.55078 1.523437,1.21875 0.03516,0.12891 0.04687,0.31641 0.04687,0.44531 z m 66.94336,-4.75782 v 1.38282 h -0.902344 v 0.80859 h 0.902344 v 3.16406 c 0,0.69141 0.105469,1.20703 0.410156,1.51172 0.257813,0.29297 0.644531,0.44531 1.136719,0.44531 0.410156,0 0.738281,-0.0586 0.9375,-0.14062 l -0.04687,-0.79688 c -0.128906,0.0352 -0.339844,0.082 -0.609375,0.082 -0.585938,0 -0.796875,-0.41016 -0.796875,-1.13672 v -3.12891 h 1.511719 v -0.80859 h -1.511719 v -1.66407 z m 4.790039,7.19532 v -5.8125 h -1.054688 v 5.8125 z m -0.527344,-8.09766 c -0.386719,0 -0.667969,0.28125 -0.667969,0.65625 0,0.36328 0.269532,0.64453 0.644532,0.64453 0.421875,0 0.679687,-0.28125 0.667968,-0.64453 0,-0.375 -0.246093,-0.65625 -0.644531,-0.65625 z m 2.282227,8.09766 h 1.054687 v -3.49219 c 0,-0.17578 0.02344,-0.36328 0.07031,-0.49219 0.175781,-0.58594 0.714843,-1.07812 1.417968,-1.07812 0.996094,0 1.347657,0.77343 1.347657,1.71093 v 3.35157 h 1.054687 v -3.46875 c 0,-1.99219 -1.253906,-2.47266 -2.050781,-2.47266 -0.960938,0 -1.640625,0.53906 -1.921875,1.08984 h -0.02344 l -0.05859,-0.96093 h -0.9375 c 0.03516,0.48047 0.04687,0.97265 0.04687,1.58203 z m 10.620117,-1.00782 c -0.304688,0.12891 -0.703125,0.29297 -1.300781,0.29297 -1.148438,0 -2.015625,-0.83203 -2.015625,-2.17968 0,-1.20704 0.714843,-2.19141 2.050781,-2.19141 0.574219,0 0.972656,0.12891 1.230469,0.26953 l 0.234375,-0.80859 c -0.28125,-0.15235 -0.84375,-0.30469 -1.464844,-0.30469 -1.898438,0 -3.117188,1.30078 -3.117188,3.08203 0,1.78125 1.136719,2.96484 2.894532,2.96484 0.773437,0 1.382812,-0.1875 1.664062,-0.32812 z m 2.469726,1.00782 v -5.8125 h -1.054687 v 5.8125 z m -0.527343,-8.09766 c -0.386719,0 -0.667969,0.28125 -0.667969,0.65625 0,0.36328 0.269531,0.64453 0.644531,0.64453 0.421875,0 0.679688,-0.28125 0.667969,-0.64453 0,-0.375 -0.246094,-0.65625 -0.644531,-0.65625 z m 6.243164,-0.42187 v 3.46875 h -0.02344 c -0.269531,-0.46875 -0.867187,-0.89063 -1.757812,-0.89063 -1.417969,0 -2.613281,1.18359 -2.601563,3.11719 0,1.76953 1.078125,2.95312 2.484375,2.95312 0.949219,0 1.652344,-0.49218 1.980469,-1.13672 h 0.02344 l 0.04687,1.00782 h 0.949218 c -0.03516,-0.39844 -0.04687,-0.98438 -0.04687,-1.5 v -7.01953 z m 0,6.08203 c 0,0.16406 -0.01172,0.3164 -0.04687,0.45703 -0.199219,0.79687 -0.84375,1.26562 -1.558594,1.26562 -1.136719,0 -1.710937,-0.97265 -1.710937,-2.15625 0,-1.27734 0.644531,-2.23828 1.746093,-2.23828 0.785157,0 1.359375,0.55078 1.523438,1.21875 0.03516,0.12891 0.04687,0.31641 0.04687,0.44531 z m 2.291015,-1.19532 v 0.77344 h 2.964844 v -0.77344 z m 36.890621,-2.17968 h -1.05468 v 3.57422 c 0,0.1875 -0.0352,0.375 -0.0937,0.53906 -0.1875,0.46875 -0.67969,0.96094 -1.39453,0.96094 -0.96094,0 -1.28907,-0.75 -1.28907,-1.85157 v -3.22265 h -1.054684 v 3.39843 c 0,2.03907 1.089834,2.54297 2.003914,2.54297 1.03125,0 1.64062,-0.60937 1.92187,-1.07812 h 0.0234 l 0.0586,0.94922 h 0.9375 c -0.0469,-0.45703 -0.0586,-0.98438 -0.0586,-1.58203 z m 1.76074,5.8125 h 1.05469 v -3.49219 c 0,-0.17578 0.0234,-0.36328 0.0703,-0.49219 0.17578,-0.58594 0.71485,-1.07812 1.41797,-1.07812 0.99609,0 1.34766,0.77343 1.34766,1.71093 v 3.35157 h 1.05468 v -3.46875 c 0,-1.99219 -1.2539,-2.47266 -2.05078,-2.47266 -0.96093,0 -1.64062,0.53906 -1.92187,1.08984 h -0.0234 l -0.0586,-0.96093 h -0.9375 c 0.0352,0.48047 0.0469,0.97265 0.0469,1.58203 z m 6.84669,-7.19532 v 1.38282 h -0.90234 v 0.80859 h 0.90234 v 3.16406 c 0,0.69141 0.10546,1.20703 0.41016,1.51172 0.25781,0.29297 0.64453,0.44531 1.13672,0.44531 0.41015,0 0.73828,-0.0586 0.9375,-0.14062 l -0.0469,-0.79688 c -0.1289,0.0352 -0.33984,0.082 -0.60937,0.082 -0.58594,0 -0.79688,-0.41016 -0.79688,-1.13672 v -3.12891 h 1.51172 v -0.80859 h -1.51172 v -1.66407 z m 11.1328,1.38282 h -1.05468 v 3.57422 c 0,0.1875 -0.0352,0.375 -0.0937,0.53906 -0.1875,0.46875 -0.67969,0.96094 -1.39453,0.96094 -0.96094,0 -1.28907,-0.75 -1.28907,-1.85157 v -3.22265 h -1.05468 v 3.39843 c 0,2.03907 1.08984,2.54297 2.0039,2.54297 1.03125,0 1.64063,-0.60937 1.92188,-1.07812 h 0.0234 l 0.0586,0.94922 h 0.9375 c -0.0469,-0.45703 -0.0586,-0.98438 -0.0586,-1.58203 z m 1.99512,-1.38282 v 1.38282 h -0.90234 v 0.80859 h 0.90234 v 3.16406 c 0,0.69141 0.10547,1.20703 0.41016,1.51172 0.25782,0.29297 0.64454,0.44531 1.13672,0.44531 0.41015,0 0.73828,-0.0586 0.9375,-0.14062 l -0.0469,-0.79688 c -0.12891,0.0352 -0.33984,0.082 -0.60936,0.082 -0.58594,0 -0.79688,-0.41016 -0.79688,-1.13672 v -3.12891 h 1.51171 v -0.80859 h -1.51171 v -1.66407 z m 6.28125,7.19532 h 1.05469 v -8.51953 h -1.05469 z m 7.00489,0 c -0.0703,-0.39844 -0.0937,-0.89063 -0.0937,-1.39453 v -2.16797 c 0,-1.16016 -0.43359,-2.37891 -2.21484,-2.37891 -0.72656,0 -1.41797,0.21094 -1.89844,0.51563 l 0.23438,0.70312 c 0.41015,-0.26953 0.97265,-0.43359 1.51172,-0.43359 1.19531,0 1.32422,0.85547 1.32422,1.33593 v 0.12891 c -2.25,-0.0117 -3.49219,0.75 -3.49219,2.15625 0,0.84375 0.59765,1.66406 1.76953,1.66406 0.83203,0 1.45312,-0.41015 1.78125,-0.85547 h 0.0352 l 0.082,0.72657 z m -1.11328,-1.95703 c 0,0.10546 -0.0234,0.23437 -0.0586,0.33984 -0.17578,0.49219 -0.65625,0.97266 -1.40625,0.97266 -0.53906,0 -0.99609,-0.32813 -0.99609,-1.00782 0,-1.13672 1.3125,-1.33593 2.46093,-1.3125 z m 5.18555,-3.98438 c -1.61719,0 -2.88281,1.13672 -2.88281,3.08203 0,1.83985 1.20703,2.98828 2.77734,2.98828 1.40625,0 2.89453,-0.9375 2.89453,-3.08203 0,-1.76953 -1.125,-2.98828 -2.78906,-2.98828 z m -0.0234,0.79688 c 1.24218,0 1.73437,1.24218 1.73437,2.22656 0,1.3125 -0.75,2.26172 -1.75782,2.26172 -1.03125,0 -1.76953,-0.96094 -1.76953,-2.23828 0,-1.10157 0.53907,-2.25 1.79298,-2.25 z m 4.15137,5.14453 h 1.04297 v -3.09375 c 0,-0.1875 0.0234,-0.35157 0.0469,-0.49219 0.14062,-0.79688 0.66797,-1.35938 1.41797,-1.35938 0.14062,0 0.2461,0.0117 0.35156,0.0352 v -0.99609 c -0.0937,-0.0234 -0.17578,-0.0352 -0.29296,-0.0352 -0.71485,0 -1.34766,0.49219 -1.60547,1.27734 h -0.0469 l -0.0352,-1.14843 h -0.92579 c 0.0352,0.53906 0.0469,1.13672 0.0469,1.8164 z m 8.4668,-2.70703 c 0.0117,-0.11719 0.0351,-0.28125 0.0351,-0.49219 0,-1.07813 -0.5039,-2.74219 -2.40234,-2.74219 -1.6875,0 -2.71875,1.38281 -2.71875,3.12891 0,1.75781 1.06639,2.92968 2.85937,2.92968 0.91407,0 1.5586,-0.1875 1.92188,-0.35156 l -0.17578,-0.76172 c -0.39844,0.16407 -0.85547,0.30469 -1.60547,0.30469 -1.05469,0 -1.96875,-0.59766 -1.99219,-2.01562 z m -4.06641,-0.76172 c 0.082,-0.72657 0.55078,-1.71094 1.61719,-1.71094 1.19531,0 1.47656,1.04297 1.46484,1.71094 z m 10.07812,0.76172 c 0.0117,-0.11719 0.0352,-0.28125 0.0352,-0.49219 0,-1.07813 -0.50391,-2.74219 -2.40234,-2.74219 -1.6875,0 -2.71875,1.38281 -2.71875,3.12891 0,1.75781 1.0664,2.92968 2.85937,2.92968 0.91406,0 1.5586,-0.1875 1.92188,-0.35156 l -0.17578,-0.76172 c -0.39844,0.16407 -0.85547,0.30469 -1.60547,0.30469 -1.05469,0 -1.96875,-0.59766 -1.99219,-2.01562 z m -4.0664,-0.76172 c 0.082,-0.72657 0.55078,-1.71094 1.61719,-1.71094 1.19531,0 1.47656,1.04297 1.46484,1.71094 z m 5.64844,-3.72657 v 1.38282 h -0.90235 v 0.80859 h 0.90235 v 3.16406 c 0,0.69141 0.10546,1.20703 0.41015,1.51172 0.25781,0.29297 0.64453,0.44531 1.13672,0.44531 0.41016,0 0.73828,-0.0586 0.9375,-0.14062 l -0.0469,-0.79688 c -0.12891,0.0352 -0.33985,0.082 -0.60938,0.082 -0.58594,0 -0.79687,-0.41016 -0.79687,-1.13672 v -3.12891 h 1.51171 v -0.80859 h -1.51171 v -1.66407 z m 10.24218,-1.32421 v 3.46875 h -0.0234 c -0.26954,-0.46875 -0.86719,-0.89063 -1.75782,-0.89063 -1.41797,0 -2.61328,1.18359 -2.60156,3.11719 0,1.76953 1.07813,2.95312 2.48438,2.95312 0.9492,0 1.65234,-0.49218 1.98045,-1.13672 h 0.0234 l 0.0469,1.00782 h 0.94922 c -0.0352,-0.39844 -0.0469,-0.98438 -0.0469,-1.5 v -7.01953 z m 0,6.08203 c 0,0.16406 -0.0117,0.3164 -0.0469,0.45703 -0.19922,0.79687 -0.84375,1.26562 -1.5586,1.26562 -1.13671,0 -1.71093,-0.97265 -1.71093,-2.15625 0,-1.27734 0.64453,-2.23828 1.74609,-2.23828 0.78516,0 1.35938,0.55078 1.52344,1.21875 0.0352,0.12891 0.0469,0.31641 0.0469,0.44531 z m 5.26758,-3.50391 c -1.61719,0 -2.88281,1.13672 -2.88281,3.08203 0,1.83985 1.20703,2.98828 2.77734,2.98828 1.40625,0 2.89453,-0.9375 2.89453,-3.08203 0,-1.76953 -1.125,-2.98828 -2.78906,-2.98828 z m -0.0234,0.79688 c 1.24219,0 1.73438,1.24218 1.73438,2.22656 0,1.3125 -0.75,2.26172 -1.75781,2.26172 -1.03125,0 -1.76953,-0.96094 -1.76953,-2.23828 0,-1.10157 0.53906,-2.25 1.79296,-2.25 z m 4.15137,5.14453 h 1.05469 v -8.51953 h -1.05469 z m 5.29395,-5.94141 c -1.61719,0 -2.88282,1.13672 -2.88282,3.08203 0,1.83985 1.20704,2.98828 2.77735,2.98828 1.40625,0 2.89453,-0.9375 2.89453,-3.08203 0,-1.76953 -1.125,-2.98828 -2.78906,-2.98828 z m -0.0234,0.79688 c 1.24219,0 1.73437,1.24218 1.73437,2.22656 0,1.3125 -0.75,2.26172 -1.75781,2.26172 -1.03125,0 -1.76953,-0.96094 -1.76953,-2.23828 0,-1.10157 0.53906,-2.25 1.79297,-2.25 z m 4.15137,5.14453 h 1.04297 v -3.09375 c 0,-0.1875 0.0234,-0.35157 0.0469,-0.49219 0.14063,-0.79688 0.66797,-1.35938 1.41797,-1.35938 0.14062,0 0.24609,0.0117 0.35156,0.0352 v -0.99609 c -0.0937,-0.0234 -0.17578,-0.0352 -0.29297,-0.0352 -0.71484,0 -1.34765,0.49219 -1.60547,1.27734 h -0.0469 l -0.0352,-1.14843 h -0.92578 c 0.0352,0.53906 0.0469,1.13672 0.0469,1.8164 z m 8.46679,-2.70703 c 0.0117,-0.11719 0.0352,-0.28125 0.0352,-0.49219 0,-1.07813 -0.50391,-2.74219 -2.40234,-2.74219 -1.6875,0 -2.71875,1.38281 -2.71875,3.12891 0,1.75781 1.0664,2.92968 2.85937,2.92968 0.91406,0 1.55859,-0.1875 1.92188,-0.35156 l -0.17579,-0.76172 c -0.39843,0.16407 -0.85546,0.30469 -1.60546,0.30469 -1.05469,0 -1.96875,-0.59766 -1.99219,-2.01562 z m -4.0664,-0.76172 c 0.082,-0.72657 0.55078,-1.71094 1.61718,-1.71094 1.19532,0 1.47657,1.04297 1.46485,1.71094 z m 7.95703,3.46875 h 1.03125 v -3.50391 c 0,-0.17578 0.0234,-0.36328 0.082,-0.51562 0.16406,-0.52735 0.64453,-1.05469 1.3125,-1.05469 0.79687,0 1.20703,0.66797 1.20703,1.59375 v 3.48047 h 1.03125 v -3.58594 c 0,-0.19922 0.0352,-0.38672 0.082,-0.52734 0.1875,-0.51563 0.65625,-0.96094 1.25391,-0.96094 0.84375,0 1.2539,0.66797 1.2539,1.78125 v 3.29297 h 1.03125 v -3.42188 c 0,-2.01562 -1.13671,-2.51953 -1.89843,-2.51953 -0.5625,0 -0.9375,0.14063 -1.28907,0.41016 -0.24609,0.17578 -0.46875,0.43359 -0.64453,0.75 h -0.0234 c -0.25783,-0.67969 -0.85547,-1.16016 -1.65236,-1.16016 -0.96094,0 -1.5,0.51563 -1.81639,1.06641 h -0.0352 l -0.0469,-0.9375 h -0.92578 c 0.0352,0.48047 0.0469,0.97265 0.0469,1.58203 z m 14.17969,0 c -0.0703,-0.39844 -0.0937,-0.89063 -0.0937,-1.39453 v -2.16797 c 0,-1.16016 -0.4336,-2.37891 -2.21485,-2.37891 -0.72656,0 -1.41797,0.21094 -1.89844,0.51563 l 0.23438,0.70312 c 0.41015,-0.26953 0.97265,-0.43359 1.51172,-0.43359 1.19531,0 1.32422,0.85547 1.32422,1.33593 v 0.12891 c -2.25,-0.0117 -3.49219,0.75 -3.49219,2.15625 0,0.84375 0.59765,1.66406 1.76953,1.66406 0.83203,0 1.45312,-0.41015 1.78125,-0.85547 h 0.0352 l 0.082,0.72657 z m -1.11329,-1.95703 c 0,0.10546 -0.0234,0.23437 -0.0586,0.33984 -0.17578,0.49219 -0.65625,0.97266 -1.40625,0.97266 -0.53906,0 -0.99609,-0.32813 -0.99609,-1.00782 0,-1.13672 1.3125,-1.33593 2.46093,-1.3125 z m 6.80567,-3.85547 -0.0469,0.8789 h -0.0234 c -0.25782,-0.48047 -0.8086,-1.00781 -1.81641,-1.00781 -1.33594,0 -2.61328,1.11328 -2.61328,3.08203 0,1.61719 1.03125,2.83594 2.47265,2.83594 0.90235,0 1.52344,-0.43359 1.85157,-0.97266 h 0.0234 v 0.64453 c 0,1.46485 -0.79687,2.02735 -1.875,2.02735 -0.72656,0 -1.32421,-0.21094 -1.71093,-0.45703 l -0.25782,0.80859 c 0.46875,0.31641 1.23047,0.48047 1.9336,0.48047 0.72656,0 1.54687,-0.16406 2.10937,-0.69141 0.5625,-0.5039 0.83203,-1.32422 0.83203,-2.66015 v -3.36328 c 0,-0.71485 0.0234,-1.1836 0.0469,-1.60547 z m -0.16406,3.33984 c 0,0.17578 -0.0234,0.38672 -0.0937,0.5625 -0.22266,0.67969 -0.80861,1.07813 -1.46486,1.07813 -1.13672,0 -1.71094,-0.94922 -1.71094,-2.08594 0,-1.34766 0.71486,-2.19141 1.73438,-2.19141 0.76172,0 1.27734,0.50391 1.46484,1.11328 0.0586,0.14063 0.0703,0.30469 0.0703,0.48047 z m 2.72168,2.47266 h 1.05468 v -3.49219 c 0,-0.17578 0.0234,-0.36328 0.0703,-0.49219 0.17578,-0.58594 0.71484,-1.07812 1.41795,-1.07812 0.99611,0 1.34766,0.77343 1.34766,1.71093 v 3.35157 h 1.05469 v -3.46875 c 0,-1.99219 -1.25391,-2.47266 -2.05078,-2.47266 -0.96094,0 -1.64063,0.53906 -1.92188,1.08984 h -0.0234 l -0.0586,-0.96093 h -0.9375 c 0.0352,0.48047 0.0469,0.97265 0.0469,1.58203 z m 10.83105,0 c -0.0703,-0.39844 -0.0937,-0.89063 -0.0937,-1.39453 v -2.16797 c 0,-1.16016 -0.4336,-2.37891 -2.21485,-2.37891 -0.72657,0 -1.41797,0.21094 -1.89844,0.51563 l 0.23438,0.70312 c 0.41016,-0.26953 0.97266,-0.43359 1.51172,-0.43359 1.19532,0 1.32422,0.85547 1.32422,1.33593 v 0.12891 c -2.25,-0.0117 -3.49219,0.75 -3.49219,2.15625 0,0.84375 0.59766,1.66406 1.76954,1.66406 0.83203,0 1.45312,-0.41015 1.78125,-0.85547 h 0.0352 l 0.082,0.72657 z m -1.11328,-1.95703 c 0,0.10546 -0.0234,0.23437 -0.0586,0.33984 -0.17579,0.49219 -0.65625,0.97266 -1.40625,0.97266 -0.53907,0 -0.9961,-0.32813 -0.9961,-1.00782 0,-1.13672 1.3125,-1.33593 2.46094,-1.3125 z m -300.890631,16.35644 c -0.07031,-0.39844 -0.09375,-0.89062 -0.09375,-1.39453 v -2.16797 c 0,-1.16016 -0.433594,-2.37891 -2.214844,-2.37891 -0.726562,0 -1.417968,0.21094 -1.898437,0.51563 l 0.234375,0.70312 c 0.410156,-0.26953 0.972656,-0.43359 1.511719,-0.43359 1.195312,0 1.324218,0.85547 1.324218,1.33594 v 0.1289 c -2.25,-0.0117 -3.492187,0.75 -3.492187,2.15625 0,0.84375 0.597656,1.66407 1.769531,1.66407 0.832031,0 1.453125,-0.41016 1.78125,-0.85547 h 0.03516 l 0.08203,0.72656 z m -1.113281,-1.95703 c 0,0.10547 -0.02344,0.23437 -0.05859,0.33984 -0.175781,0.49219 -0.65625,0.97266 -1.40625,0.97266 -0.539062,0 -0.996094,-0.32813 -0.996094,-1.00781 0,-1.13672 1.3125,-1.33594 2.460938,-1.3125 z m 2.724609,1.95703 h 1.054688 v -8.51953 h -1.054688 z m 3.887696,0 v -5.8125 h -1.054688 v 5.8125 z m -0.527344,-8.09766 c -0.386719,0 -0.667969,0.28125 -0.667969,0.65625 0,0.36329 0.269531,0.64454 0.644531,0.64454 0.421875,0 0.679688,-0.28125 0.667969,-0.64454 0,-0.375 -0.246094,-0.65625 -0.644531,-0.65625 z m 6.240234,10.47657 h 1.054688 v -6.58594 c 0,-0.60938 0.01172,-1.11328 0.03516,-1.60547 h -0.996094 l -0.03516,0.87891 h -0.02344 c -0.292968,-0.5625 -0.890625,-1.00782 -1.792968,-1.00782 -1.21875,0 -2.625,0.96094 -2.625,3.12891 0,1.76953 1.101562,2.94141 2.460937,2.94141 0.9375,0 1.582031,-0.45703 1.898438,-1.03125 h 0.02344 z m 0,-4.7461 c 0,0.16407 -0.03516,0.36328 -0.08203,0.50391 -0.246094,0.73828 -0.832031,1.16016 -1.523438,1.16016 -1.160156,0 -1.710937,-1.00782 -1.710937,-2.16797 0,-1.30078 0.65625,-2.22657 1.757812,-2.22657 0.785157,0 1.347657,0.55079 1.511719,1.19532 0.03516,0.1289 0.04687,0.30468 0.04687,0.44531 z m 7.646485,-3.44531 h -1.054688 v 3.57422 c 0,0.1875 -0.03516,0.375 -0.09375,0.53906 -0.1875,0.46875 -0.679687,0.96094 -1.394531,0.96094 -0.960938,0 -1.289063,-0.75 -1.289063,-1.85156 v -3.22266 h -1.054687 v 3.39844 c 0,2.03906 1.089844,2.54297 2.003906,2.54297 1.03125,0 1.640625,-0.60938 1.921875,-1.07813 h 0.02344 l 0.05859,0.94922 h 0.9375 c -0.04687,-0.45703 -0.05859,-0.98437 -0.05859,-1.58203 z m 5.932617,5.8125 c -0.07031,-0.39844 -0.09375,-0.89062 -0.09375,-1.39453 v -2.16797 c 0,-1.16016 -0.433594,-2.37891 -2.214844,-2.37891 -0.726563,0 -1.417969,0.21094 -1.898438,0.51563 l 0.234375,0.70312 c 0.410157,-0.26953 0.972657,-0.43359 1.511719,-0.43359 1.195313,0 1.324219,0.85547 1.324219,1.33594 v 0.1289 c -2.25,-0.0117 -3.492188,0.75 -3.492188,2.15625 0,0.84375 0.597657,1.66407 1.769532,1.66407 0.832031,0 1.453125,-0.41016 1.78125,-0.85547 h 0.03516 l 0.08203,0.72656 z m -1.113282,-1.95703 c 0,0.10547 -0.02344,0.23437 -0.05859,0.33984 -0.175782,0.49219 -0.65625,0.97266 -1.40625,0.97266 -0.539063,0 -0.996094,-0.32813 -0.996094,-1.00781 0,-1.13672 1.3125,-1.33594 2.460937,-1.3125 z m 2.72754,1.95703 h 1.03125 v -3.50391 c 0,-0.17578 0.02344,-0.36328 0.08203,-0.51562 0.164062,-0.52734 0.644531,-1.05469 1.3125,-1.05469 0.796875,0 1.207031,0.66797 1.207031,1.59375 v 3.48047 h 1.03125 v -3.58594 c 0,-0.19922 0.03516,-0.38672 0.08203,-0.52734 0.1875,-0.51563 0.65625,-0.96094 1.253907,-0.96094 0.84375,0 1.253906,0.66797 1.253906,1.78125 v 3.29297 h 1.03125 v -3.42187 c 0,-2.01563 -1.136719,-2.51954 -1.898438,-2.51954 -0.5625,0 -0.9375,0.14063 -1.289062,0.41016 -0.246094,0.17578 -0.46875,0.43359 -0.644531,0.75 h -0.02344 c -0.257812,-0.67969 -0.855469,-1.16016 -1.652344,-1.16016 -0.960937,0 -1.5,0.51563 -1.816406,1.06641 h -0.03516 l -0.04687,-0.9375 h -0.925781 c 0.03516,0.48047 0.04687,0.97266 0.04687,1.58203 z m 85.280273,-2.70703 c 0.01172,-0.11719 0.03516,-0.28125 0.03516,-0.49219 0,-1.07812 -0.503906,-2.74219 -2.402344,-2.74219 -1.6875,0 -2.71875,1.38282 -2.71875,3.12891 0,1.75781 1.066407,2.92969 2.859375,2.92969 0.914063,0 1.558594,-0.1875 1.921875,-0.35156 l -0.175781,-0.76172 c -0.398437,0.16406 -0.855469,0.30468 -1.605469,0.30468 -1.054687,0 -1.96875,-0.59765 -1.992187,-2.01562 z m -4.066406,-0.76172 c 0.08203,-0.72656 0.550781,-1.71094 1.617187,-1.71094 1.195313,0 1.476563,1.04297 1.464844,1.71094 z m 5.414062,3.46875 h 1.042969 v -3.09375 c 0,-0.1875 0.02344,-0.35156 0.04687,-0.49219 0.140625,-0.79687 0.667969,-1.35937 1.417969,-1.35937 0.140625,0 0.246093,0.0117 0.351562,0.0352 v -0.99609 c -0.09375,-0.0234 -0.175781,-0.0352 -0.292969,-0.0352 -0.714843,0 -1.347656,0.49219 -1.605468,1.27735 h -0.04687 l -0.03516,-1.14844 h -0.925781 c 0.03516,0.53906 0.04687,1.13672 0.04687,1.81641 z m 8.036133,0 c -0.07031,-0.39844 -0.09375,-0.89062 -0.09375,-1.39453 v -2.16797 c 0,-1.16016 -0.433594,-2.37891 -2.214844,-2.37891 -0.726562,0 -1.417968,0.21094 -1.898437,0.51563 l 0.234375,0.70312 c 0.410156,-0.26953 0.972656,-0.43359 1.511719,-0.43359 1.195312,0 1.324218,0.85547 1.324218,1.33594 v 0.1289 c -2.25,-0.0117 -3.492187,0.75 -3.492187,2.15625 0,0.84375 0.597656,1.66407 1.769531,1.66407 0.832031,0 1.453125,-0.41016 1.78125,-0.85547 h 0.03516 l 0.08203,0.72656 z m -1.113281,-1.95703 c 0,0.10547 -0.02344,0.23437 -0.05859,0.33984 -0.175781,0.49219 -0.65625,0.97266 -1.40625,0.97266 -0.539062,0 -0.996094,-0.32813 -0.996094,-1.00781 0,-1.13672 1.3125,-1.33594 2.460938,-1.3125 z m 2.909179,-5.23828 v 1.38281 H 58.25362 v 0.80859 h 0.902343 v 3.16407 c 0,0.6914 0.105469,1.20703 0.410157,1.51172 0.257812,0.29296 0.644531,0.44531 1.136718,0.44531 0.410157,0 0.738282,-0.0586 0.9375,-0.14063 l -0.04687,-0.79687 c -0.128906,0.0351 -0.339843,0.082 -0.609375,0.082 -0.585937,0 -0.796875,-0.41016 -0.796875,-1.13672 v -3.12891 h 1.511719 v -0.80859 h -1.511719 v -1.66406 z m 28.980469,1.38281 2.214844,5.8125 h 1.007812 l 2.273438,-5.8125 h -1.101563 l -1.125,3.26953 c -0.199218,0.52735 -0.363281,1.00781 -0.492187,1.48828 h -0.03516 c -0.117188,-0.48047 -0.28125,-0.96093 -0.46875,-1.48828 l -1.136719,-3.26953 z m 8.838867,-0.12891 c -1.617187,0 -2.882812,1.13672 -2.882812,3.08204 0,1.83984 1.207031,2.98828 2.777344,2.98828 1.40625,0 2.894531,-0.9375 2.894531,-3.08203 0,-1.76954 -1.125,-2.98829 -2.789063,-2.98829 z m -0.02344,0.79688 c 1.242187,0 1.734375,1.24219 1.734375,2.22656 0,1.3125 -0.75,2.26172 -1.757813,2.26172 -1.03125,0 -1.769531,-0.96094 -1.769531,-2.23828 0,-1.10156 0.539063,-2.25 1.792969,-2.25 z m 4.151361,5.14453 h 1.05469 v -8.51953 h -1.05469 z m 7.68164,-5.8125 h -1.05468 v 3.57422 c 0,0.1875 -0.0352,0.375 -0.0937,0.53906 -0.1875,0.46875 -0.67969,0.96094 -1.39453,0.96094 -0.96094,0 -1.28907,-0.75 -1.28907,-1.85156 v -3.22266 h -1.05468 v 3.39844 c 0,2.03906 1.08984,2.54297 2.0039,2.54297 1.03125,0 1.64063,-0.60938 1.92188,-1.07813 h 0.0234 l 0.0586,0.94922 h 0.9375 c -0.0469,-0.45703 -0.0586,-0.98437 -0.0586,-1.58203 z m 1.99512,-1.38281 v 1.38281 h -0.90234 v 0.80859 h 0.90234 v 3.16407 c 0,0.6914 0.10547,1.20703 0.41016,1.51172 0.25781,0.29296 0.64453,0.44531 1.13672,0.44531 0.41015,0 0.73828,-0.0586 0.9375,-0.14063 l -0.0469,-0.79687 c -0.1289,0.0351 -0.33984,0.082 -0.60937,0.082 -0.58594,0 -0.79688,-0.41016 -0.79688,-1.13672 v -3.12891 h 1.51172 v -0.80859 h -1.51172 v -1.66406 z m 3.73828,9.57422 h 1.04297 v -3.16407 h 0.0234 c 0.35156,0.58594 1.01953,0.91407 1.78125,0.91407 1.37109,0 2.64844,-1.03125 2.64844,-3.11719 0,-1.76953 -1.05469,-2.95313 -2.46094,-2.95313 -0.94922,0 -1.62891,0.42188 -2.0625,1.125 h -0.0234 l -0.0469,-0.99609 h -0.94922 c 0.0234,0.55078 0.0469,1.16016 0.0469,1.89844 z m 1.04297,-5.74219 c 0,-0.14063 0.0352,-0.29297 0.0703,-0.43359 0.19922,-0.78516 0.87891,-1.30079 1.59375,-1.30079 1.11329,0 1.73438,0.9961 1.73438,2.15625 0,1.33594 -0.65625,2.25 -1.76953,2.25 -0.75,0 -1.39453,-0.5039 -1.58203,-1.24218 -0.0234,-0.12891 -0.0469,-0.26953 -0.0469,-0.4336 z m 9.95508,3.36328 c -0.0703,-0.39844 -0.0937,-0.89062 -0.0937,-1.39453 v -2.16797 c 0,-1.16016 -0.43359,-2.37891 -2.21484,-2.37891 -0.72657,0 -1.41797,0.21094 -1.89844,0.51563 l 0.23437,0.70312 c 0.41016,-0.26953 0.97266,-0.43359 1.51172,-0.43359 1.19532,0 1.32422,0.85547 1.32422,1.33594 v 0.1289 c -2.25,-0.0117 -3.49219,0.75 -3.49219,2.15625 0,0.84375 0.59766,1.66407 1.76954,1.66407 0.83203,0 1.45312,-0.41016 1.78125,-0.85547 h 0.0352 l 0.082,0.72656 z m -1.11328,-1.95703 c 0,0.10547 -0.0234,0.23437 -0.0586,0.33984 -0.17579,0.49219 -0.65625,0.97266 -1.40625,0.97266 -0.53907,0 -0.9961,-0.32813 -0.9961,-1.00781 0,-1.13672 1.3125,-1.33594 2.46094,-1.3125 z m 2.91504,-5.23828 v 1.38281 h -0.90235 v 0.80859 h 0.90235 v 3.16407 c 0,0.6914 0.10547,1.20703 0.41015,1.51172 0.25782,0.29296 0.64454,0.44531 1.13672,0.44531 0.41016,0 0.73828,-0.0586 0.9375,-0.14063 l -0.0469,-0.79687 c -0.12891,0.0351 -0.33985,0.082 -0.60938,0.082 -0.58593,0 -0.79687,-0.41016 -0.79687,-1.13672 v -3.12891 h 1.51172 v -0.80859 h -1.51172 v -1.66406 z m 4.15722,7.32422 c 0.44532,0 0.71485,-0.31641 0.71485,-0.75 0,-0.44532 -0.28125,-0.76172 -0.70313,-0.76172 -0.42187,0 -0.72656,0.3164 -0.72656,0.76172 0,0.43359 0.29297,0.75 0.71484,0.75 z m 4.59375,-8.21485 v 4.75782 c 0,2.50781 1.24219,3.45703 2.90625,3.45703 1.7461,0 3.0586,-1.01953 3.0586,-3.50391 v -4.71094 h -1.05469 v 4.78125 c 0,1.79297 -0.77344,2.58985 -1.96875,2.58985 -1.07812,0 -1.88672,-0.77344 -1.88672,-2.58985 v -4.78125 z m 8.02149,0.89063 v 1.38281 h -0.90234 v 0.80859 h 0.90234 v 3.16407 c 0,0.6914 0.10547,1.20703 0.41016,1.51172 0.25781,0.29296 0.64453,0.44531 1.13671,0.44531 0.41016,0 0.73829,-0.0586 0.9375,-0.14063 l -0.0469,-0.79687 c -0.12891,0.0351 -0.33984,0.082 -0.60938,0.082 -0.58593,0 -0.79687,-0.41016 -0.79687,-1.13672 v -3.12891 h 1.51172 v -0.80859 h -1.51172 v -1.66406 z m 5.61328,1.38281 1.75781,5.8125 h 0.96094 l 0.9375,-2.76562 c 0.19922,-0.6211 0.375,-1.21875 0.52734,-1.91016 h 0.0234 c 0.14063,0.67969 0.30469,1.25391 0.51563,1.89844 l 0.89062,2.77734 h 0.96094 l 1.86328,-5.8125 h -1.04297 l -0.82031,2.91797 c -0.19922,0.69141 -0.35156,1.30078 -0.44531,1.88672 h -0.0352 c -0.14062,-0.58594 -0.30469,-1.19531 -0.51562,-1.89844 l -0.90235,-2.90625 h -0.89062 l -0.94922,2.96484 c -0.1875,0.63282 -0.38672,1.25391 -0.51563,1.83985 h -0.0352 c -0.10547,-0.59766 -0.26953,-1.19531 -0.4336,-1.85156 l -0.76172,-2.95313 z m 10.55566,5.8125 v -5.8125 h -1.05468 v 5.8125 z m -0.52734,-8.09766 c -0.38672,0 -0.66797,0.28125 -0.66797,0.65625 0,0.36329 0.26953,0.64454 0.64453,0.64454 0.42188,0 0.67969,-0.28125 0.66797,-0.64454 0,-0.375 -0.24609,-0.65625 -0.64453,-0.65625 z m 1.86914,7.81641 c 0.41016,0.24609 0.99609,0.39844 1.62891,0.39844 1.38281,0 2.17968,-0.71485 2.17968,-1.73438 0,-0.86718 -0.51562,-1.37109 -1.53515,-1.75781 -0.75,-0.28125 -1.10156,-0.50391 -1.10156,-0.98437 0,-0.4336 0.35156,-0.78516 0.97265,-0.78516 0.53906,0 0.96094,0.1875 1.19531,0.32812 l 0.25782,-0.76171 c -0.32813,-0.19922 -0.84375,-0.36329 -1.42969,-0.36329 -1.24219,0 -2.00391,0.77344 -2.00391,1.71094 0,0.69141 0.49219,1.26563 1.53516,1.64063 0.78516,0.28125 1.08984,0.5625 1.08984,1.0664 0,0.48047 -0.36328,0.86719 -1.13672,0.86719 -0.52734,0 -1.07812,-0.22266 -1.39453,-0.42187 z m 6.2168,0.28125 v -5.8125 h -1.05469 v 5.8125 z m -0.52735,-8.09766 c -0.38671,0 -0.66796,0.28125 -0.66796,0.65625 0,0.36329 0.26953,0.64454 0.64453,0.64454 0.42187,0 0.67968,-0.28125 0.66797,-0.64454 0,-0.375 -0.2461,-0.65625 -0.64454,-0.65625 z m 9.48926,5.39063 c 0.0117,-0.11719 0.0352,-0.28125 0.0352,-0.49219 0,-1.07812 -0.50391,-2.74219 -2.40235,-2.74219 -1.6875,0 -2.71875,1.38282 -2.71875,3.12891 0,1.75781 1.06641,2.92969 2.85938,2.92969 0.91406,0 1.55859,-0.1875 1.92187,-0.35156 l -0.17578,-0.76172 c -0.39843,0.16406 -0.85547,0.30468 -1.60547,0.30468 -1.05468,0 -1.96875,-0.59765 -1.99218,-2.01562 z m -4.0664,-0.76172 c 0.082,-0.72656 0.55078,-1.71094 1.61718,-1.71094 1.19532,0 1.47657,1.04297 1.46485,1.71094 z m 5.41406,3.46875 h 1.05469 v -3.49219 c 0,-0.17578 0.0234,-0.36328 0.0703,-0.49218 0.17578,-0.58594 0.71484,-1.07813 1.41797,-1.07813 0.99609,0 1.34765,0.77344 1.34765,1.71094 v 3.35156 h 1.05469 v -3.46875 c 0,-1.99219 -1.25391,-2.47266 -2.05078,-2.47266 -0.96094,0 -1.64063,0.53907 -1.92188,1.08985 h -0.0234 l -0.0586,-0.96094 h -0.9375 c 0.0352,0.48047 0.0469,0.97266 0.0469,1.58203 z m 7.7168,0 v -5.8125 h -1.05469 v 5.8125 z m -0.52735,-8.09766 c -0.38672,0 -0.66797,0.28125 -0.66797,0.65625 0,0.36329 0.26953,0.64454 0.64453,0.64454 0.42188,0 0.67969,-0.28125 0.66797,-0.64454 0,-0.375 -0.24609,-0.65625 -0.64453,-0.65625 z m 2.2793,8.09766 h 1.03125 v -3.50391 c 0,-0.17578 0.0234,-0.36328 0.082,-0.51562 0.16406,-0.52734 0.64453,-1.05469 1.3125,-1.05469 0.79687,0 1.20703,0.66797 1.20703,1.59375 v 3.48047 h 1.03125 v -3.58594 c 0,-0.19922 0.0352,-0.38672 0.082,-0.52734 0.1875,-0.51563 0.65625,-0.96094 1.25391,-0.96094 0.84375,0 1.2539,0.66797 1.2539,1.78125 v 3.29297 h 1.03125 v -3.42187 c 0,-2.01563 -1.13671,-2.51954 -1.89843,-2.51954 -0.5625,0 -0.9375,0.14063 -1.28907,0.41016 -0.24609,0.17578 -0.46875,0.43359 -0.64453,0.75 h -0.0234 c -0.25782,-0.67969 -0.85547,-1.16016 -1.65235,-1.16016 -0.96094,0 -1.5,0.51563 -1.8164,1.06641 h -0.0352 l -0.0469,-0.9375 h -0.92578 c 0.0352,0.48047 0.0469,0.97266 0.0469,1.58203 z m 16.72265,0 c -0.0703,-0.39844 -0.0937,-0.89062 -0.0937,-1.39453 v -2.16797 c 0,-1.16016 -0.43359,-2.37891 -2.21484,-2.37891 -0.72656,0 -1.41797,0.21094 -1.89844,0.51563 l 0.23438,0.70312 c 0.41015,-0.26953 0.97265,-0.43359 1.51172,-0.43359 1.19531,0 1.32422,0.85547 1.32422,1.33594 v 0.1289 c -2.25,-0.0117 -3.49219,0.75 -3.49219,2.15625 0,0.84375 0.59765,1.66407 1.76953,1.66407 0.83203,0 1.45312,-0.41016 1.78125,-0.85547 h 0.0352 l 0.082,0.72656 z m -1.11328,-1.95703 c 0,0.10547 -0.0234,0.23437 -0.0586,0.33984 -0.17578,0.49219 -0.65625,0.97266 -1.40625,0.97266 -0.53906,0 -0.99609,-0.32813 -0.99609,-1.00781 0,-1.13672 1.3125,-1.33594 2.46093,-1.3125 z m 6.68848,-6.5625 v 3.46875 h -0.0234 c -0.26953,-0.46875 -0.86719,-0.89063 -1.75781,-0.89063 -1.41797,0 -2.61328,1.1836 -2.60156,3.11719 0,1.76953 1.07812,2.95313 2.48437,2.95313 0.94922,0 1.65235,-0.49219 1.98047,-1.13672 h 0.0234 l 0.0469,1.00781 h 0.94922 c -0.0351,-0.39844 -0.0469,-0.98437 -0.0469,-1.5 v -7.01953 z m 0,6.08203 c 0,0.16406 -0.0117,0.31641 -0.0469,0.45703 -0.19921,0.79688 -0.84375,1.26563 -1.55859,1.26563 -1.13672,0 -1.71094,-0.97266 -1.71094,-2.15625 0,-1.27735 0.64453,-2.23828 1.7461,-2.23828 0.78515,0 1.35937,0.55078 1.52343,1.21875 0.0352,0.1289 0.0469,0.3164 0.0469,0.44531 z m 5.34961,2.4375 h 1.03125 v -3.50391 c 0,-0.17578 0.0234,-0.36328 0.082,-0.51562 0.16406,-0.52734 0.64453,-1.05469 1.3125,-1.05469 0.79688,0 1.20703,0.66797 1.20703,1.59375 v 3.48047 h 1.03125 v -3.58594 c 0,-0.19922 0.0352,-0.38672 0.082,-0.52734 0.1875,-0.51563 0.65625,-0.96094 1.25391,-0.96094 0.84375,0 1.25391,0.66797 1.25391,1.78125 v 3.29297 h 1.03125 v -3.42187 c 0,-2.01563 -1.13672,-2.51954 -1.89844,-2.51954 -0.5625,0 -0.9375,0.14063 -1.28906,0.41016 -0.2461,0.17578 -0.46875,0.43359 -0.64454,0.75 h -0.0234 c -0.25782,-0.67969 -0.85547,-1.16016 -1.65235,-1.16016 -0.96093,0 -1.5,0.51563 -1.8164,1.06641 h -0.0352 l -0.0469,-0.9375 h -0.92579 c 0.0352,0.48047 0.0469,0.97266 0.0469,1.58203 z m 11.0625,0 v -5.8125 h -1.05469 v 5.8125 z m -0.52734,-8.09766 c -0.38672,0 -0.66797,0.28125 -0.66797,0.65625 0,0.36329 0.26953,0.64454 0.64453,0.64454 0.42187,0 0.67969,-0.28125 0.66797,-0.64454 0,-0.375 -0.2461,-0.65625 -0.64453,-0.65625 z m 2.28222,8.09766 h 1.05469 v -3.49219 c 0,-0.17578 0.0234,-0.36328 0.0703,-0.49218 0.17578,-0.58594 0.71485,-1.07813 1.41797,-1.07813 0.99609,0 1.34766,0.77344 1.34766,1.71094 v 3.35156 h 1.05468 v -3.46875 c 0,-1.99219 -1.2539,-2.47266 -2.05078,-2.47266 -0.96093,0 -1.64062,0.53907 -1.92187,1.08985 h -0.0234 l -0.0586,-0.96094 h -0.9375 c 0.0351,0.48047 0.0469,0.97266 0.0469,1.58203 z m 7.71387,0 v -5.8125 h -1.05469 v 5.8125 z m -0.52734,-8.09766 c -0.38672,0 -0.66797,0.28125 -0.66797,0.65625 0,0.36329 0.26953,0.64454 0.64453,0.64454 0.42187,0 0.67969,-0.28125 0.66797,-0.64454 0,-0.375 -0.2461,-0.65625 -0.64453,-0.65625 z m 2.28222,8.09766 h 1.03125 v -3.50391 c 0,-0.17578 0.0234,-0.36328 0.082,-0.51562 0.16407,-0.52734 0.64453,-1.05469 1.3125,-1.05469 0.79688,0 1.20703,0.66797 1.20703,1.59375 v 3.48047 h 1.03125 v -3.58594 c 0,-0.19922 0.0352,-0.38672 0.082,-0.52734 0.1875,-0.51563 0.65625,-0.96094 1.2539,-0.96094 0.84375,0 1.25391,0.66797 1.25391,1.78125 v 3.29297 h 1.03125 v -3.42187 c 0,-2.01563 -1.13672,-2.51954 -1.89844,-2.51954 -0.5625,0 -0.9375,0.14063 -1.28906,0.41016 -0.2461,0.17578 -0.46875,0.43359 -0.64453,0.75 h -0.0234 c -0.25781,-0.67969 -0.85547,-1.16016 -1.65234,-1.16016 -0.96094,0 -1.5,0.51563 -1.81641,1.06641 h -0.0352 l -0.0469,-0.9375 H 237.483 c 0.0351,0.48047 0.0469,0.97266 0.0469,1.58203 z m -191.188473,8.58984 2.214844,5.8125 h 1.007813 l 2.273437,-5.8125 h -1.101562 l -1.125,3.26954 c -0.199219,0.52734 -0.363282,1.00781 -0.492188,1.48828 h -0.03516 c -0.117188,-0.48047 -0.28125,-0.96094 -0.46875,-1.48828 l -1.136719,-3.26954 z m 11.039063,3.10547 c 0.01172,-0.11718 0.03516,-0.28125 0.03516,-0.49218 0,-1.07813 -0.503906,-2.74219 -2.402344,-2.74219 -1.6875,0 -2.71875,1.38281 -2.71875,3.1289 0,1.75782 1.066407,2.92969 2.859375,2.92969 0.914063,0 1.558594,-0.1875 1.921875,-0.35156 l -0.175781,-0.76172 c -0.398437,0.16406 -0.855469,0.30469 -1.605469,0.30469 -1.054687,0 -1.96875,-0.59766 -1.992187,-2.01563 z m -4.066406,-0.76172 c 0.08203,-0.72656 0.550781,-1.71093 1.617187,-1.71093 1.195313,0 1.476563,1.04297 1.464844,1.71093 z m 5.416992,3.46875 h 1.054687 v -3.49218 c 0,-0.17578 0.02344,-0.36328 0.07031,-0.49219 0.175781,-0.58594 0.714844,-1.07813 1.417969,-1.07813 0.996093,0 1.347656,0.77344 1.347656,1.71094 v 3.35156 h 1.054687 v -3.46875 c 0,-1.99218 -1.253906,-2.47265 -2.050781,-2.47265 -0.960937,0 -1.640625,0.53906 -1.921875,1.08984 h -0.02344 l -0.05859,-0.96094 h -0.9375 c 0.03516,0.48047 0.04687,0.97266 0.04687,1.58204 z m 7.713867,0 v -5.8125 h -1.054688 v 5.8125 z m -0.527344,-8.09765 c -0.386719,0 -0.667969,0.28125 -0.667969,0.65625 0,0.36328 0.269532,0.64453 0.644532,0.64453 0.421875,0 0.679687,-0.28125 0.667968,-0.64453 0,-0.375 -0.246093,-0.65625 -0.644531,-0.65625 z m 6.451172,8.09765 c -0.07031,-0.39843 -0.09375,-0.89062 -0.09375,-1.39453 v -2.16797 c 0,-1.16015 -0.433594,-2.3789 -2.214844,-2.3789 -0.726562,0 -1.417968,0.21094 -1.898437,0.51562 l 0.234375,0.70313 c 0.410156,-0.26953 0.972656,-0.4336 1.511719,-0.4336 1.195312,0 1.324218,0.85547 1.324218,1.33594 v 0.12891 c -2.25,-0.0117 -3.492187,0.75 -3.492187,2.15625 0,0.84375 0.597656,1.66406 1.769531,1.66406 0.832031,0 1.453125,-0.41016 1.78125,-0.85547 h 0.03516 l 0.08203,0.72656 z m -1.113281,-1.95703 c 0,0.10547 -0.02344,0.23438 -0.05859,0.33985 -0.175781,0.49218 -0.65625,0.97265 -1.40625,0.97265 -0.539062,0 -0.996094,-0.32812 -0.996094,-1.00781 0,-1.13672 1.3125,-1.33594 2.460938,-1.3125 z m 2.727539,1.95703 h 1.03125 v -3.5039 c 0,-0.17578 0.02344,-0.36328 0.08203,-0.51563 0.164063,-0.52734 0.644531,-1.05468 1.3125,-1.05468 0.796875,0 1.207031,0.66796 1.207031,1.59375 v 3.48046 h 1.03125 v -3.58593 c 0,-0.19922 0.03516,-0.38672 0.08203,-0.52735 0.1875,-0.51562 0.65625,-0.96093 1.253906,-0.96093 0.84375,0 1.253906,0.66796 1.253906,1.78125 v 3.29296 h 1.03125 v -3.42187 c 0,-2.01563 -1.136719,-2.51953 -1.898437,-2.51953 -0.5625,0 -0.9375,0.14062 -1.289063,0.41015 -0.246094,0.17579 -0.46875,0.4336 -0.644531,0.75 h -0.02344 c -0.257812,-0.67968 -0.855468,-1.16015 -1.652343,-1.16015 -0.960938,0 -1.5,0.51562 -1.816407,1.0664 h -0.03516 l -0.04687,-0.9375 H 73.93623 c 0.03516,0.48047 0.04687,0.97266 0.04687,1.58204 z m 10.078125,1.40625 c 0.339844,-0.5625 0.867187,-1.89843 1.136719,-2.91796 l -1.171875,0.11718 c -0.128907,0.87891 -0.457032,2.16797 -0.726563,2.8711 z m 8.917969,0.97266 h 1.054687 v -6.58594 c 0,-0.60937 0.01172,-1.11328 0.03516,-1.60547 h -0.996093 l -0.03516,0.87891 h -0.02344 c -0.292969,-0.5625 -0.890625,-1.00781 -1.792969,-1.00781 -1.21875,0 -2.625,0.96094 -2.625,3.1289 0,1.76954 1.101563,2.94141 2.460938,2.94141 0.9375,0 1.582031,-0.45703 1.898437,-1.03125 h 0.02344 z m 0,-4.74609 c 0,0.16406 -0.03516,0.36328 -0.08203,0.5039 -0.246093,0.73828 -0.832031,1.16016 -1.523437,1.16016 -1.160156,0 -1.710938,-1.00781 -1.710938,-2.16797 0,-1.30078 0.65625,-2.22656 1.757813,-2.22656 0.785156,0 1.347656,0.55078 1.511719,1.19531 0.03516,0.12891 0.04687,0.30469 0.04687,0.44531 z m 7.646487,-3.44532 H 99.571 v 3.57422 c 0,0.1875 -0.03516,0.375 -0.09375,0.53907 -0.1875,0.46875 -0.679688,0.96093 -1.394532,0.96093 -0.960937,0 -1.289062,-0.75 -1.289062,-1.85156 v -3.22266 h -1.054688 v 3.39844 c 0,2.03906 1.089844,2.54297 2.003907,2.54297 1.03125,0 1.640625,-0.60937 1.921875,-1.07812 h 0.02344 l 0.05859,0.94921 h 0.9375 c -0.0469,-0.45703 -0.0586,-0.98437 -0.0586,-1.58203 z m 2.81542,5.8125 v -5.8125 h -1.05468 v 5.8125 z m -0.52734,-8.09765 c -0.38672,0 -0.66797,0.28125 -0.66797,0.65625 0,0.36328 0.26953,0.64453 0.64453,0.64453 0.42188,0 0.67969,-0.28125 0.66797,-0.64453 0,-0.375 -0.24609,-0.65625 -0.64453,-0.65625 z m 1.86914,7.8164 c 0.41016,0.2461 0.9961,0.39844 1.62891,0.39844 1.38281,0 2.17969,-0.71484 2.17969,-1.73437 0,-0.86719 -0.51563,-1.3711 -1.53516,-1.75782 -0.75,-0.28125 -1.10156,-0.5039 -1.10156,-0.98437 0,-0.43359 0.35156,-0.78516 0.97265,-0.78516 0.53907,0 0.96094,0.1875 1.19532,0.32813 l 0.25781,-0.76172 c -0.32813,-0.19922 -0.84375,-0.36328 -1.42969,-0.36328 -1.24219,0 -2.00391,0.77344 -2.00391,1.71094 0,0.6914 0.49219,1.26562 1.53516,1.64062 0.78516,0.28125 1.08984,0.5625 1.08984,1.06641 0,0.48047 -0.36328,0.86718 -1.13671,0.86718 -0.52735,0 -1.07813,-0.22265 -1.39454,-0.42187 z m -53.958981,14.68067 h 1.054688 v -3.49219 c 0,-0.17578 0.02344,-0.36328 0.07031,-0.49219 0.175781,-0.58593 0.714844,-1.07812 1.417969,-1.07812 0.996094,0 1.347656,0.77344 1.347656,1.71094 v 3.35156 h 1.054688 v -3.46875 c 0,-1.99219 -1.253907,-2.47266 -2.050782,-2.47266 -0.960937,0 -1.640625,0.53906 -1.921875,1.08985 h -0.02344 l -0.05859,-0.96094 h -0.9375 c 0.03516,0.48047 0.04687,0.97265 0.04687,1.58203 z m 9.120117,-5.94141 c -1.617187,0 -2.882812,1.13672 -2.882812,3.08203 0,1.83985 1.207031,2.98828 2.777344,2.98828 1.40625,0 2.894531,-0.9375 2.894531,-3.08203 0,-1.76953 -1.125,-2.98828 -2.789063,-2.98828 z m -0.02344,0.79688 c 1.242187,0 1.734375,1.24218 1.734375,2.22656 0,1.3125 -0.75,2.26172 -1.757813,2.26172 -1.03125,0 -1.769531,-0.96094 -1.769531,-2.23828 0,-1.10157 0.539063,-2.25 1.792969,-2.25 z m 3.741211,4.86328 c 0.410156,0.24609 0.996094,0.39844 1.628906,0.39844 1.382813,0 2.179688,-0.71485 2.179688,-1.73438 0,-0.86719 -0.515625,-1.37109 -1.535157,-1.75781 -0.75,-0.28125 -1.101562,-0.50391 -1.101562,-0.98438 0,-0.43359 0.351562,-0.78515 0.972656,-0.78515 0.539063,0 0.960938,0.1875 1.195313,0.32812 l 0.257812,-0.76172 c -0.328125,-0.19922 -0.84375,-0.36328 -1.429687,-0.36328 -1.242188,0 -2.003907,0.77344 -2.003907,1.71094 0,0.69141 0.492188,1.26562 1.535157,1.64062 0.785156,0.28125 1.089843,0.5625 1.089843,1.06641 0,0.48047 -0.363281,0.86719 -1.136718,0.86719 -0.527344,0 -1.078125,-0.22266 -1.394532,-0.42188 z m 5.396484,-6.91406 v 1.38281 h -0.902344 v 0.80859 h 0.902344 v 3.16406 c 0,0.69141 0.105469,1.20704 0.410156,1.51172 0.257813,0.29297 0.644532,0.44532 1.136719,0.44532 0.410156,0 0.738281,-0.0586 0.9375,-0.14063 l -0.04687,-0.79687 c -0.128906,0.0351 -0.339844,0.082 -0.609375,0.082 -0.585937,0 -0.796875,-0.41016 -0.796875,-1.13672 v -3.12891 h 1.511719 v -0.80859 h -1.511719 v -1.66406 z m 3.735352,7.19531 h 1.042969 v -3.09375 c 0,-0.1875 0.02344,-0.35156 0.04687,-0.49219 0.140625,-0.79687 0.667968,-1.35937 1.417968,-1.35937 0.140625,0 0.246094,0.0117 0.351563,0.0351 v -0.99609 c -0.09375,-0.0234 -0.175781,-0.0352 -0.292969,-0.0352 -0.714844,0 -1.347656,0.49219 -1.605469,1.27735 h -0.04687 l -0.03516,-1.14844 h -0.925781 c 0.03516,0.53906 0.04687,1.13672 0.04687,1.8164 z m 8.777344,-5.8125 H 80.5162 v 3.57422 c 0,0.1875 -0.03516,0.375 -0.09375,0.53906 -0.1875,0.46875 -0.679687,0.96094 -1.394531,0.96094 -0.960938,0 -1.289063,-0.75 -1.289063,-1.85157 v -3.22265 h -1.054687 v 3.39844 c 0,2.03906 1.089844,2.54296 2.003906,2.54296 1.03125,0 1.640625,-0.60937 1.921875,-1.07812 h 0.02344 l 0.05859,0.94922 h 0.9375 c -0.04687,-0.45703 -0.05859,-0.98438 -0.05859,-1.58203 z m 5.721679,-2.70703 v 3.46875 h -0.02344 c -0.269532,-0.46875 -0.867188,-0.89063 -1.757813,-0.89063 -1.417969,0 -2.613281,1.1836 -2.601562,3.11719 0,1.76953 1.078125,2.95312 2.484375,2.95312 0.949218,0 1.652343,-0.49218 1.980468,-1.13671 h 0.02344 l 0.04687,1.00781 h 0.949219 c -0.03516,-0.39844 -0.04687,-0.98438 -0.04687,-1.5 v -7.01953 z m 0,6.08203 c 0,0.16406 -0.01172,0.3164 -0.04687,0.45703 -0.199219,0.79687 -0.84375,1.26562 -1.558594,1.26562 -1.136718,0 -1.710937,-0.97265 -1.710937,-2.15625 0,-1.27734 0.644531,-2.23828 1.746094,-2.23828 0.785156,0 1.359375,0.55078 1.523437,1.21875 0.03516,0.12891 0.04687,0.31641 0.04687,0.44532 z M 59.23202,170.09275 c 0.01172,-0.11719 0.03516,-0.28125 0.03516,-0.49219 0,-1.07812 -0.503907,-2.74218 -2.402344,-2.74218 -1.6875,0 -2.71875,1.38281 -2.71875,3.1289 0,1.75782 1.066406,2.92969 2.859375,2.92969 0.914062,0 1.558594,-0.1875 1.921875,-0.35156 l -0.175781,-0.76172 c -0.398438,0.16406 -0.855469,0.30469 -1.605469,0.30469 -1.054688,0 -1.96875,-0.59766 -1.992188,-2.01563 z m -4.066406,-0.76172 c 0.08203,-0.72656 0.550781,-1.71093 1.617188,-1.71093 1.195312,0 1.476562,1.04296 1.464843,1.71093 z m 4.68457,-2.34375 1.96875,2.84766 -2.0625,2.96484 h 1.171875 l 0.832032,-1.3125 c 0.222656,-0.33984 0.421875,-0.65625 0.609375,-1.00781 h 0.02344 c 0.210938,0.35156 0.398438,0.67969 0.632813,1.00781 l 0.84375,1.3125 h 1.207031 l -2.039063,-3 1.980469,-2.8125 h -1.148437 l -0.808594,1.24219 c -0.199219,0.30469 -0.386719,0.60938 -0.574219,0.96094 h -0.03516 c -0.199219,-0.32813 -0.375,-0.6211 -0.597656,-0.94922 l -0.820313,-1.25391 z m 10.731446,3.10547 c 0.01172,-0.11719 0.03516,-0.28125 0.03516,-0.49219 0,-1.07812 -0.503906,-2.74218 -2.402344,-2.74218 -1.6875,0 -2.71875,1.38281 -2.71875,3.1289 0,1.75782 1.066406,2.92969 2.859375,2.92969 0.914063,0 1.558594,-0.1875 1.921875,-0.35156 l -0.175781,-0.76172 c -0.398438,0.16406 -0.855469,0.30469 -1.605469,0.30469 -1.054687,0 -1.96875,-0.59766 -1.992187,-2.01563 z m -4.066407,-0.76172 c 0.08203,-0.72656 0.550782,-1.71093 1.617188,-1.71093 1.195312,0 1.476562,1.04296 1.464844,1.71093 z m 5.416993,3.46875 h 1.042968 v -3.09375 c 0,-0.1875 0.02344,-0.35156 0.04687,-0.49218 0.140625,-0.79688 0.667969,-1.35938 1.417969,-1.35938 0.140625,0 0.246094,0.0117 0.351563,0.0352 v -0.9961 c -0.09375,-0.0234 -0.175782,-0.0351 -0.292969,-0.0351 -0.714844,0 -1.347656,0.49218 -1.605469,1.27734 h -0.04687 l -0.03516,-1.14844 h -0.925781 c 0.03516,0.53907 0.04687,1.13672 0.04687,1.81641 z m 7.763672,-1.00781 c -0.304688,0.12891 -0.703125,0.29297 -1.300782,0.29297 -1.148437,0 -2.015625,-0.83203 -2.015625,-2.17969 0,-1.20703 0.714844,-2.1914 2.050782,-2.1914 0.574218,0 0.972656,0.1289 1.230468,0.26953 l 0.234375,-0.8086 c -0.28125,-0.15234 -0.84375,-0.30468 -1.464843,-0.30468 -1.898438,0 -3.117188,1.30078 -3.117188,3.08203 0,1.78125 1.136719,2.96484 2.894531,2.96484 0.773438,0 1.382813,-0.1875 1.664063,-0.32812 z m 2.469726,1.00781 v -5.8125 h -1.054687 v 5.8125 z m -0.527344,-8.09765 c -0.386718,0 -0.667968,0.28125 -0.667968,0.65625 0,0.36328 0.269531,0.64453 0.644531,0.64453 0.421875,0 0.679687,-0.28125 0.667969,-0.64453 0,-0.375 -0.246094,-0.65625 -0.644532,-0.65625 z m 0,0"
       style="fill:#231f20;fill-opacity:1;fill-rule:nonzero;stroke:none"
       aria-label="orem &#10;ipsum dolor &#10;sit amet, &#10;consec-tetuer &#10;adipisc-ing elit, &#10;sed diam &#10;nonummy nibh &#10;euismod tincid-unt ut laoreet dolore magna &#10;aliquam erat volutpat. Ut wisi enim ad minim &#10;veniam, quis &#10;nostrud &#10;exerci "
       transform="matrix(1.3333333,0,0,1.3333333,1523.1451,570.69013)" />
  </g>
</svg>
